# Blender 4.2.0
# www.blender.org
mtllib Battery_Green.mtl
o Battery_Green
v -0.348628 -0.009536 0.231325
v -0.348628 0.386690 0.231325
v -0.348628 -0.009536 -0.231325
v -0.348628 0.386690 -0.231325
v 0.348628 -0.009536 0.231325
v 0.348628 0.386690 0.231325
v 0.348628 -0.009536 -0.231325
v 0.348628 0.386690 -0.231325
v -0.452052 0.102949 0.299950
v -0.452052 0.274205 0.299950
v -0.452052 0.274205 -0.299950
v -0.452052 0.102949 -0.299950
v 0.452052 0.274205 -0.299950
v 0.452052 0.102949 -0.299950
v 0.452052 0.274205 0.299950
v 0.452052 0.102949 0.299950
v -0.348628 0.782915 0.231325
v -0.348628 0.782915 -0.231325
v 0.348628 0.782915 0.231325
v 0.348628 0.782915 -0.231325
v -0.452052 0.499174 0.299950
v -0.452052 0.670431 0.299950
v -0.452052 0.670431 -0.299950
v -0.452052 0.499174 -0.299950
v 0.452052 0.670431 -0.299950
v 0.452052 0.499174 -0.299950
v 0.452052 0.670431 0.299950
v 0.452052 0.499174 0.299950
v -0.089130 0.491701 0.335494
v -0.182688 0.491701 0.335494
v -0.182688 0.677904 0.335494
v -0.089130 0.677904 0.335494
v 0.182688 0.491701 0.335494
v 0.089130 0.491701 0.335494
v 0.089130 0.677904 0.335494
v 0.182688 0.677904 0.335494
v 0.089130 0.386690 -0.267925
v 0.182688 0.386690 -0.267925
v -0.182688 0.386690 -0.267925
v -0.089130 0.386690 -0.267925
v 0.089130 0.491701 -0.335494
v 0.182688 0.491701 -0.335494
v 0.182688 0.677904 -0.335494
v 0.089130 0.677904 -0.335494
v -0.182688 0.491701 -0.335494
v -0.089130 0.491701 -0.335494
v -0.089130 0.677904 -0.335494
v -0.182688 0.677904 -0.335494
v 0.089130 0.809725 -0.250289
v 0.182688 0.809725 -0.250289
v 0.182688 0.809725 0.250289
v 0.089130 0.809725 0.250289
v -0.182688 0.809725 -0.250289
v -0.089130 0.809725 -0.250289
v -0.089130 0.809725 0.250289
v -0.182688 0.809725 0.250289
v 0.089130 -0.009536 -0.231325
v 0.182688 -0.009536 -0.231325
v -0.182688 -0.009536 -0.231325
v -0.089130 -0.009536 -0.231325
v -0.089130 0.386690 -0.231325
v -0.182688 0.386690 -0.231325
v 0.182688 0.386690 -0.231325
v 0.089130 0.386690 -0.231325
v -0.089130 -0.009536 0.231325
v -0.182688 -0.009536 0.231325
v 0.182688 -0.009536 0.231325
v 0.089130 -0.009536 0.231325
v 0.089130 0.386690 0.231325
v 0.182688 0.386690 0.231325
v -0.182688 0.386690 0.231325
v -0.089130 0.386690 0.231325
v 0.089130 0.102949 0.299950
v 0.182688 0.102949 0.299950
v -0.182688 0.102949 0.299950
v -0.089130 0.102949 0.299950
v 0.182688 0.274205 0.299950
v 0.089130 0.274205 0.299950
v -0.089130 0.274205 0.299950
v -0.182688 0.274205 0.299950
v -0.089130 0.102949 -0.299950
v -0.182688 0.102949 -0.299950
v 0.182688 0.102949 -0.299950
v 0.089130 0.102949 -0.299950
v -0.182688 0.274205 -0.299950
v -0.089130 0.274205 -0.299950
v 0.089130 0.274205 -0.299950
v 0.182688 0.274205 -0.299950
v -0.089130 0.782915 -0.231325
v -0.182688 0.782915 -0.231325
v 0.182688 0.782915 -0.231325
v 0.089130 0.782915 -0.231325
v 0.089130 0.782915 0.231325
v 0.182688 0.782915 0.231325
v -0.182688 0.782915 0.231325
v -0.089130 0.782915 0.231325
v 0.089130 0.499174 0.299950
v 0.182688 0.499174 0.299950
v -0.182688 0.499174 0.299950
v -0.089130 0.499174 0.299950
v 0.182688 0.670431 0.299950
v 0.089130 0.670431 0.299950
v -0.089130 0.670431 0.299950
v -0.182688 0.670431 0.299950
v -0.089130 0.499174 -0.299950
v -0.182688 0.499174 -0.299950
v 0.182688 0.499174 -0.299950
v 0.089130 0.499174 -0.299950
v -0.182688 0.670431 -0.299950
v -0.089130 0.670431 -0.299950
v 0.089130 0.670431 -0.299950
v 0.182688 0.670431 -0.299950
v 0.089130 0.386690 0.267925
v 0.182688 0.386690 0.267925
v -0.182688 0.386690 0.267925
v -0.089130 0.386690 0.267925
v -0.182688 0.281678 -0.335494
v -0.089130 0.281678 -0.335494
v -0.089130 0.095475 -0.335494
v -0.182688 0.095475 -0.335494
v 0.089130 0.281678 -0.335494
v 0.182688 0.281678 -0.335494
v 0.182688 0.095475 -0.335494
v 0.089130 0.095475 -0.335494
v -0.089130 -0.024051 -0.263764
v -0.182688 -0.024051 -0.263764
v 0.182688 -0.024051 -0.263764
v 0.089130 -0.024051 -0.263764
v 0.182688 0.281678 0.335494
v 0.089130 0.281678 0.335494
v 0.089130 0.095475 0.335494
v 0.182688 0.095475 0.335494
v -0.089130 0.281678 0.335494
v -0.182688 0.281678 0.335494
v -0.182688 0.095475 0.335494
v -0.089130 0.095475 0.335494
v 0.089130 -0.024051 0.263764
v 0.182688 -0.024051 0.263764
v -0.182688 -0.024051 0.263764
v -0.089130 -0.024051 0.263764
v -0.258329 0.768563 -0.204031
v -0.258329 0.834212 -0.204031
v -0.231415 0.768563 -0.196819
v -0.231415 0.834212 -0.196819
v -0.211712 0.768563 -0.177116
v -0.211712 0.834212 -0.177116
v -0.204500 0.768563 -0.150202
v -0.204500 0.834212 -0.150202
v -0.211712 0.768563 -0.123288
v -0.211712 0.834212 -0.123288
v -0.231415 0.768563 -0.103585
v -0.231415 0.834212 -0.103585
v -0.258329 0.768563 -0.096373
v -0.258329 0.834212 -0.096373
v -0.285243 0.768563 -0.103585
v -0.285243 0.834212 -0.103585
v -0.304946 0.768563 -0.123288
v -0.304946 0.834212 -0.123288
v -0.312158 0.768563 -0.150202
v -0.312158 0.834212 -0.150202
v -0.304946 0.768563 -0.177116
v -0.304946 0.834212 -0.177116
v -0.285243 0.768563 -0.196819
v -0.285243 0.834212 -0.196819
v 0.258329 0.768563 -0.204031
v 0.258329 0.834212 -0.204031
v 0.231415 0.768563 -0.196819
v 0.231415 0.834212 -0.196819
v 0.211712 0.768563 -0.177116
v 0.211712 0.834212 -0.177116
v 0.204500 0.768563 -0.150202
v 0.204500 0.834212 -0.150202
v 0.211712 0.768563 -0.123288
v 0.211712 0.834212 -0.123288
v 0.231415 0.768563 -0.103585
v 0.231415 0.834212 -0.103585
v 0.258329 0.768563 -0.096373
v 0.258329 0.834212 -0.096373
v 0.285243 0.768563 -0.103585
v 0.285243 0.834212 -0.103585
v 0.304946 0.768563 -0.123288
v 0.304946 0.834212 -0.123288
v 0.312158 0.768563 -0.150202
v 0.312158 0.834212 -0.150202
v 0.304946 0.768563 -0.177116
v 0.304946 0.834212 -0.177116
v 0.285243 0.768563 -0.196819
v 0.285243 0.834212 -0.196819
vn -0.7361 0.6768 -0.0000
vn -0.0000 -0.5208 0.8537
vn 0.7361 0.6768 -0.0000
vn -0.0000 -0.0000 1.0000
vn -0.0000 -0.0000 -1.0000
vn 0.7361 -0.6768 -0.0000
vn 1.0000 -0.0000 -0.0000
vn -0.0000 -0.5208 -0.8537
vn -0.0000 0.5208 -0.8537
vn -0.7361 -0.6768 -0.0000
vn -1.0000 -0.0000 -0.0000
vn -0.0000 0.5208 0.8537
vn -0.0000 1.0000 -0.0000
vn -0.0000 -0.5411 -0.8410
vn -0.0000 -0.5411 0.8410
vn -0.0000 0.5428 0.8398
vn -0.0000 0.5428 -0.8398
vn -0.0000 -0.5146 -0.8574
vn -0.0000 -0.5146 0.8574
vn -0.0000 0.5411 0.8410
vn -0.0000 0.5411 -0.8410
vn 0.2588 -0.0000 -0.9659
vn 0.7071 -0.0000 -0.7071
vn 0.9659 -0.0000 -0.2588
vn 0.9659 -0.0000 0.2588
vn 0.7071 -0.0000 0.7071
vn 0.2588 -0.0000 0.9659
vn -0.2588 -0.0000 0.9659
vn -0.7071 -0.0000 0.7071
vn -0.8660 -0.0000 0.5000
vn -0.9659 -0.0000 0.2588
vn -0.9659 -0.0000 -0.2588
vn -0.8660 -0.0000 -0.5000
vn -0.7071 -0.0000 -0.7071
vn -0.2588 -0.0000 -0.9659
vn 0.8660 -0.0000 0.5000
vn 0.8660 -0.0000 -0.5000
vt 0.827124 0.796811
vt 0.827118 0.796808
vt 0.827118 0.796791
vt 0.827124 0.796788
vt 0.827125 0.796788
vt 0.827130 0.796788
vt 0.827130 0.796798
vt 0.827125 0.796795
vt 0.827117 0.796787
vt 0.827112 0.796785
vt 0.827112 0.796768
vt 0.827117 0.796765
vt 0.827104 0.796835
vt 0.827111 0.796835
vt 0.827111 0.796845
vt 0.827104 0.796845
vt 0.674444 0.707602
vt 0.674440 0.707602
vt 0.674440 0.707596
vt 0.674444 0.707596
vt 0.827124 0.796845
vt 0.827118 0.796845
vt 0.827118 0.796835
vt 0.827124 0.796835
vt 0.827104 0.796814
vt 0.827110 0.796812
vt 0.827110 0.796834
vt 0.827104 0.796831
vt 0.827097 0.796765
vt 0.827103 0.796765
vt 0.827103 0.796787
vt 0.827097 0.796787
vt 0.674444 0.707610
vt 0.674440 0.707610
vt 0.674440 0.707604
vt 0.674444 0.707604
vt 0.827125 0.796835
vt 0.827130 0.796839
vt 0.827130 0.796845
vt 0.827125 0.796845
vt 0.827117 0.796808
vt 0.827112 0.796811
vt 0.827112 0.796788
vt 0.827117 0.796791
vt 0.827104 0.796788
vt 0.827111 0.796788
vt 0.827111 0.796811
vt 0.827104 0.796811
vt 0.827111 0.796812
vt 0.827117 0.796814
vt 0.827117 0.796831
vt 0.827111 0.796834
vt 0.827104 0.796846
vt 0.827109 0.796850
vt 0.827109 0.796856
vt 0.827104 0.796856
vt 0.827097 0.796820
vt 0.827103 0.796823
vt 0.827103 0.796840
vt 0.827097 0.796843
vt 0.827087 0.796840
vt 0.827093 0.796840
vt 0.827093 0.796850
vt 0.827087 0.796850
vt 0.827102 0.796854
vt 0.827097 0.796854
vt 0.827097 0.796848
vt 0.827102 0.796844
vt 0.827066 0.796850
vt 0.827060 0.796850
vt 0.827060 0.796840
vt 0.827066 0.796840
vt 0.827124 0.796785
vt 0.827118 0.796787
vt 0.827118 0.796765
vt 0.827124 0.796768
vt 0.827097 0.796797
vt 0.827103 0.796797
vt 0.827103 0.796819
vt 0.827097 0.796819
vt 0.827136 0.796775
vt 0.827131 0.796775
vt 0.827131 0.796769
vt 0.827136 0.796765
vt 0.324377 0.057323
vt 0.827123 0.796831
vt 0.827118 0.796834
vt 0.827118 0.796812
vt 0.827123 0.796814
vt 0.827104 0.796765
vt 0.827111 0.796765
vt 0.827111 0.796787
vt 0.827104 0.796787
vt 0.827117 0.796856
vt 0.827112 0.796856
vt 0.827112 0.796850
vt 0.827117 0.796846
vt 0.674368 0.707635
vt 0.674373 0.707635
vt 0.674373 0.707642
vt 0.674368 0.707642
vt 0.827086 0.796846
vt 0.827080 0.796846
vt 0.827080 0.796829
vt 0.827086 0.796829
vt 0.674445 0.707637
vt 0.674439 0.707637
vt 0.674439 0.707630
vt 0.674445 0.707630
vt 0.827131 0.796822
vt 0.827124 0.796822
vt 0.827124 0.796812
vt 0.827131 0.796812
vt 0.674445 0.707571
vt 0.674440 0.707571
vt 0.674440 0.707564
vt 0.674445 0.707564
vt 0.827130 0.796775
vt 0.827125 0.796775
vt 0.827125 0.796765
vt 0.827130 0.796769
vt 0.674407 0.707645
vt 0.674400 0.707645
vt 0.674400 0.707639
vt 0.674407 0.707639
vt 0.827066 0.796839
vt 0.827060 0.796839
vt 0.827060 0.796829
vt 0.827066 0.796829
vt 0.674444 0.707618
vt 0.674440 0.707618
vt 0.674440 0.707611
vt 0.674444 0.707611
vt 0.827118 0.796846
vt 0.827122 0.796846
vt 0.827122 0.796856
vt 0.827118 0.796852
vt 0.674445 0.707556
vt 0.674440 0.707556
vt 0.674440 0.707549
vt 0.674445 0.707549
vt 0.827136 0.796786
vt 0.827131 0.796786
vt 0.827131 0.796780
vt 0.827136 0.796776
vt 0.827059 0.796846
vt 0.827052 0.796846
vt 0.827052 0.796829
vt 0.827059 0.796829
vt 0.674355 0.707630
vt 0.674348 0.707630
vt 0.674348 0.707613
vt 0.674355 0.707613
vt 0.674397 0.707642
vt 0.674390 0.707642
vt 0.674390 0.707635
vt 0.674397 0.707635
vt 0.827087 0.796829
vt 0.827093 0.796829
vt 0.827093 0.796839
vt 0.827087 0.796839
vt 0.827136 0.796845
vt 0.827131 0.796841
vt 0.827131 0.796835
vt 0.827136 0.796835
vt 0.827130 0.796852
vt 0.827125 0.796856
vt 0.827125 0.796846
vt 0.827130 0.796846
vt 0.674441 0.707645
vt 0.674434 0.707645
vt 0.674434 0.707638
vt 0.674441 0.707638
vt 0.827124 0.796823
vt 0.827131 0.796823
vt 0.827131 0.796833
vt 0.827124 0.796833
vt 0.827131 0.796787
vt 0.827136 0.796791
vt 0.827136 0.796797
vt 0.827131 0.796797
vt 0.827130 0.796806
vt 0.827125 0.796809
vt 0.827125 0.796799
vt 0.827130 0.796799
vt 0.827131 0.796803
vt 0.827136 0.796799
vt 0.827136 0.796809
vt 0.827131 0.796809
vt 0.674440 0.707557
vt 0.674445 0.707557
vt 0.674445 0.707563
vt 0.674440 0.707563
vt 0.827116 0.796841
vt 0.827112 0.796845
vt 0.827112 0.796835
vt 0.827116 0.796835
vt 0.674440 0.707583
vt 0.674445 0.707583
vt 0.674445 0.707590
vt 0.674440 0.707590
vt 0.827125 0.796776
vt 0.827130 0.796776
vt 0.827130 0.796786
vt 0.827125 0.796782
vt 0.310635 0.072827
vt 0.310634 0.072827
vt 0.310634 0.072827
vt 0.310633 0.072826
vt 0.310633 0.072828
vt 0.310632 0.072826
vt 0.310632 0.072828
vt 0.310631 0.072827
vt 0.310632 0.072829
vt 0.310629 0.072828
vt 0.310631 0.072829
vt 0.310629 0.072830
vt 0.310632 0.072830
vt 0.310629 0.072833
vt 0.310632 0.072830
vt 0.310632 0.072833
vt 0.310633 0.072830
vt 0.310633 0.072832
vt 0.310633 0.072829
vt 0.310635 0.072831
vt 0.310634 0.072829
vt 0.310636 0.072829
vt 0.310640 0.072839
vt 0.310640 0.072840
vt 0.310640 0.072841
vt 0.310639 0.072842
vt 0.310638 0.072842
vt 0.310637 0.072841
vt 0.310636 0.072840
vt 0.310636 0.072839
vt 0.310637 0.072838
vt 0.310638 0.072838
vt 0.310639 0.072838
vt 0.310640 0.072838
vt 0.310634 0.072828
vt 0.310636 0.072828
vt 0.310626 0.072834
vt 0.310624 0.072834
vt 0.310625 0.072833
vt 0.310626 0.072834
vt 0.310623 0.072832
vt 0.310625 0.072831
vt 0.310622 0.072831
vt 0.310624 0.072830
vt 0.310622 0.072829
vt 0.310624 0.072829
vt 0.310623 0.072827
vt 0.310624 0.072827
vt 0.310624 0.072826
vt 0.310626 0.072826
vt 0.310625 0.072827
vt 0.310627 0.072827
vt 0.310625 0.072828
vt 0.310628 0.072829
vt 0.310626 0.072830
vt 0.310628 0.072831
vt 0.310626 0.072831
vt 0.310717 0.072839
vt 0.310718 0.072839
vt 0.310719 0.072839
vt 0.310719 0.072840
vt 0.310719 0.072841
vt 0.310719 0.072842
vt 0.310718 0.072843
vt 0.310717 0.072843
vt 0.310716 0.072842
vt 0.310715 0.072841
vt 0.310715 0.072840
vt 0.310716 0.072839
vt 0.310627 0.072833
vt 0.310626 0.072833
s 1
usemtl Atlas
f 10/1/1 2/2/1 4/3/1 11/4/1
f 66/5/2 75/6/2 9/7/2 1/8/2
f 13/9/3 8/10/3 6/11/3 15/12/3
f 16/13/4 15/14/4 77/15/4 74/16/4
f 12/21/5 11/22/5 85/23/5 82/24/5
f 7/25/6 14/26/6 16/27/6 5/28/6
f 14/29/7 13/30/7 15/31/7 16/32/7
f 23/37/9 18/38/9 90/39/9 109/40/9
f 1/41/10 9/42/10 12/43/10 3/44/10
f 9/45/11 10/46/11 11/47/11 12/48/11
f 22/49/1 17/50/1 18/51/1 23/52/1
f 27/53/12 19/54/12 94/55/12 101/56/12
f 25/57/3 20/58/3 19/59/3 27/60/3
f 28/61/4 27/62/4 101/63/4 98/64/4
f 80/65/12 71/66/12 2/67/12 10/68/12
f 24/69/5 23/70/5 109/71/5 106/72/5
f 8/73/6 26/74/6 28/75/6 6/76/6
f 26/77/7 25/78/7 27/79/7 28/80/7
f 88/81/9 63/82/9 8/83/9 13/84/9
f 2/86/10 21/87/10 24/88/10 4/89/10
f 21/90/11 22/91/11 23/92/11 24/93/11
f 112/94/9 91/95/9 20/96/9 25/97/9
f 94/102/13 19/103/13 20/104/13 91/105/13
f 107/110/5 112/111/5 25/112/5 26/113/5
f 63/118/8 107/119/8 26/120/8 8/121/8
f 99/126/4 104/127/4 22/128/4 21/129/4
f 71/134/2 99/135/2 21/136/2 2/137/2
f 104/142/12 95/143/12 17/144/12 22/145/12
f 17/146/13 95/147/13 90/148/13 18/149/13
f 83/158/5 88/159/5 13/160/5 14/161/5
f 11/162/9 4/163/9 62/164/9 85/165/9
f 3/166/8 12/167/8 82/168/8 59/169/8
f 75/174/4 80/175/4 10/176/4 9/177/4
f 15/178/12 6/179/12 70/180/12 77/181/12
f 5/182/2 16/183/2 74/184/2 67/185/2
f 6/186/2 28/187/2 98/188/2 70/189/2
f 4/194/8 24/195/8 106/196/8 62/197/8
f 58/202/8 83/203/8 14/204/8 7/205/8
usemtl Atlas_Metallic
f 55/85/13 54/85/13 53/85/13 56/85/13
f 74/85/7 77/85/7 129/85/7 132/85/7
f 92/85/11 93/85/11 52/85/11 49/85/11
f 99/85/11 71/85/11 115/85/11 30/85/11
f 78/85/11 73/85/11 131/85/11 130/85/11
f 70/85/7 98/85/7 33/85/7 114/85/7
f 94/85/7 91/85/7 50/85/7 51/85/7
f 57/85/11 84/85/11 124/85/11 128/85/11
f 97/85/11 69/85/11 113/85/11 34/85/11
f 90/85/11 95/85/11 56/85/11 53/85/11
f 100/85/7 103/85/7 32/85/7 29/85/7
f 83/85/7 58/85/7 127/85/7 123/85/7
f 59/85/11 82/85/11 120/85/11 126/85/11
f 96/85/7 89/85/7 54/85/7 55/85/7
f 104/85/11 99/85/11 30/85/11 31/85/11
f 87/85/11 64/85/11 37/85/11 121/85/11
f 81/85/7 60/85/7 125/85/7 119/85/7
f 63/85/7 88/85/7 122/85/7 38/85/7
f 98/85/7 101/85/7 36/85/7 33/85/7
f 84/85/11 87/85/11 121/85/11 124/85/11
f 85/85/11 62/85/11 39/85/11 117/85/11
f 61/85/7 86/85/7 118/85/7 40/85/7
f 102/85/11 97/85/11 34/85/11 35/85/11
f 88/85/7 83/85/7 123/85/7 122/85/7
f 79/85/7 72/85/7 116/85/7 133/85/7
f 51/85/13 50/85/13 49/85/13 52/85/13
f 47/85/5 46/85/5 45/85/5 48/85/5
f 43/85/5 42/85/5 41/85/5 44/85/5
f 46/85/14 40/85/14 39/85/14 45/85/14
f 42/85/14 38/85/14 37/85/14 41/85/14
f 35/85/4 34/85/4 33/85/4 36/85/4
f 31/85/4 30/85/4 29/85/4 32/85/4
f 34/85/15 113/85/15 114/85/15 33/85/15
f 30/85/15 115/85/15 116/85/15 29/85/15
f 52/85/16 35/85/16 36/85/16 51/85/16
f 56/85/16 31/85/16 32/85/16 55/85/16
f 54/85/17 47/85/17 48/85/17 53/85/17
f 50/85/17 43/85/17 44/85/17 49/85/17
f 118/85/5 119/85/5 120/85/5 117/85/5
f 122/85/5 123/85/5 124/85/5 121/85/5
f 119/85/18 125/85/18 126/85/18 120/85/18
f 123/85/18 127/85/18 128/85/18 124/85/18
f 130/85/4 131/85/4 132/85/4 129/85/4
f 134/85/4 135/85/4 136/85/4 133/85/4
f 131/85/19 137/85/19 138/85/19 132/85/19
f 135/85/19 139/85/19 140/85/19 136/85/19
f 113/85/20 130/85/20 129/85/20 114/85/20
f 115/85/20 134/85/20 133/85/20 116/85/20
f 40/85/21 118/85/21 117/85/21 39/85/21
f 38/85/21 122/85/21 121/85/21 37/85/21
f 72/85/7 100/85/7 29/85/7 116/85/7
f 110/85/7 105/85/7 46/85/7 47/85/7
f 93/85/11 102/85/11 35/85/11 52/85/11
f 80/85/11 75/85/11 135/85/11 134/85/11
f 101/85/7 94/85/7 51/85/7 36/85/7
f 106/85/11 109/85/11 48/85/11 45/85/11
f 95/85/11 104/85/11 31/85/11 56/85/11
f 76/85/7 79/85/7 133/85/7 136/85/7
f 103/85/7 96/85/7 55/85/7 32/85/7
f 112/85/7 107/85/7 42/85/7 43/85/7
f 73/85/11 68/85/11 137/85/11 131/85/11
f 89/85/7 110/85/7 47/85/7 54/85/7
f 109/85/11 90/85/11 53/85/11 48/85/11
f 108/85/11 111/85/11 44/85/11 41/85/11
f 67/85/7 74/85/7 132/85/7 138/85/7
f 91/85/7 112/85/7 43/85/7 50/85/7
f 105/85/7 61/85/7 40/85/7 46/85/7
f 75/85/11 66/85/11 139/85/11 135/85/11
f 111/85/11 92/85/11 49/85/11 44/85/11
f 62/85/11 106/85/11 45/85/11 39/85/11
f 65/85/7 76/85/7 136/85/7 140/85/7
f 86/85/7 81/85/7 119/85/7 118/85/7
f 107/85/7 63/85/7 38/85/7 42/85/7
f 69/85/11 78/85/11 130/85/11 113/85/11
f 77/85/7 70/85/7 114/85/7 129/85/7
f 82/85/11 85/85/11 117/85/11 120/85/11
f 64/85/11 108/85/11 41/85/11 37/85/11
f 71/85/11 80/85/11 134/85/11 115/85/11
f 141/206/5 142/207/5 144/208/22 143/209/22
f 143/209/23 144/208/23 146/210/23 145/211/23
f 145/211/24 146/210/24 148/212/7 147/213/7
f 147/213/7 148/212/7 150/214/25 149/215/25
f 149/215/26 150/214/26 152/216/26 151/217/26
f 151/217/27 152/216/27 154/218/4 153/219/4
f 153/219/4 154/218/4 156/220/28 155/221/28
f 155/221/29 156/220/29 158/222/30 157/223/30
f 157/223/30 158/222/30 160/224/31 159/225/31
f 159/225/32 160/224/32 162/226/33 161/227/33
f 144/228/13 142/229/13 164/230/13 162/231/13 160/232/13 158/233/13 156/234/13 154/235/13 152/236/13 150/237/13 148/238/13 146/239/13
f 161/227/33 162/226/33 164/240/34 163/241/34
f 163/241/35 164/240/35 142/207/5 141/206/5
f 165/242/5 167/243/35 168/244/35 166/245/5
f 167/243/34 169/246/33 170/247/33 168/244/34
f 169/246/33 171/248/32 172/249/32 170/247/33
f 171/248/31 173/250/30 174/251/30 172/249/31
f 173/250/30 175/252/29 176/253/29 174/251/30
f 175/252/28 177/254/4 178/254/4 176/253/28
f 177/254/4 179/255/27 180/256/27 178/254/4
f 179/255/26 181/257/36 182/258/36 180/256/26
f 181/257/36 183/259/25 184/260/25 182/258/36
f 183/259/24 185/261/37 186/262/37 184/260/24
f 168/263/13 170/264/13 172/265/13 174/266/13 176/267/13 178/268/13 180/269/13 182/270/13 184/271/13 186/272/13 188/273/13 166/274/13
f 185/261/37 187/275/23 188/276/23 186/262/37
f 187/275/22 165/242/5 166/245/5 188/276/22
usemtl Atlas_Emissive
f 68/17/2 73/18/2 76/19/2 65/20/2
f 60/33/8 81/34/8 84/35/8 57/36/8
f 110/98/9 89/99/9 92/100/9 111/101/9
f 105/106/5 110/107/5 111/108/5 108/109/5
f 86/114/9 61/115/9 64/116/9 87/117/9
f 97/122/4 102/123/4 103/124/4 100/125/4
f 78/130/12 69/131/12 72/132/12 79/133/12
f 102/138/12 93/139/12 96/140/12 103/141/12
f 96/150/13 93/151/13 92/152/13 89/153/13
f 81/154/5 86/155/5 87/156/5 84/157/5
f 73/170/4 78/171/4 79/172/4 76/173/4
f 69/190/2 97/191/2 100/192/2 72/193/2
f 61/198/8 105/199/8 108/200/8 64/201/8
