# Blender 4.2.0
# www.blender.org
mtllib Briefing_Screen_Red.mtl
o Briefing_Screen_Red
v -1.212463 0.424180 0.530589
v -1.286661 3.126751 -0.211828
v -1.386661 3.026751 -0.190844
v -1.286661 3.126751 -0.536645
v -1.286661 3.029462 -0.613519
v -1.386661 3.026751 -0.510088
v -1.286661 -0.031419 0.639282
v -1.386661 -0.031419 0.535851
v -1.286661 -0.031419 0.114465
v -1.386661 -0.031419 0.216607
v -1.036042 0.424180 0.530589
v -0.861845 3.026751 -0.190844
v -0.961845 3.126751 -0.211828
v -0.961845 3.029462 -0.613519
v -0.961845 3.126751 -0.536645
v -0.861845 3.026751 -0.510088
v -0.961845 -0.031419 0.639282
v -0.861845 -0.031419 0.535851
v -0.961845 -0.031419 0.114465
v -0.861845 -0.031419 0.216607
v -1.212463 0.220875 0.578915
v -1.386661 0.151078 0.492720
v -1.286661 0.148689 0.071258
v -1.386661 0.151078 0.173476
v -1.036042 0.220875 0.578915
v -0.861845 0.151078 0.492720
v -0.961845 0.148689 0.071258
v -0.861845 0.151078 0.173476
v -1.320088 -0.031419 0.723956
v -1.470663 -0.031419 0.575202
v -1.474435 -0.031419 0.186026
v -1.323931 -0.031419 0.031323
v -0.777843 -0.031419 0.575202
v -0.928418 -0.031419 0.723956
v -0.924575 -0.031419 0.031323
v -0.774071 -0.031419 0.186026
v -1.474598 0.149266 0.522855
v -1.320549 0.149266 -0.013243
v -0.924209 0.149266 0.679060
v -0.777673 0.149266 0.134470
v -1.324297 0.149266 0.679060
v -1.470832 0.149266 0.134470
v -0.773908 0.149266 0.522855
v -0.927957 0.149266 -0.013243
v 1.213305 2.958094 -0.071737
v 1.286661 3.126751 -0.211828
v 1.386661 3.026751 -0.190844
v 1.286661 3.126751 -0.536645
v 1.286661 3.029462 -0.613519
v 1.386661 3.026751 -0.510088
v 1.286661 -0.031419 0.639282
v 1.386661 -0.031419 0.535851
v 1.286661 -0.031419 0.114465
v 1.386661 -0.031419 0.216607
v 1.035201 2.958094 -0.071737
v 0.861845 3.026751 -0.190844
v 0.961845 3.126751 -0.211828
v 0.961845 3.029462 -0.613519
v 0.961845 3.126751 -0.536645
v 0.861845 3.026751 -0.510088
v 0.961845 -0.031419 0.639282
v 0.861845 -0.031419 0.535851
v 0.961845 -0.031419 0.114465
v 0.861845 -0.031419 0.216607
v 1.213305 2.105917 0.130830
v 1.386661 0.151078 0.492720
v 1.286661 0.148689 0.071258
v 1.386661 0.151078 0.173476
v 1.035201 2.105917 0.130830
v 0.861845 0.151078 0.492720
v 0.961845 0.148689 0.071258
v 0.861845 0.151078 0.173476
v 1.320088 -0.031419 0.723956
v 1.470663 -0.031419 0.575202
v 1.474435 -0.031419 0.186026
v 1.323931 -0.031419 0.031323
v 0.777843 -0.031419 0.575202
v 0.928418 -0.031419 0.723956
v 0.924575 -0.031419 0.031323
v 0.774071 -0.031419 0.186026
v 1.474598 0.149266 0.522855
v 1.320549 0.149266 -0.013243
v 0.924209 0.149266 0.679060
v 0.777673 0.149266 0.134470
v 1.324297 0.149266 0.679060
v 1.470832 0.149266 0.134470
v 0.773908 0.149266 0.522855
v 0.927957 0.149266 -0.013243
v -1.286661 0.148689 0.596074
v -1.286661 3.029462 -0.088702
v -0.961845 3.029462 -0.088702
v -0.961845 0.148689 0.596074
v -1.192626 0.258667 0.636294
v -1.192626 0.416251 0.598836
v -1.055880 0.416251 0.598836
v -1.055880 0.258667 0.636294
v 1.286661 0.148689 0.596074
v 1.286661 3.029462 -0.088702
v 0.961845 3.029462 -0.088702
v 0.961845 0.148689 0.596074
v 1.204690 2.157119 0.163033
v 1.204690 2.926859 -0.019939
v 1.043816 2.926859 -0.019939
v 1.043816 2.157119 0.163033
v -1.000942 2.802808 -0.282073
v -1.000942 2.802808 -0.336490
v -1.000942 0.310575 0.308937
v -1.000942 0.310575 0.254520
v 0.992155 2.802808 -0.282073
v 0.992155 2.802808 -0.336490
v 0.992155 0.310575 0.308937
v 0.992155 0.310575 0.254520
vn -0.0000 1.0000 -0.0000
vn 1.0000 -0.0000 -0.0000
vn -0.0000 -0.2313 -0.9729
vn -0.0000 -1.0000 -0.0000
vn -0.5476 0.6565 0.5187
vn -0.6379 0.4774 -0.6042
vn 0.5476 0.6565 0.5187
vn 0.6379 0.4774 -0.6042
vn -0.7071 0.1635 0.6879
vn -0.7071 0.7071 -0.0000
vn -0.0000 1.0000 -0.0070
vn 0.7071 -0.1635 -0.6879
vn 0.7071 0.7071 -0.0000
vn -0.0000 0.7846 0.6200
vn -0.0000 0.6200 -0.7846
vn -0.0000 -0.8351 0.5500
vn 0.0210 0.9998 -0.0001
vn 0.7071 0.1635 0.6879
vn -0.7071 -0.1635 -0.6879
vn -1.0000 -0.0000 -0.0000
vn -0.0000 1.0000 0.0068
vn -0.0210 0.9998 -0.0001
vn -1.0000 -0.0009 -0.0000
vn -0.6985 -0.1713 -0.6948
vn 0.7014 0.1704 0.6920
vn -0.0000 0.2411 0.9705
vn 0.6985 -0.1713 -0.6948
vn -0.7014 0.1704 0.6920
vn -0.0000 -0.2395 -0.9709
vn 1.0000 -0.0009 -0.0000
vn 0.0002 1.0000 -0.0098
vn 0.0008 0.9999 0.0100
vn -0.0002 1.0000 -0.0098
vn -0.0008 0.9999 0.0100
vn -0.0000 -0.5324 0.8465
vn -0.0000 0.2313 0.9729
vn -0.0000 0.9933 0.1154
vn 0.9559 0.0679 0.2857
vn -0.9559 0.0679 0.2857
vn -0.0000 0.8564 0.5164
vn -0.9807 0.0453 0.1904
vn 0.9807 0.0453 0.1904
vn -0.0000 0.2307 0.9730
vn -0.0000 -0.2307 -0.9730
vt 0.441295 0.065698
vt 0.441506 0.065698
vt 0.441506 0.065909
vt 0.441295 0.065909
vt 0.438796 0.064721
vt 0.438999 0.064769
vt 0.438999 0.066693
vt 0.438796 0.066644
vt 0.440029 0.064721
vt 0.440240 0.064721
vt 0.440240 0.066648
vt 0.440029 0.066648
vt 0.441262 0.065608
vt 0.441470 0.065608
vt 0.441495 0.065663
vt 0.441242 0.065665
vt 0.441127 0.066552
vt 0.441212 0.066608
vt 0.441127 0.066645
vt 0.441612 0.065791
vt 0.441539 0.065757
vt 0.441612 0.065698
vt 0.438318 0.068223
vt 0.438318 0.068129
vt 0.438403 0.068166
vt 0.441612 0.065918
vt 0.441539 0.065883
vt 0.441612 0.065824
vt 0.439872 0.064721
vt 0.439872 0.066648
vt 0.439779 0.066662
vt 0.439779 0.064738
vt 0.438283 0.067804
vt 0.438283 0.067592
vt 0.438375 0.067610
vt 0.438375 0.067817
vt 0.441195 0.064843
vt 0.441195 0.065054
vt 0.441141 0.065079
vt 0.441141 0.064818
vt 0.441195 0.065543
vt 0.441141 0.065567
vt 0.439497 0.064734
vt 0.439497 0.066662
vt 0.439405 0.066644
vt 0.439405 0.064721
vt 0.439996 0.067297
vt 0.439996 0.067508
vt 0.439904 0.067522
vt 0.439904 0.067314
vt 0.439996 0.067812
vt 0.439996 0.068024
vt 0.439894 0.068024
vt 0.439894 0.067812
vt 0.441359 0.067869
vt 0.441359 0.067657
vt 0.441439 0.067657
vt 0.441439 0.067869
vt 0.314550 0.716716
vt 0.314550 0.716601
vt 0.314595 0.716614
vt 0.314595 0.716703
vt 0.441537 0.065332
vt 0.441470 0.065266
vt 0.441495 0.065212
vt 0.441592 0.065310
vt 0.441470 0.064778
vt 0.441263 0.064778
vt 0.441243 0.064721
vt 0.441496 0.064723
vt 0.439530 0.066648
vt 0.439530 0.064721
vt 0.439622 0.064738
vt 0.439622 0.066662
vt 0.439031 0.066662
vt 0.439031 0.064734
vt 0.439123 0.064721
vt 0.439123 0.066644
vt 0.441537 0.065543
vt 0.441592 0.065565
vt 0.438294 0.066644
vt 0.438092 0.066693
vt 0.438092 0.064769
vt 0.438294 0.064721
vt 0.441537 0.065054
vt 0.441537 0.064843
vt 0.441592 0.064821
vt 0.441592 0.065076
vt 0.441263 0.065119
vt 0.441470 0.065119
vt 0.441496 0.065174
vt 0.441243 0.065177
vt 0.438241 0.066759
vt 0.438241 0.067012
vt 0.438124 0.066978
vt 0.438124 0.066725
vt 0.441613 0.067380
vt 0.441494 0.067359
vt 0.441494 0.067218
vt 0.441613 0.067243
vt 0.438244 0.068091
vt 0.438125 0.068113
vt 0.438125 0.067976
vt 0.438245 0.067950
vt 0.438124 0.067622
vt 0.438124 0.067367
vt 0.438245 0.067364
vt 0.438245 0.067625
vt 0.441608 0.066191
vt 0.441488 0.066213
vt 0.441488 0.066076
vt 0.441608 0.066051
vt 0.441472 0.067413
vt 0.441591 0.067436
vt 0.441592 0.067577
vt 0.441472 0.067551
vt 0.441262 0.065698
vt 0.441262 0.065958
vt 0.441141 0.065956
vt 0.441141 0.065700
vt 0.438529 0.067273
vt 0.438529 0.067526
vt 0.438411 0.067560
vt 0.438411 0.067307
vt 0.441262 0.065266
vt 0.441195 0.065332
vt 0.441141 0.065307
vt 0.441242 0.065209
vt 0.438318 0.068097
vt 0.438318 0.067885
vt 0.438529 0.067885
vt 0.438529 0.068097
vt 0.438529 0.064721
vt 0.438529 0.066644
vt 0.438327 0.066693
vt 0.438327 0.064769
vt 0.440728 0.064721
vt 0.440728 0.066648
vt 0.440517 0.066648
vt 0.440517 0.064721
vt 0.441479 0.066738
vt 0.441459 0.066681
vt 0.441713 0.066683
vt 0.441687 0.066738
vt 0.441245 0.066645
vt 0.441245 0.066552
vt 0.441330 0.066589
vt 0.438508 0.068129
vt 0.438508 0.068223
vt 0.438436 0.068164
vt 0.441363 0.066608
vt 0.441448 0.066552
vt 0.441448 0.066645
vt 0.438125 0.068205
vt 0.438198 0.068146
vt 0.438198 0.068240
vt 0.439904 0.064721
vt 0.439996 0.064738
vt 0.439996 0.066662
vt 0.439904 0.066648
vt 0.438287 0.067286
vt 0.438379 0.067273
vt 0.438379 0.067481
vt 0.438287 0.067498
vt 0.441402 0.066173
vt 0.441456 0.066148
vt 0.441456 0.066409
vt 0.441402 0.066384
vt 0.441413 0.066803
vt 0.441359 0.066778
vt 0.439156 0.064734
vt 0.439248 0.064721
vt 0.439248 0.066644
vt 0.439156 0.066662
vt 0.439904 0.067555
vt 0.439996 0.067572
vt 0.439996 0.067780
vt 0.439904 0.067766
vt 0.441359 0.067169
vt 0.441461 0.067169
vt 0.441461 0.067380
vt 0.441359 0.067380
vt 0.441359 0.067413
vt 0.441439 0.067413
vt 0.441439 0.067624
vt 0.441359 0.067624
vt 0.570349 0.152241
vt 0.570349 0.152125
vt 0.570389 0.152131
vt 0.570389 0.152236
vt 0.441754 0.067014
vt 0.441810 0.067036
vt 0.441713 0.067134
vt 0.441687 0.067079
vt 0.441127 0.066108
vt 0.441101 0.066053
vt 0.441354 0.066051
vt 0.441334 0.066108
vt 0.439747 0.066648
vt 0.439655 0.066662
vt 0.439655 0.064738
vt 0.439747 0.064721
vt 0.439373 0.066662
vt 0.439281 0.066644
vt 0.439281 0.064721
vt 0.439373 0.064734
vt 0.441810 0.066781
vt 0.441754 0.066803
vt 0.438562 0.066644
vt 0.438562 0.064721
vt 0.438764 0.064769
vt 0.438764 0.066693
vt 0.441060 0.066384
vt 0.441005 0.066406
vt 0.441005 0.066151
vt 0.441060 0.066173
vt 0.441334 0.066449
vt 0.441354 0.066507
vt 0.441101 0.066504
vt 0.441127 0.066449
vt 0.438124 0.067079
vt 0.438241 0.067045
vt 0.438241 0.067298
vt 0.438124 0.067332
vt 0.441488 0.066603
vt 0.441488 0.066466
vt 0.441608 0.066441
vt 0.441608 0.066581
vt 0.441478 0.067924
vt 0.441478 0.068065
vt 0.441359 0.068039
vt 0.441359 0.067901
vt 0.438408 0.067595
vt 0.438529 0.067592
vt 0.438529 0.067853
vt 0.438408 0.067850
vt 0.441489 0.066386
vt 0.441488 0.066246
vt 0.441608 0.066271
vt 0.441608 0.066408
vt 0.441472 0.067773
vt 0.441472 0.067635
vt 0.441592 0.067609
vt 0.441591 0.067750
vt 0.438245 0.067917
vt 0.438124 0.067915
vt 0.438124 0.067659
vt 0.438245 0.067657
vt 0.438274 0.066725
vt 0.438392 0.066759
vt 0.438392 0.067012
vt 0.438274 0.066978
vt 0.441479 0.067079
vt 0.441459 0.067136
vt 0.441359 0.067038
vt 0.441413 0.067014
vt 0.440809 0.064769
vt 0.440809 0.064905
vt 0.440761 0.066648
vt 0.440761 0.064721
vt 0.440924 0.064905
vt 0.440972 0.066648
vt 0.440924 0.064769
vt 0.440972 0.064721
vt 0.314044 0.715070
vt 0.314133 0.715070
vt 0.314133 0.715176
vt 0.314044 0.715176
vt 0.314517 0.716628
vt 0.314517 0.716743
vt 0.314473 0.716730
vt 0.314473 0.716641
vt 0.314594 0.716432
vt 0.314594 0.716568
vt 0.314550 0.716553
vt 0.314550 0.716448
vt 0.311387 0.715712
vt 0.311387 0.715576
vt 0.311431 0.715591
vt 0.311431 0.715697
vt 0.440437 0.066600
vt 0.440437 0.066030
vt 0.440484 0.064721
vt 0.440484 0.066648
vt 0.440321 0.066600
vt 0.440273 0.066648
vt 0.440321 0.066030
vt 0.440273 0.064721
vt 0.568922 0.150794
vt 0.568922 0.151309
vt 0.568817 0.151309
vt 0.568817 0.150794
vt 0.568668 0.151229
vt 0.568668 0.151114
vt 0.568708 0.151119
vt 0.568708 0.151224
vt 0.570360 0.151333
vt 0.570360 0.150763
vt 0.570389 0.150791
vt 0.570389 0.151306
vt 0.570325 0.150763
vt 0.570325 0.151333
vt 0.570297 0.151306
vt 0.570297 0.150791
vt 0.424718 0.725138
vt 0.424718 0.720693
vt 0.428177 0.720693
vt 0.428177 0.725138
vt 0.427415 0.718925
vt 0.427321 0.718925
vt 0.427321 0.715466
vt 0.427415 0.715466
vt 0.420805 0.725257
vt 0.420805 0.720812
vt 0.424265 0.720812
vt 0.424265 0.725257
vt 0.427597 0.718925
vt 0.427502 0.718925
vt 0.427502 0.715466
vt 0.427597 0.715466
s 0
usemtl Atlas
f 13/1/1 15/2/1 4/3/1 2/4/1
f 26/5/2 28/6/2 16/7/2 12/8/2
f 27/9/3 23/10/3 5/11/3 14/12/3
f 10/13/4 8/14/4 30/15/4 31/16/4
f 90/17/5 2/18/5 3/19/5
f 4/20/6 5/21/6 6/22/6
f 91/23/7 12/24/7 13/25/7
f 14/26/8 15/27/8 16/28/8
f 89/29/9 90/30/9 3/31/9 22/32/9
f 2/33/10 4/34/10 6/35/10 3/36/10
f 92/37/11 89/38/11 41/39/11 39/40/11
f 9/41/4 10/13/4 31/16/4 32/42/4
f 27/43/12 14/44/12 16/45/12 28/46/12
f 15/47/13 13/48/13 12/49/13 16/50/13
f 90/51/14 91/52/14 13/53/14 2/54/14
f 14/55/15 5/56/15 4/57/15 15/58/15
f 17/63/4 18/64/4 33/65/4 34/66/4
f 28/67/17 26/68/17 43/69/17 40/70/17
f 91/71/18 92/72/18 26/73/18 12/74/18
f 5/75/19 23/76/19 24/77/19 6/78/19
f 8/14/4 7/79/4 29/80/4 30/15/4
f 3/81/20 6/82/20 24/83/20 22/84/20
f 23/85/21 27/86/21 44/87/21 38/88/21
f 22/89/22 24/90/22 42/91/22 37/92/22
f 37/93/23 42/94/23 31/95/23 30/96/23
f 38/97/24 32/98/24 31/99/24 42/100/24
f 39/101/25 34/102/25 33/103/25 43/104/25
f 29/105/26 34/106/26 39/107/26 41/108/26
f 35/109/27 44/110/27 40/111/27 36/112/27
f 29/113/28 41/114/28 37/115/28 30/116/28
f 35/117/29 32/118/29 38/119/29 44/120/29
f 33/121/30 36/122/30 40/123/30 43/124/30
f 20/125/4 19/126/4 35/127/4 36/128/4
f 27/86/31 28/67/31 40/70/31 44/87/31
f 7/79/4 17/63/4 34/66/4 29/80/4
f 26/68/32 92/37/32 39/40/32 43/69/32
f 19/126/4 9/41/4 32/42/4 35/127/4
f 24/90/33 23/85/33 38/88/33 42/91/33
f 18/64/4 20/125/4 36/128/4 33/65/4
f 89/38/34 22/89/34 37/92/34 41/39/34
f 57/129/1 46/130/1 48/131/1 59/132/1
f 70/133/20 56/134/20 60/135/20 72/136/20
f 71/137/3 58/138/3 49/139/3 67/140/3
f 54/141/4 75/142/4 74/143/4 52/144/4
f 98/145/7 47/146/7 46/147/7
f 48/148/8 50/149/8 49/150/8
f 99/151/5 57/152/5 56/153/5
f 58/154/6 60/155/6 59/156/6
f 97/157/18 66/158/18 47/159/18 98/160/18
f 46/161/13 47/162/13 50/163/13 48/164/13
f 100/165/11 83/166/11 85/167/11 97/168/11
f 53/169/4 76/170/4 75/142/4 54/141/4
f 71/171/19 72/172/19 60/173/19 58/174/19
f 59/175/10 60/176/10 56/177/10 57/178/10
f 98/179/14 46/180/14 57/181/14 99/182/14
f 58/183/15 59/184/15 48/185/15 49/186/15
f 61/191/4 78/192/4 77/193/4 62/194/4
f 72/195/22 84/196/22 87/197/22 70/198/22
f 99/199/9 56/200/9 70/201/9 100/202/9
f 49/203/12 50/204/12 68/205/12 67/206/12
f 52/144/4 74/143/4 73/207/4 51/208/4
f 47/209/2 66/210/2 68/211/2 50/212/2
f 67/213/21 82/214/21 88/215/21 71/216/21
f 66/217/17 81/218/17 86/219/17 68/220/17
f 81/221/30 74/222/30 75/223/30 86/224/30
f 82/225/27 86/226/27 75/227/27 76/228/27
f 83/229/28 87/230/28 77/231/28 78/232/28
f 73/233/26 85/234/26 83/235/26 78/236/26
f 79/237/24 80/238/24 84/239/24 88/240/24
f 73/241/25 74/242/25 81/243/25 85/244/25
f 79/245/29 88/246/29 82/247/29 76/248/29
f 77/249/23 87/250/23 84/251/23 80/252/23
f 64/253/4 80/254/4 79/255/4 63/256/4
f 71/216/33 88/215/33 84/196/33 72/195/33
f 51/208/4 73/207/4 78/192/4 61/191/4
f 70/198/34 87/197/34 83/166/34 100/165/34
f 63/256/4 79/255/4 76/170/4 53/169/4
f 68/220/31 86/219/31 82/214/31 67/213/31
f 62/194/4 77/193/4 80/254/4 64/253/4
f 97/168/32 85/167/32 81/218/32 66/217/32
f 21/257/36 1/258/36 90/259/36 89/260/36
f 1/258/36 11/261/36 91/262/36 90/259/36
f 11/261/36 25/263/36 92/264/36 91/262/36
f 25/263/36 21/257/36 89/260/36 92/264/36
f 45/281/36 65/282/36 97/283/36 98/284/36
f 55/285/36 45/281/36 98/284/36 99/286/36
f 69/287/36 55/285/36 99/286/36 100/288/36
f 65/282/36 69/287/36 100/288/36 97/283/36
usemtl Atlas_Emissive
f 21/59/16 25/60/16 96/61/16 93/62/16
f 69/187/35 65/188/35 101/189/35 104/190/35
f 93/265/36 96/266/36 95/267/36 94/268/36
f 11/269/37 1/270/37 94/271/37 95/272/37
f 25/273/38 11/274/38 95/275/38 96/276/38
f 1/277/39 21/278/39 93/279/39 94/280/39
f 101/289/36 102/290/36 103/291/36 104/292/36
f 45/293/40 55/294/40 103/295/40 102/296/40
f 55/297/41 69/298/41 104/299/41 103/300/41
f 65/301/42 45/302/42 102/303/42 101/304/42
f 105/305/43 107/306/43 111/307/43 109/308/43
f 106/309/1 105/310/1 109/311/1 110/312/1
f 108/313/44 106/314/44 110/315/44 112/316/44
f 107/317/4 108/318/4 112/319/4 111/320/4
