# Blender 4.2.0
# www.blender.org
mtllib Bunk_Single_Blue.mtl
o Bunk_Single_Blue
v -0.623540 0.009348 0.999502
v -0.623540 0.509430 0.999502
v -0.428487 0.009348 1.205525
v -0.428487 0.509430 1.205525
v -0.428487 0.009348 0.999502
v -0.428487 0.509430 0.999502
v -0.526666 0.009348 1.205525
v -0.623540 0.009348 1.103203
v -0.623540 0.509430 1.103203
v -0.526666 0.509430 1.205525
v 0.623540 0.009348 0.999502
v 0.623540 0.509430 0.999502
v 0.428487 0.009348 1.205525
v 0.428487 0.509430 1.205525
v 0.428487 0.009348 0.999502
v 0.428487 0.509430 0.999502
v 0.526666 0.009348 1.205525
v 0.623540 0.009348 1.103203
v 0.623540 0.509430 1.103203
v 0.526666 0.509430 1.205525
v -0.623540 0.009348 -1.039744
v -0.623540 0.509430 -1.039744
v -0.428487 0.009348 -1.245768
v -0.428487 0.509430 -1.245768
v -0.428487 0.009348 -1.039744
v -0.428487 0.509430 -1.039744
v -0.526666 0.009348 -1.245768
v -0.623540 0.009348 -1.143445
v -0.623540 0.509430 -1.143445
v -0.526666 0.509430 -1.245768
v 0.623540 0.009348 -1.039744
v 0.623540 0.509430 -1.039744
v 0.428487 0.009348 -1.245768
v 0.428487 0.509430 -1.245768
v 0.428487 0.009348 -1.039744
v 0.428487 0.509430 -1.039744
v 0.526666 0.009348 -1.245768
v 0.623540 0.009348 -1.143445
v 0.623540 0.509430 -1.143445
v 0.526666 0.509430 -1.245768
v -0.744417 0.480405 -0.511363
v -0.744417 0.823527 -0.511363
v 0.733254 0.480405 -0.511363
v 0.733254 0.823527 -0.511363
v -0.744417 0.480405 -0.197209
v 0.733254 0.823527 -0.197209
v -0.744417 0.823527 -0.197209
v 0.733254 0.480405 -0.197209
v -0.744417 0.823527 -0.197209
v -0.744417 0.823527 -0.511363
v 0.733254 0.480405 -0.197209
v 0.733254 0.480405 -0.511363
v 0.733254 0.823527 -0.511363
v -0.744417 0.480405 -0.511363
v -0.744417 0.480405 -0.197209
v 0.733254 0.823527 -0.197209
v -0.766568 0.846239 -0.197209
v -0.766568 0.846239 -0.511363
v 0.764579 0.480405 -0.197209
v 0.764579 0.480405 -0.511363
v 0.755404 0.846239 -0.511363
v -0.775743 0.480405 -0.511363
v -0.775743 0.480405 -0.197209
v 0.755404 0.846239 -0.197209
v 0.120994 0.876691 -0.610240
v -0.285702 0.876691 -0.717125
v -0.285702 0.876691 -1.063006
v 0.120994 0.876691 -1.169891
v 0.372349 0.876690 -0.890065
v 0.008588 0.941731 -0.890065
v 0.395381 0.824071 -0.788414
v 0.395381 0.824071 -0.991717
v 0.008588 0.824071 -0.561110
v 0.247639 0.824071 -0.623935
v -0.378206 0.824071 -0.788414
v -0.230464 0.824071 -0.623935
v -0.230464 0.824071 -1.156196
v -0.378206 0.824071 -0.991717
v 0.247639 0.824071 -1.156196
v 0.008588 0.824071 -1.219021
v 0.288473 0.885929 -0.725589
v -0.098321 0.885929 -0.623937
v -0.337369 0.885929 -0.890065
v -0.098321 0.885929 -1.156194
v 0.288473 0.885929 -1.054542
v 0.074658 0.924159 -0.725589
v 0.222401 0.924159 -0.890065
v -0.164390 0.924159 -0.788414
v -0.164390 0.924159 -0.991716
v 0.074658 0.924159 -1.054542
v -0.652045 0.480405 1.271537
v -0.744417 0.480405 1.173970
v -0.744417 0.823527 1.173970
v -0.652045 0.823527 1.271537
v -0.744417 0.480405 -1.203771
v -0.652045 0.480405 -1.301338
v -0.652045 0.823527 -1.301338
v -0.744417 0.823527 -1.203771
v 0.733254 0.480405 1.173970
v 0.640882 0.480405 1.271537
v 0.640882 0.823527 1.271537
v 0.733254 0.823527 1.173970
v 0.640882 0.480405 -1.301338
v 0.733254 0.480405 -1.203771
v 0.733254 0.823527 -1.203771
v 0.640882 0.823527 -1.301338
vn -0.0000 -0.0000 1.0000
vn -0.0000 -0.0000 -1.0000
vn 1.0000 -0.0000 -0.0000
vn -1.0000 -0.0000 -0.0000
vn -0.7262 -0.0000 0.6875
vn 0.7262 -0.0000 0.6875
vn -0.7262 -0.0000 -0.6875
vn 0.7262 -0.0000 -0.6875
vn -0.0000 1.0000 -0.0000
vn -0.0000 -1.0000 -0.0000
vn -0.9997 0.0251 -0.0000
vn 0.9997 0.0251 -0.0000
vn 0.1816 0.7157 0.6744
vn 0.4378 0.8120 0.3860
vn 0.0602 0.9717 0.2282
vn -0.5035 0.7429 0.4411
vn -0.1590 0.7881 0.5947
vn -0.1593 0.9769 0.1422
vn -0.5035 0.7429 -0.4411
vn -0.5598 0.8286 -0.0000
vn -0.1593 0.9769 -0.1422
vn 0.1816 0.7157 -0.6744
vn -0.1590 0.7881 -0.5947
vn 0.0602 0.9717 -0.2282
vn 0.6481 0.7616 -0.0000
vn 0.4378 0.8120 -0.3860
vn 0.1977 0.9803 -0.0000
vn -0.0003 1.0000 -0.0000
vn 0.6891 0.6666 -0.2841
vn 0.4158 0.6377 -0.6484
vn -0.0159 0.6168 -0.7870
vn -0.3887 0.6322 -0.6702
vn -0.6992 0.6710 -0.2467
vn -0.6992 0.6710 0.2467
vn -0.3887 0.6322 0.6702
vn -0.0159 0.6168 0.7870
vn 0.4158 0.6377 0.6484
vn 0.6891 0.6666 0.2841
vt 0.201324 0.931324
vt 0.201324 0.931466
vt 0.201305 0.931466
vt 0.201305 0.931324
vt 0.200746 0.931820
vt 0.200746 0.931963
vt 0.200706 0.931963
vt 0.200706 0.931820
vt 0.200998 0.931944
vt 0.200998 0.932086
vt 0.200959 0.932086
vt 0.200959 0.931944
vt 0.201324 0.931472
vt 0.201324 0.931615
vt 0.201305 0.931615
vt 0.201305 0.931472
vt 0.201273 0.931324
vt 0.201273 0.931466
vt 0.201245 0.931466
vt 0.201245 0.931324
vt 0.201349 0.931640
vt 0.201369 0.931640
vt 0.201369 0.931783
vt 0.201349 0.931783
vt 0.201004 0.931944
vt 0.201043 0.931944
vt 0.201043 0.932086
vt 0.201004 0.932086
vt 0.201140 0.931944
vt 0.201179 0.931944
vt 0.201179 0.932086
vt 0.201140 0.932086
vt 0.201349 0.931789
vt 0.201369 0.931789
vt 0.201369 0.931931
vt 0.201349 0.931931
vt 0.200763 0.931969
vt 0.200791 0.931969
vt 0.200791 0.932112
vt 0.200763 0.932112
vt 0.201330 0.931472
vt 0.201350 0.931472
vt 0.201350 0.931615
vt 0.201330 0.931615
vt 0.201185 0.931944
vt 0.201225 0.931944
vt 0.201225 0.932086
vt 0.201185 0.932086
vt 0.201049 0.931944
vt 0.201089 0.931944
vt 0.201089 0.932086
vt 0.201049 0.932086
vt 0.201279 0.931324
vt 0.201299 0.931324
vt 0.201299 0.931466
vt 0.201279 0.931466
vt 0.201245 0.931472
vt 0.201273 0.931472
vt 0.201273 0.931615
vt 0.201245 0.931615
vt 0.201350 0.931324
vt 0.201350 0.931466
vt 0.201330 0.931466
vt 0.201330 0.931324
vt 0.200791 0.931820
vt 0.200791 0.931963
vt 0.200752 0.931963
vt 0.200752 0.931820
vt 0.201134 0.931944
vt 0.201134 0.932086
vt 0.201095 0.932086
vt 0.201095 0.931944
vt 0.201299 0.931472
vt 0.201299 0.931615
vt 0.201279 0.931615
vt 0.201279 0.931472
vt 0.200734 0.931969
vt 0.200734 0.932112
vt 0.200706 0.932112
vt 0.200706 0.931969
vt 0.192615 0.950000
vt 0.192550 0.949935
vt 0.192550 0.949030
vt 0.192615 0.948965
vt 0.193074 0.948965
vt 0.193074 0.950000
vt 0.191534 0.949507
vt 0.191469 0.949571
vt 0.190564 0.949571
vt 0.190499 0.949507
vt 0.190499 0.949047
vt 0.191534 0.949047
vt 0.278206 0.936456
vt 0.278546 0.936456
vt 0.278546 0.936915
vt 0.278206 0.936915
vt 0.191534 0.948839
vt 0.190499 0.948839
vt 0.190499 0.947930
vt 0.190564 0.947865
vt 0.191469 0.947865
vt 0.191534 0.947930
vt 0.411105 0.812826
vt 0.411105 0.812141
vt 0.411707 0.812141
vt 0.411750 0.812184
vt 0.411750 0.812783
vt 0.411707 0.812826
vt 0.281142 0.935804
vt 0.280801 0.935804
vt 0.280801 0.934899
vt 0.281142 0.934899
vt 0.409600 0.806104
vt 0.409825 0.806104
vt 0.409825 0.806706
vt 0.409600 0.806706
vt 0.278907 0.936915
vt 0.278567 0.936915
vt 0.278567 0.936456
vt 0.278907 0.936456
vt 0.411765 0.812029
vt 0.411854 0.812029
vt 0.411854 0.812029
vt 0.411765 0.812029
vt 0.411318 0.806303
vt 0.411543 0.806303
vt 0.411543 0.806902
vt 0.411318 0.806902
vt 0.411854 0.811883
vt 0.411855 0.811883
vt 0.411765 0.811883
vt 0.411765 0.811884
vt 0.424532 0.831639
vt 0.424532 0.831501
vt 0.424547 0.831501
vt 0.424547 0.831639
vt 0.423546 0.830774
vt 0.423771 0.830774
vt 0.423786 0.830784
vt 0.423546 0.830788
vt 0.423443 0.831559
vt 0.423443 0.831697
vt 0.423428 0.831697
vt 0.423428 0.831559
vt 0.411908 0.811413
vt 0.411765 0.811442
vt 0.411765 0.811442
vt 0.411908 0.811413
vt 0.412111 0.811524
vt 0.411992 0.811440
vt 0.411992 0.811440
vt 0.412111 0.811524
vt 0.395216 0.836103
vt 0.395216 0.836207
vt 0.394552 0.836207
vt 0.394552 0.836103
vt 0.395928 0.835339
vt 0.395928 0.835643
vt 0.395264 0.835643
vt 0.395264 0.835339
vt 0.395947 0.836103
vt 0.395947 0.836207
vt 0.395283 0.836207
vt 0.395283 0.836103
vt 0.423815 0.830089
vt 0.423815 0.830774
vt 0.423800 0.830784
vt 0.423800 0.830079
vt 0.423771 0.830089
vt 0.423546 0.830089
vt 0.423546 0.830074
vt 0.423786 0.830079
vt 0.424040 0.830774
vt 0.424040 0.830788
vt 0.424040 0.830089
vt 0.424040 0.830074
vt 0.412792 0.920554
vt 0.398989 0.921280
vt 0.418546 0.919862
vt 0.451818 0.917520
vt 0.433019 0.919066
vt 0.440673 0.918142
vt 0.455337 0.916474
vt 0.457764 0.916694
vt 0.442629 0.917570
vt 0.418630 0.918893
vt 0.438419 0.917502
vt 0.421758 0.918945
vt 0.392521 0.921385
vt 0.402436 0.920319
vt 0.407069 0.920343
vt 0.426085 0.918977
vt 0.390254 0.921269
vt 0.406220 0.919722
vt 0.429875 0.917856
vt 0.452142 0.916403
vt 0.465114 0.915924
vt 0.463118 0.916545
vt 0.445831 0.918255
vt 0.421980 0.920124
vt 0.399676 0.921560
vt 0.387387 0.922033
vt 0.466483 0.915671
vt 0.463068 0.916710
vt 0.420860 0.920897
vt 0.409231 0.921739
vt 0.415851 0.921073
vt 0.411241 0.806730
vt 0.411241 0.806956
vt 0.411181 0.806956
vt 0.411181 0.806730
vt 0.280436 0.936812
vt 0.280436 0.936472
vt 0.280528 0.936472
vt 0.280528 0.936812
vt 0.280265 0.936812
vt 0.280265 0.936472
vt 0.280356 0.936472
vt 0.280356 0.936812
vt 0.411557 0.806599
vt 0.411557 0.806374
vt 0.411617 0.806374
vt 0.411617 0.806599
vt 0.410064 0.806706
vt 0.409839 0.806706
vt 0.409839 0.806104
vt 0.410064 0.806104
s 0
usemtl Atlas
f 3/1/1 4/2/1 10/3/1 7/4/1
f 1/5/2 2/6/2 6/7/2 5/8/2
f 5/9/3 6/10/3 4/11/3 3/12/3
f 8/13/4 9/14/4 2/15/4 1/16/4
f 7/17/5 10/18/5 9/19/5 8/20/5
f 13/21/1 17/22/1 20/23/1 14/24/1
f 11/25/2 15/26/2 16/27/2 12/28/2
f 15/29/4 13/30/4 14/31/4 16/32/4
f 18/33/3 11/34/3 12/35/3 19/36/3
f 17/37/6 18/38/6 19/39/6 20/40/6
f 23/41/2 27/42/2 30/43/2 24/44/2
f 21/45/1 25/46/1 26/47/1 22/48/1
f 25/49/3 23/50/3 24/51/3 26/52/3
f 28/53/4 21/54/4 22/55/4 29/56/4
f 27/57/7 28/58/7 29/59/7 30/60/7
f 33/61/2 34/62/2 40/63/2 37/64/2
f 31/65/1 32/66/1 36/67/1 35/68/1
f 35/69/4 36/70/4 34/71/4 33/72/4
f 38/73/3 39/74/3 32/75/3 31/76/3
f 37/77/8 40/78/8 39/79/8 38/80/8
f 105/81/9 106/82/9 97/83/9 98/84/9 42/85/9 44/86/9
f 95/87/10 96/88/10 103/89/10 104/90/10 43/91/10 41/92/10
f 104/93/3 105/94/3 44/95/3 43/96/3
f 45/97/10 48/98/10 99/99/10 100/100/10 91/101/10 92/102/10
f 46/103/9 47/104/9 93/105/9 94/106/9 101/107/9 102/108/9
f 96/109/2 97/110/2 106/111/2 103/112/2
f 48/113/3 46/114/3 102/115/3 99/116/3
f 41/117/4 42/118/4 98/119/4 95/120/4
f 41/121/9 45/122/9 55/123/9 54/124/9
f 100/125/1 101/126/1 94/127/1 91/128/1
f 45/122/9 47/129/9 49/130/9 55/123/9
f 41/92/10 43/91/10 48/98/10 45/97/10
f 42/131/9 41/121/9 54/124/9 50/132/9
f 51/133/10 52/134/10 60/135/10 59/136/10
f 52/137/2 53/138/2 61/139/2 60/140/2
f 54/141/10 55/142/10 63/143/10 62/144/10
f 43/145/9 44/146/9 53/147/9 52/148/9
f 46/149/9 48/150/9 51/151/9 56/152/9
f 44/146/9 42/131/9 50/132/9 53/147/9
f 47/129/9 46/149/9 56/152/9 49/130/9
f 48/150/9 43/145/9 52/148/9 51/151/9
f 63/153/11 57/154/11 58/155/11 62/156/11
f 61/157/9 58/158/9 57/159/9 64/160/9
f 60/161/12 61/162/12 64/163/12 59/164/12
f 49/165/1 56/166/1 64/167/1 57/168/1
f 50/169/2 54/170/2 62/171/2 58/172/2
f 53/138/2 50/169/2 58/172/2 61/139/2
f 56/166/1 51/173/1 59/174/1 64/167/1
f 55/175/1 49/165/1 57/168/1 63/176/1
s 1
f 65/177/13 81/178/14 86/179/15
f 66/180/16 82/181/17 88/182/18
f 67/183/19 83/184/20 89/185/21
f 68/186/22 84/187/23 90/188/24
f 69/189/25 85/190/26 87/191/27
f 87/191/27 90/188/24 70/192/28
f 87/191/27 85/190/26 90/188/24
f 85/190/26 68/186/22 90/188/24
f 90/188/24 89/185/21 70/192/28
f 90/188/24 84/187/23 89/185/21
f 84/187/23 67/183/19 89/185/21
f 89/185/21 88/182/18 70/192/28
f 89/185/21 83/184/20 88/182/18
f 83/184/20 66/180/16 88/182/18
f 88/182/18 86/179/15 70/192/28
f 88/182/18 82/181/17 86/179/15
f 82/181/17 65/177/13 86/179/15
f 86/179/15 87/191/27 70/192/28
f 86/179/15 81/178/14 87/191/27
f 81/178/14 69/189/25 87/191/27
f 72/193/29 85/190/26 69/189/25
f 72/193/29 79/194/30 85/190/26
f 79/194/30 68/186/22 85/190/26
f 80/195/31 84/187/23 68/186/22
f 80/195/31 77/196/32 84/187/23
f 77/196/32 67/183/19 84/187/23
f 78/197/33 83/184/20 67/183/19
f 78/197/33 75/198/34 83/184/20
f 75/198/34 66/180/16 83/184/20
f 76/199/35 82/181/17 66/180/16
f 76/199/35 73/200/36 82/181/17
f 73/200/36 65/177/13 82/181/17
f 74/201/37 81/178/14 65/177/13
f 74/201/37 71/202/38 81/178/14
f 71/202/38 69/189/25 81/178/14
f 79/194/30 80/195/31 68/186/22
f 77/196/32 78/203/33 67/183/19
f 75/204/34 76/199/35 66/180/16
f 73/200/36 74/201/37 65/177/13
f 71/205/38 72/206/29 69/207/25
s 0
f 91/208/5 94/209/5 93/210/5 92/211/5
f 97/212/7 96/213/7 95/214/7 98/215/7
f 105/216/8 104/217/8 103/218/8 106/219/8
f 101/220/6 100/221/6 99/222/6 102/223/6
f 92/224/4 93/225/4 47/226/4 45/227/4
