# Blender 4.2.0
# www.blender.org
mtllib Cafeteria_Table_Inset_Red.mtl
o Cafeteria_Table_Inset_Red
v -0.905621 0.921064 0.591444
v -0.905621 0.921064 -0.591444
v 0.905621 0.921064 0.591444
v 0.905621 0.921064 -0.591444
v -0.972074 0.769275 0.634843
v -0.972074 0.769275 -0.634843
v 0.972074 0.769275 0.634843
v 0.972074 0.769275 -0.634843
v -0.591065 0.689434 0.054129
v -0.591065 0.689434 -0.054129
v 0.591065 0.689434 -0.054129
v 0.591065 0.689434 0.054129
v -0.898881 0.689434 0.587042
v -0.898881 0.689434 -0.587042
v 0.898881 0.689434 -0.587042
v 0.898881 0.689434 0.587042
v -0.591065 -0.013169 0.054129
v -0.591065 -0.013169 -0.054129
v 0.591065 -0.013169 -0.054129
v 0.591065 -0.013169 0.054129
v -0.905621 0.442178 1.100560
v -0.905621 0.442178 0.562914
v 0.905621 0.442178 1.100560
v 0.905621 0.442178 0.562914
v -0.972074 0.362147 1.120285
v -0.972074 0.362147 0.543188
v 0.972074 0.362147 1.120285
v 0.972074 0.362147 0.543188
v -0.676782 0.320051 0.953511
v -0.676782 0.320051 0.709963
v 0.676782 0.320051 0.709963
v 0.676782 0.320051 0.953511
v -0.905621 0.442178 -1.100559
v -0.905621 0.442178 -0.562914
v 0.905621 0.442178 -1.100559
v 0.905621 0.442178 -0.562914
v -0.972074 0.362147 -1.120285
v -0.972074 0.362147 -0.543188
v 0.972074 0.362147 -1.120285
v 0.972074 0.362147 -0.543188
v -0.676782 0.320051 -0.953510
v -0.676782 0.320051 -0.709963
v 0.676782 0.320051 -0.709963
v 0.676782 0.320051 -0.953510
v -0.898881 0.320051 1.098559
v -0.898881 0.320051 0.564915
v 0.898881 0.320051 0.564915
v 0.898881 0.320051 1.098559
v -0.898881 0.320051 -1.098559
v -0.898881 0.320051 -0.564915
v 0.898881 0.320051 -0.564915
v 0.898881 0.320051 -1.098559
v -0.676782 0.005306 0.953511
v -0.676782 0.005306 0.709963
v 0.676782 0.005306 0.709963
v 0.676782 0.005306 0.953511
v -0.676782 0.005306 -0.953510
v -0.676782 0.005306 -0.709963
v 0.676782 0.005306 -0.709963
v 0.676782 0.005306 -0.953510
v 0.277689 0.911242 0.573276
v 0.277689 0.911242 -0.573276
v 0.298342 0.764643 0.615641
v 0.298342 0.764643 -0.615641
v 0.275645 0.687570 0.569659
v 0.275645 0.687570 -0.569659
v 0.179671 0.687066 0.052892
v 0.179671 0.687066 -0.052892
v 0.190046 -0.013169 0.054129
v 0.190046 -0.013169 -0.054129
v 0.201223 0.911745 0.573132
v 0.214729 0.764311 0.614993
v 0.199832 0.686736 0.568442
v 0.137403 0.687066 0.052175
v 0.123740 -0.013169 0.054129
v 0.189593 0.921064 -0.591444
v 0.203505 0.769275 -0.634843
v 0.188182 0.689434 -0.587042
v 0.123740 0.689434 -0.054129
v 0.123740 -0.013169 -0.054129
v 0.137403 0.013330 -0.052458
v 0.190046 0.689434 0.054129
v 0.179671 0.013330 -0.052458
v 0.190046 0.689434 -0.054129
v 0.179671 0.013330 0.052458
v 0.289018 0.689434 -0.587042
v 0.289018 0.689434 0.587042
v 0.312552 0.769275 -0.634843
v 0.291186 0.921064 -0.591444
v 0.291186 0.921064 0.591444
v 0.312552 0.769275 0.634843
v 0.189593 0.921064 0.591444
v 0.137403 0.013330 0.052458
v 0.201223 0.911745 -0.573132
v 0.214729 0.764311 -0.614993
v 0.137403 0.687066 -0.052175
v 0.199832 0.686736 -0.568442
v 0.123740 0.689434 0.054129
v 0.188182 0.689434 0.587042
v 0.203505 0.769275 0.634843
vn -0.0000 1.0000 -0.0000
vn -0.0000 -0.5137 0.8580
vn -0.9161 0.4010 -0.0000
vn 0.9161 0.4010 -0.0000
vn -0.0000 0.2749 0.9615
vn -0.0000 0.2749 -0.9615
vn -0.0000 -0.0000 -1.0000
vn -0.7371 -0.6758 -0.0000
vn -0.0000 -0.5137 -0.8580
vn 0.7371 -0.6758 -0.0000
vn -0.0000 -1.0000 -0.0000
vn 1.0000 -0.0000 -0.0000
vn -0.0000 -0.0000 1.0000
vn -1.0000 -0.0000 -0.0000
vn -0.0000 -0.4586 0.8886
vn -0.7694 0.6388 -0.0000
vn 0.7694 0.6388 -0.0000
vn -0.0000 0.2393 0.9709
vn -0.0000 0.2393 -0.9709
vn -0.4986 -0.8669 -0.0000
vn -0.0000 -0.4586 -0.8886
vn 0.4986 -0.8669 -0.0000
vn 0.0071 -1.0000 -0.0009
vn -0.0063 -0.5123 -0.8588
vn -0.0085 -0.0001 -1.0000
vn -0.0045 0.2749 -0.9615
vn 0.0066 1.0000 -0.0000
vn -0.0085 -0.0001 1.0000
vn 0.0071 -1.0000 0.0009
vn -0.0045 0.2749 0.9615
vn -0.0063 -0.5123 0.8588
vn -0.0000 0.0629 -0.9980
vn -0.1391 -0.0003 0.9903
vn 0.2036 -0.9783 0.0373
vn 0.2036 -0.9783 -0.0373
vn -0.7793 -0.1360 -0.6117
vn -0.1391 -0.0003 -0.9903
vn -0.8118 0.0528 -0.5815
vn -0.8118 0.0528 0.5815
vn -0.7793 -0.1360 0.6117
vn -0.5884 0.8086 -0.0000
vn -0.0000 0.0629 0.9980
vn 0.6253 0.7804 -0.0000
vn 0.8716 0.2066 -0.4447
vn 0.1313 0.0002 -0.9913
vn 0.7245 -0.4513 -0.5210
vn -0.1795 -0.9835 0.0214
vn 0.1313 0.0002 0.9913
vn -0.1795 -0.9835 -0.0214
vn 0.8716 0.2066 0.4447
vn 0.7245 -0.4513 0.5210
vt 0.314923 0.959997
vt 0.315391 0.959997
vt 0.315391 0.961377
vt 0.314923 0.961377
vt 0.418188 0.959060
vt 0.418468 0.959956
vt 0.418360 0.959900
vt 0.418360 0.959072
vt 0.417683 0.959905
vt 0.417683 0.958525
vt 0.417868 0.958475
vt 0.417868 0.959956
vt 0.418318 0.958525
vt 0.418318 0.959905
vt 0.418134 0.959956
vt 0.418134 0.958475
vt 0.418093 0.959071
vt 0.418093 0.959905
vt 0.417909 0.959956
vt 0.417458 0.958993
vt 0.417458 0.958525
vt 0.417642 0.958475
vt 0.418226 0.958977
vt 0.418959 0.961723
vt 0.418959 0.961418
vt 0.419778 0.961418
vt 0.419778 0.961724
vt 0.418659 0.959956
vt 0.418659 0.958475
vt 0.418768 0.958530
vt 0.418768 0.959900
vt 0.418809 0.958475
vt 0.418917 0.958530
vt 0.418917 0.958995
vt 0.418618 0.958475
vt 0.418618 0.959956
vt 0.418509 0.959900
vt 0.418509 0.958530
vt 0.419150 0.928551
vt 0.419150 0.928678
vt 0.418916 0.929299
vt 0.418916 0.927930
vt 0.420051 0.928678
vt 0.420051 0.928551
vt 0.420285 0.927930
vt 0.420285 0.929299
vt 0.419745 0.928678
vt 0.419821 0.929299
vt 0.419695 0.928551
vt 0.419744 0.927930
vt 0.421007 0.962238
vt 0.420880 0.962238
vt 0.420880 0.961418
vt 0.421007 0.961418
vt 0.419819 0.961963
vt 0.419819 0.961418
vt 0.420639 0.961418
vt 0.420639 0.961962
vt 0.418809 0.962227
vt 0.418683 0.962227
vt 0.418683 0.961408
vt 0.418809 0.961408
vt 0.315433 0.961377
vt 0.315433 0.959997
vt 0.316060 0.959997
vt 0.316060 0.961377
vt 0.419660 0.958475
vt 0.419660 0.959956
vt 0.419604 0.959900
vt 0.419604 0.958530
vt 0.420680 0.962068
vt 0.420680 0.961441
vt 0.420786 0.961418
vt 0.420786 0.962091
vt 0.421332 0.958498
vt 0.421332 0.959125
vt 0.421226 0.959148
vt 0.421226 0.958475
vt 0.419329 0.958525
vt 0.419329 0.959905
vt 0.419233 0.959956
vt 0.419233 0.958475
vt 0.419192 0.958525
vt 0.419192 0.959905
vt 0.419096 0.959956
vt 0.419096 0.958475
vt 0.419243 0.962727
vt 0.418959 0.962727
vt 0.418959 0.962360
vt 0.419243 0.962360
vt 0.421373 0.959862
vt 0.421373 0.959189
vt 0.421448 0.959214
vt 0.421448 0.959837
vt 0.419756 0.958475
vt 0.419756 0.959956
vt 0.419701 0.959900
vt 0.419701 0.958530
vt 0.421531 0.961408
vt 0.421531 0.962081
vt 0.421456 0.962056
vt 0.421456 0.961433
vt 0.315574 0.959854
vt 0.314947 0.959854
vt 0.314947 0.958475
vt 0.315574 0.958475
vt 0.419853 0.959956
vt 0.419797 0.959900
vt 0.419797 0.958530
vt 0.419853 0.958475
vt 0.421226 0.959212
vt 0.421332 0.959189
vt 0.421332 0.959862
vt 0.421226 0.959839
vt 0.421480 0.959125
vt 0.421373 0.959148
vt 0.421373 0.958475
vt 0.421480 0.958498
vt 0.419371 0.958525
vt 0.419467 0.958475
vt 0.419467 0.959956
vt 0.419371 0.959905
vt 0.419055 0.959905
vt 0.418959 0.959956
vt 0.418959 0.958475
vt 0.419055 0.958525
vt 0.417458 0.962439
vt 0.417458 0.961408
vt 0.417825 0.961408
vt 0.417825 0.962439
vt 0.421489 0.959189
vt 0.421563 0.959214
vt 0.421563 0.959837
vt 0.421489 0.959862
vt 0.419508 0.958475
vt 0.419563 0.958530
vt 0.419563 0.959900
vt 0.419508 0.959956
vt 0.421595 0.959148
vt 0.421521 0.959122
vt 0.421521 0.958500
vt 0.421595 0.958475
vt 0.422473 0.926577
vt 0.422189 0.926577
vt 0.422020 0.926408
vt 0.422642 0.926408
vt 0.422189 0.927608
vt 0.422473 0.927608
vt 0.422642 0.927777
vt 0.422020 0.927777
vt 0.422675 0.929130
vt 0.422959 0.929130
vt 0.423128 0.929299
vt 0.422506 0.929299
vt 0.422959 0.928099
vt 0.422675 0.928099
vt 0.422506 0.927930
vt 0.423128 0.927930
vt 0.418234 0.961408
vt 0.418234 0.962439
vt 0.417866 0.962439
vt 0.417866 0.961408
vt 0.419893 0.962727
vt 0.419609 0.962727
vt 0.419609 0.962360
vt 0.419893 0.962360
vt 0.418642 0.961408
vt 0.418642 0.962439
vt 0.418275 0.962439
vt 0.418275 0.961408
vt 0.419568 0.962727
vt 0.419284 0.962727
vt 0.419284 0.962360
vt 0.419568 0.962360
vt 0.421415 0.961408
vt 0.421415 0.962439
vt 0.421048 0.962439
vt 0.421048 0.961408
vt 0.421007 0.962646
vt 0.420723 0.962646
vt 0.420723 0.962279
vt 0.421007 0.962279
vt 0.419819 0.962319
vt 0.419819 0.962013
vt 0.420639 0.962013
vt 0.420639 0.962319
vt 0.419745 0.928551
vt 0.419821 0.927930
vt 0.441567 0.721699
vt 0.441601 0.721699
vt 0.441676 0.722321
vt 0.441616 0.722320
vt 0.459039 0.718548
vt 0.459038 0.718482
vt 0.459724 0.718500
vt 0.459734 0.718560
vt 0.459771 0.721262
vt 0.459771 0.721229
vt 0.460582 0.721229
vt 0.460582 0.721262
vt 0.458270 0.718559
vt 0.458272 0.718498
vt 0.418093 0.958525
vt 0.418093 0.958993
vt 0.418188 0.958977
vt 0.417909 0.958475
vt 0.418468 0.958475
vt 0.418360 0.958995
vt 0.418360 0.958530
vt 0.450411 0.720951
vt 0.450471 0.720951
vt 0.450471 0.722331
vt 0.450411 0.722331
vt 0.314012 0.959997
vt 0.314846 0.959997
vt 0.314846 0.961377
vt 0.314012 0.961377
vt 0.417458 0.959905
vt 0.417458 0.959071
vt 0.418224 0.959060
vt 0.417642 0.959956
vt 0.418959 0.962319
vt 0.418959 0.961774
vt 0.419778 0.961774
vt 0.419778 0.962319
vt 0.418809 0.959956
vt 0.418917 0.959072
vt 0.418917 0.959900
vt 0.419695 0.928678
vt 0.419744 0.929299
vt 0.460632 0.721501
vt 0.460632 0.721468
vt 0.461443 0.721467
vt 0.461443 0.721501
vt 0.441601 0.721572
vt 0.441567 0.721573
vt 0.441616 0.720952
vt 0.441676 0.720950
vt 0.458906 0.718498
vt 0.458906 0.718559
vt 0.459001 0.718548
vt 0.459000 0.718482
vt 0.459173 0.718560
vt 0.459171 0.718500
vt 0.419770 0.961765
vt 0.419769 0.961732
vt 0.419819 0.962004
vt 0.420630 0.962004
vt 0.419737 0.928551
vt 0.419812 0.927929
vt 0.419812 0.929300
vt 0.419737 0.928678
vt 0.418911 0.959004
vt 0.418225 0.958986
vt 0.418959 0.961732
vt 0.417460 0.959002
vt 0.418093 0.959002
vt 0.418188 0.958986
vt 0.418358 0.959004
vt 0.314915 0.961377
vt 0.314915 0.959997
vt 0.420630 0.961971
vt 0.314855 0.959997
vt 0.314855 0.961377
vt 0.417457 0.959062
vt 0.418226 0.959051
vt 0.418959 0.961765
vt 0.418921 0.959063
vt 0.419703 0.928677
vt 0.419752 0.929299
vt 0.419819 0.961971
vt 0.419752 0.927930
vt 0.419703 0.928552
vt 0.418188 0.959051
vt 0.418093 0.959062
vt 0.418361 0.959063
s 0
usemtl Atlas
f 90/1/1 3/2/1 4/3/1 89/4/1
f 100/5/2 5/6/2 13/7/2 99/8/2
f 1/9/3 2/10/3 6/11/3 5/12/3
f 4/13/4 3/14/4 7/15/4 8/16/4
f 92/17/5 1/18/5 5/19/5 100/5/5
f 89/20/6 4/21/6 8/22/6 88/23/6
f 84/24/7 11/25/7 19/26/7 70/27/7
f 5/28/8 6/29/8 14/30/8 13/31/8
f 88/23/9 8/32/9 15/33/9 86/34/9
f 8/35/10 7/36/10 16/37/10 15/38/10
f 10/39/11 9/40/11 13/41/11 14/42/11
f 12/43/11 11/44/11 15/45/11 16/46/11
f 82/47/11 12/43/11 16/46/11 87/48/11
f 79/49/11 10/39/11 14/42/11 78/50/11
f 11/51/12 12/52/12 20/53/12 19/54/12
f 98/55/13 9/56/13 17/57/13 75/58/13
f 9/59/14 10/60/14 18/61/14 17/62/14
f 21/63/1 23/64/1 24/65/1 22/66/1
f 27/67/15 25/68/15 45/69/15 48/70/15
f 21/71/16 22/72/16 26/73/16 25/74/16
f 24/75/17 23/76/17 27/77/17 28/78/17
f 23/79/18 21/80/18 25/81/18 27/82/18
f 22/83/19 24/84/19 28/85/19 26/86/19
f 42/87/14 41/88/14 57/89/14 58/90/14
f 25/91/20 26/92/20 46/93/20 45/94/20
f 26/95/21 28/96/21 47/97/21 46/98/21
f 28/99/22 27/100/22 48/101/22 47/102/22
f 33/103/1 34/104/1 36/105/1 35/106/1
f 39/107/21 52/108/21 49/109/21 37/110/21
f 33/111/16 37/112/16 38/113/16 34/114/16
f 36/115/17 40/116/17 39/117/17 35/118/17
f 35/119/19 39/120/19 37/121/19 33/122/19
f 34/123/18 38/124/18 40/125/18 36/126/18
f 41/127/7 44/128/7 60/129/7 57/130/7
f 37/131/20 49/132/20 50/133/20 38/134/20
f 38/135/15 50/136/15 51/137/15 40/138/15
f 40/139/22 51/140/22 52/141/22 39/142/22
f 30/143/11 29/144/11 45/145/11 46/146/11
f 32/147/11 31/148/11 47/149/11 48/150/11
f 29/144/11 32/147/11 48/150/11 45/145/11
f 31/148/11 30/143/11 46/146/11 47/149/11
f 41/151/11 42/152/11 50/153/11 49/154/11
f 43/155/11 44/156/11 52/157/11 51/158/11
f 44/156/11 41/151/11 49/154/11 52/157/11
f 42/152/11 43/155/11 51/158/11 50/153/11
f 32/159/13 29/160/13 53/161/13 56/162/13
f 29/163/14 30/164/14 54/165/14 53/166/14
f 43/167/13 42/168/13 58/169/13 59/170/13
f 44/171/12 43/172/12 59/173/12 60/174/12
f 30/175/7 31/176/7 55/177/7 54/178/7
f 31/179/12 32/180/12 56/181/12 55/182/12
f 12/183/13 82/184/13 69/185/13 20/186/13
f 11/44/11 84/187/11 86/188/11 15/45/11
f 74/189/23 67/190/23 65/191/23 73/192/23
f 95/193/24 64/194/24 66/195/24 97/196/24
f 96/197/25 68/198/25 83/199/25 81/200/25
f 94/201/26 62/202/26 64/194/26 95/193/26
f 3/203/5 90/204/5 91/205/5 7/206/5
f 7/207/2 91/205/2 87/208/2 16/209/2
f 71/210/27 61/211/27 62/212/27 94/213/27
f 1/214/1 92/215/1 76/216/1 2/217/1
f 2/218/6 76/219/6 77/220/6 6/221/6
f 10/222/7 79/223/7 80/224/7 18/225/7
f 6/226/9 77/220/9 78/227/9 14/228/9
f 9/40/11 98/229/11 99/230/11 13/41/11
f 67/231/28 74/232/28 93/233/28 85/234/28
f 68/235/29 96/236/29 97/237/29 66/238/29
f 61/239/30 71/240/30 72/241/30 63/242/30
f 63/242/31 72/241/31 73/243/31 65/244/31
f 81/245/32 83/246/32 70/27/32 80/224/32
f 67/247/33 85/248/33 69/185/33 82/184/33
f 68/249/34 66/250/34 86/188/34 84/187/34
f 65/251/35 67/252/35 82/47/35 87/48/35
f 66/253/36 64/254/36 88/23/36 86/34/36
f 83/246/37 68/255/37 84/24/37 70/27/37
f 64/254/38 62/256/38 89/20/38 88/23/38
f 61/257/39 63/258/39 91/205/39 90/204/39
f 63/258/40 65/259/40 87/208/40 91/205/40
f 62/260/41 61/261/41 90/1/41 89/4/41
f 85/248/42 93/262/42 75/58/42 69/185/42
f 71/263/43 94/264/43 76/216/43 92/215/43
f 94/265/44 95/266/44 77/220/44 76/219/44
f 96/267/45 81/245/45 80/224/45 79/223/45
f 95/266/46 97/268/46 78/227/46 77/220/46
f 74/269/47 73/270/47 99/230/47 98/229/47
f 93/262/48 74/271/48 98/55/48 75/58/48
f 97/272/49 96/273/49 79/49/49 78/50/49
f 72/274/50 71/275/50 92/17/50 100/5/50
f 73/276/51 72/274/51 100/5/51 99/8/51
