# Blender 4.2.0
# www.blender.org
mtllib Ceiling_Tile_Grey_Metal.mtl
o Ceiling_Tile_Grey_Metal
v -2.000000 4.008145 2.000000
v 2.000000 4.008145 2.000000
v -2.000000 4.008145 -2.000000
v 2.000000 4.008145 -2.000000
v -2.000000 3.858145 2.000000
v 2.000000 3.858145 2.000000
v -2.000000 3.858145 -2.000000
v 2.000000 3.858145 -2.000000
v -0.666667 4.008145 2.000000
v 0.666667 4.008145 2.000000
v 0.666667 4.008145 -2.000000
v -0.666667 4.008145 -2.000000
v -0.666667 3.858145 2.000000
v 0.666667 3.858145 2.000000
v 0.666667 3.858145 -2.000000
v -0.666667 3.858145 -2.000000
v -2.000000 4.008145 -0.666667
v -2.000000 4.008145 0.666667
v 2.000000 4.008145 0.666667
v 2.000000 4.008145 -0.666667
v -2.000000 3.858145 -0.666667
v -2.000000 3.858145 0.666667
v 2.000000 3.858145 0.666667
v 2.000000 3.858145 -0.666667
v -1.041410 4.008145 1.041410
v -0.953587 4.008145 0.953587
v -0.997498 3.974085 0.997498
v -0.953587 4.008145 -0.953587
v -1.041410 4.008145 -1.041410
v -0.997498 3.974085 -0.997498
v 0.953587 4.008145 0.953587
v 1.041410 4.008145 1.041410
v 0.997498 3.974085 0.997498
v 1.041410 4.008145 -1.041410
v 0.953587 4.008145 -0.953587
v 0.997498 3.974085 -0.997498
v -1.041410 3.856658 -1.041410
v -0.953587 3.856658 -0.953587
v -0.997498 3.890718 -0.997498
v -0.953587 3.856657 0.953587
v -1.041410 3.856657 1.041410
v -0.997498 3.890718 0.997498
v 0.953587 3.856658 -0.953587
v 1.041410 3.856658 -1.041410
v 0.997498 3.890718 -0.997498
v 1.041410 3.856657 1.041410
v 0.953587 3.856657 0.953587
v 0.997498 3.890718 0.997498
vn -1.0000 -0.0000 -0.0000
vn -0.0000 -0.0000 1.0000
vn 1.0000 -0.0000 -0.0000
vn -0.0000 -0.0000 -1.0000
vn -0.0000 1.0000 -0.0000
vn -0.6129 0.7902 -0.0000
vn 0.6129 0.7902 -0.0000
vn -0.0000 0.7902 0.6129
vn -0.0000 0.7902 -0.6129
vn 0.0008 -1.0000 -0.0008
vn -0.0008 -1.0000 0.0008
vn -0.0016 -1.0000 -0.0000
vn -0.0000 -1.0000 0.0016
vn -0.0000 -1.0000 -0.0016
vn -0.0000 -1.0000 -0.0000
vn 0.0016 -1.0000 -0.0000
vn 0.0008 -1.0000 0.0008
vn -0.6129 -0.7902 -0.0000
vn 0.6129 -0.7902 -0.0000
vn -0.0000 -0.7902 -0.6129
vn -0.0000 -0.7902 0.6129
vn -0.0008 -1.0000 -0.0008
vt 0.579076 0.945632
vt 0.579076 0.945608
vt 0.579078 0.945608
vt 0.579078 0.945632
vt 0.579067 0.945632
vt 0.579067 0.945608
vt 0.579070 0.945608
vt 0.579070 0.945632
vt 0.579071 0.945632
vt 0.579071 0.945608
vt 0.579074 0.945608
vt 0.579074 0.945632
vt 0.579080 0.945632
vt 0.579080 0.945608
vt 0.579083 0.945608
vt 0.579083 0.945632
vt 0.579080 0.945681
vt 0.579080 0.945657
vt 0.579083 0.945657
vt 0.579083 0.945681
vt 0.579067 0.945681
vt 0.579067 0.945657
vt 0.579070 0.945657
vt 0.579070 0.945681
vt 0.579141 0.945582
vt 0.579141 0.945606
vt 0.579116 0.945606
vt 0.579123 0.945589
vt 0.579092 0.945533
vt 0.579085 0.945550
vt 0.579067 0.945557
vt 0.579067 0.945533
vt 0.579116 0.945533
vt 0.579123 0.945550
vt 0.579085 0.945589
vt 0.579067 0.945582
vt 0.579141 0.945557
vt 0.579094 0.945608
vt 0.579129 0.945608
vt 0.579129 0.945643
vt 0.579094 0.945643
vt 0.579071 0.945681
vt 0.579071 0.945657
vt 0.579074 0.945657
vt 0.579074 0.945681
vt 0.579076 0.945681
vt 0.579076 0.945657
vt 0.579078 0.945657
vt 0.579078 0.945681
vt 0.579092 0.945606
vt 0.579067 0.945606
vt 0.579132 0.945609
vt 0.579132 0.945644
vt 0.579131 0.945644
vt 0.579131 0.945608
vt 0.579087 0.945645
vt 0.579087 0.945609
vt 0.579088 0.945608
vt 0.579088 0.945646
vt 0.579090 0.945608
vt 0.579090 0.945646
vt 0.579089 0.945645
vt 0.579089 0.945609
vt 0.579139 0.945608
vt 0.579139 0.945644
vt 0.579138 0.945644
vt 0.579138 0.945609
vt 0.579133 0.945644
vt 0.579133 0.945609
vt 0.579134 0.945608
vt 0.579134 0.945644
vt 0.579084 0.945645
vt 0.579084 0.945609
vt 0.579085 0.945608
vt 0.579085 0.945646
vt 0.579093 0.945608
vt 0.579093 0.945646
vt 0.579092 0.945645
vt 0.579092 0.945609
vt 0.579136 0.945644
vt 0.579136 0.945608
vt 0.579137 0.945609
vt 0.579137 0.945644
vt 0.579141 0.945533
s 0
usemtl Atlas_Metallic
f 17/1/1 3/2/1 7/3/1 21/4/1
f 9/5/2 1/6/2 5/7/2 13/8/2
f 19/9/3 2/10/3 6/11/3 23/12/3
f 11/13/4 4/14/4 8/15/4 15/16/4
f 3/17/4 12/18/4 16/19/4 7/20/4
f 12/18/4 11/13/4 15/16/4 16/19/4
f 2/21/2 10/22/2 14/23/2 6/24/2
f 10/22/2 9/5/2 13/8/2 14/23/2
f 10/25/5 2/26/5 19/27/5 32/28/5
f 17/29/5 29/30/5 12/31/5 3/32/5
f 18/33/5 25/34/5 29/30/5 17/29/5
f 29/30/5 34/35/5 11/36/5 12/31/5
f 9/37/5 10/25/5 32/28/5 25/34/5
f 26/38/5 31/39/5 35/40/5 28/41/5
f 4/42/3 20/43/3 24/44/3 8/45/3
f 20/43/3 19/9/3 23/12/3 24/44/3
f 1/46/1 18/47/1 22/48/1 5/49/1
f 18/47/1 17/1/1 21/4/1 22/48/1
f 32/28/5 19/27/5 20/50/5 34/35/5
f 34/35/5 20/50/5 4/51/5 11/36/5
f 26/52/6 28/53/6 30/54/6 27/55/6
f 27/56/7 30/57/7 29/58/7 25/59/7
f 32/60/6 34/61/6 36/62/6 33/63/6
f 33/64/7 36/65/7 35/66/7 31/67/7
f 31/68/8 26/69/8 27/70/8 33/71/8
f 33/72/9 27/73/9 25/74/9 32/75/9
f 34/76/8 29/77/8 30/78/8 36/79/8
f 36/80/9 30/81/9 28/82/9 35/83/9
f 1/84/5 9/37/5 25/34/5 18/33/5
f 15/25/10 8/26/10 24/27/10 44/28/10
f 22/29/11 41/30/11 13/31/11 5/32/11
f 21/33/12 37/34/12 41/30/12 22/29/12
f 41/30/13 46/35/13 14/36/13 13/31/13
f 16/37/14 15/25/14 44/28/14 37/34/14
f 38/38/15 43/39/15 47/40/15 40/41/15
f 44/28/16 24/27/16 23/50/16 46/35/16
f 46/35/17 23/50/17 6/51/17 14/36/17
f 38/52/18 40/53/18 42/54/18 39/55/18
f 39/56/19 42/57/19 41/58/19 37/59/19
f 44/60/18 46/61/18 48/62/18 45/63/18
f 45/64/19 48/65/19 47/66/19 43/67/19
f 43/68/20 38/69/20 39/70/20 45/71/20
f 45/72/21 39/73/21 37/74/21 44/75/21
f 46/76/20 41/77/20 42/78/20 48/79/20
f 48/80/21 42/81/21 40/82/21 47/83/21
f 7/84/22 16/37/22 37/34/22 21/33/22
