# Blender 4.2.0
# www.blender.org
mtllib Corridor_Boundary_4x4.mtl
o Corridor_Boundary_4x4
v 1.599974 3.586804 -2.047078
v 2.090128 3.636620 -2.017525
v 1.551793 -0.001086 -1.998101
v 2.067464 -0.001086 -1.998102
v 2.067464 4.080044 -1.998102
v -1.599975 3.586804 -2.047076
v -2.090129 3.636620 -2.017523
v -1.551794 -0.001086 -1.998100
v -2.067464 -0.001086 -1.998099
v -2.067464 4.080044 -1.998100
v 1.599974 3.586804 -1.437087
v 2.090129 3.636620 -1.466640
v 1.551793 -0.001086 -1.486062
v 2.067464 -0.001086 -1.486063
v 2.067464 4.080044 -1.486063
v -1.599975 3.586804 -1.437085
v -2.090129 3.636620 -1.466637
v -1.551793 -0.001086 -1.486061
v -2.067464 -0.001086 -1.486060
v -2.067464 4.080044 -1.486061
v -1.599974 3.586804 2.038427
v -2.090128 3.636619 2.008874
v -1.551793 -0.001086 1.989450
v -2.067463 -0.001086 1.989450
v -2.067463 4.080043 1.989451
v 1.599975 3.586804 2.038426
v 2.090130 3.636619 2.008873
v 1.551794 -0.001086 1.989449
v 2.067465 -0.001086 1.989449
v 2.067465 4.080043 1.989450
v -1.599974 3.586803 1.428435
v -2.090129 3.636619 1.457988
v -1.551793 -0.001086 1.477411
v -2.067464 -0.001086 1.477411
v -2.067464 4.080043 1.477412
v 1.599975 3.586803 1.428434
v 2.090129 3.636619 1.457987
v 1.551794 -0.001086 1.477410
v 2.067464 -0.001086 1.477410
v 2.067464 4.080043 1.477410
v -2.000000 0.003547 1.892513
v -1.620709 3.636859 1.953357
v -1.928619 3.636859 1.953357
v -1.620709 0.003547 1.953357
v -1.928619 0.003547 1.953357
v -2.000000 3.650100 1.892513
v -2.000000 4.003547 1.892513
v -1.928619 3.932930 1.953357
v -2.000001 0.003547 -1.903491
v -1.620710 3.636859 -1.964335
v -1.928620 3.636859 -1.964335
v -1.620710 0.003547 -1.964335
v -1.928620 0.003547 -1.964334
v -2.000001 3.650100 -1.903491
v -2.000001 4.003547 -1.903491
v -1.928620 3.932930 -1.964335
v 2.000000 0.003547 1.892512
v 1.620710 3.636859 1.953356
v 1.928620 3.636859 1.953356
v 1.620710 0.003547 1.953356
v 1.928620 0.003547 1.953356
v 2.000000 3.650100 1.892512
v 2.000000 4.003547 1.892512
v 1.928620 3.932930 1.953356
v 2.000000 0.003547 -1.903492
v 1.620709 3.636859 -1.964336
v 1.928620 3.636859 -1.964336
v 1.620709 0.003547 -1.964335
v 1.928620 0.003547 -1.964335
v 2.000000 3.650100 -1.903492
v 2.000000 4.003547 -1.903492
v 1.928620 3.932930 -1.964336
v -2.000000 4.003547 -1.817497
v -2.000000 3.650100 -1.817497
v -2.000000 0.003547 -1.817497
v 2.000000 4.003547 -1.817497
v 2.000000 3.650100 -1.817497
v 2.000000 0.003547 -1.817497
vn 0.0298 -0.0098 -0.9995
vn -0.0000 0.0932 -0.9956
vn -0.0299 -0.0098 -0.9995
vn 0.0299 -0.0098 0.9995
vn -0.0000 0.0932 0.9956
vn -0.0298 -0.0098 0.9995
vn -0.9999 0.0134 -0.0000
vn 1.0000 -0.0062 -0.0000
vn 0.9987 0.0510 -0.0000
vn -0.0000 -1.0000 -0.0000
vn 0.9999 0.0134 -0.0000
vn -1.0000 -0.0062 -0.0000
vn -0.9987 0.0510 -0.0000
vn -0.0000 1.0000 -0.0000
vn -0.0299 -0.0098 0.9995
vn 0.0299 -0.0098 -0.9995
vn -0.6487 -0.0000 -0.7610
vn -0.0000 -0.0000 1.0000
vn -0.6487 -0.0000 0.7610
vn -1.0000 -0.0000 -0.0000
vn -0.0000 -0.0000 -1.0000
vn 0.6487 -0.0000 0.7610
vn 1.0000 -0.0000 -0.0000
vn -0.0000 0.6527 0.7576
vn 0.6487 -0.0000 -0.7610
vn -0.0000 0.6527 -0.7576
vt 0.306120 0.064920
vt 0.306242 0.064919
vt 0.306237 0.065816
vt 0.306121 0.065829
vt 0.306993 0.065816
vt 0.307110 0.065829
vt 0.307104 0.065925
vt 0.306126 0.065925
vt 0.307110 0.064920
vt 0.306988 0.064919
vt 0.306090 0.065956
vt 0.306090 0.066865
vt 0.305974 0.066852
vt 0.305968 0.065955
vt 0.306084 0.066962
vt 0.305107 0.066962
vt 0.305101 0.066865
vt 0.305217 0.066852
vt 0.305101 0.065956
vt 0.305222 0.065955
vt 0.307675 0.065816
vt 0.307689 0.064919
vt 0.307830 0.064919
vt 0.307843 0.065816
vt 0.307469 0.064919
vt 0.307474 0.065828
vt 0.307322 0.065828
vt 0.307327 0.064919
vt 0.307469 0.065925
vt 0.307327 0.065925
vt 0.305269 0.066991
vt 0.305269 0.067748
vt 0.305101 0.067748
vt 0.305101 0.066991
vt 0.307830 0.065955
vt 0.307843 0.066852
vt 0.307675 0.066852
vt 0.307689 0.065955
vt 0.307140 0.066865
vt 0.307145 0.065955
vt 0.307287 0.065955
vt 0.307292 0.066865
vt 0.307145 0.066961
vt 0.307287 0.066961
vt 0.307504 0.065897
vt 0.307504 0.064919
vt 0.307645 0.064919
vt 0.307645 0.065897
vt 0.306120 0.065956
vt 0.306242 0.065955
vt 0.306237 0.066852
vt 0.306121 0.066865
vt 0.306993 0.066852
vt 0.307110 0.066865
vt 0.307104 0.066962
vt 0.306126 0.066962
vt 0.307110 0.065956
vt 0.306988 0.065955
vt 0.306090 0.064920
vt 0.306090 0.065829
vt 0.305974 0.065816
vt 0.305968 0.064919
vt 0.306084 0.065925
vt 0.305107 0.065925
vt 0.305101 0.065829
vt 0.305217 0.065816
vt 0.305101 0.064920
vt 0.305222 0.064919
vt 0.307675 0.067779
vt 0.307689 0.066882
vt 0.307830 0.066882
vt 0.307843 0.067779
vt 0.307287 0.064919
vt 0.307292 0.065828
vt 0.307140 0.065828
vt 0.307145 0.064919
vt 0.307287 0.065925
vt 0.307145 0.065925
vt 0.307306 0.067747
vt 0.307306 0.066991
vt 0.307474 0.066991
vt 0.307474 0.067747
vt 0.308028 0.064919
vt 0.308042 0.065816
vt 0.307873 0.065816
vt 0.307887 0.064919
vt 0.307322 0.066865
vt 0.307327 0.065955
vt 0.307469 0.065955
vt 0.307474 0.066865
vt 0.307327 0.066961
vt 0.307469 0.066961
vt 0.307645 0.065955
vt 0.307645 0.066933
vt 0.307504 0.066933
vt 0.307504 0.065955
vt 0.578613 0.974068
vt 0.578787 0.973980
vt 0.578300 0.950941
vt 0.578124 0.950945
vt 0.603053 0.978071
vt 0.574036 0.950383
vt 0.574357 0.950376
vt 0.574890 0.975585
vt 0.574570 0.975592
vt 0.578661 0.976309
vt 0.578827 0.975858
vt 0.575394 0.974450
vt 0.574904 0.951327
vt 0.574614 0.977646
vt 0.524299 0.983310
vt 0.524484 0.983420
vt 0.575441 0.976691
s 0
usemtl Atlas
f 54/97/17 51/98/17 53/99/17 49/100/17
f 73/101/14 47/101/14 63/101/14 76/101/14
f 45/102/18 44/103/18 42/104/18 43/105/18
f 47/106/19 46/97/19 43/98/19 48/107/19
f 74/108/20 54/108/20 49/109/20 75/109/20
f 42/104/18 58/104/18 59/105/18 64/110/18 48/110/18 43/105/18
f 53/102/21 51/105/21 50/104/21 52/103/21
f 62/97/22 59/98/22 61/99/22 57/100/22
f 55/106/17 56/107/17 51/98/17 54/97/17
f 42/104/23 44/103/23 52/103/23 50/104/23
f 48/111/24 64/111/24 63/112/24 47/112/24
f 70/97/25 65/100/25 69/99/25 67/98/25
f 61/102/18 59/105/18 58/104/18 60/103/18
f 63/106/22 64/107/22 59/98/22 62/97/22
f 77/108/23 76/113/23 63/113/23 62/108/23
f 51/105/21 56/110/21 72/110/21 67/105/21 66/104/21 50/104/21
f 78/109/23 77/108/23 62/108/23 57/109/23
f 56/111/26 55/112/26 71/112/26 72/111/26
f 66/104/21 67/105/21 69/102/21 68/103/21
f 71/106/25 70/97/25 67/98/25 72/107/25
f 46/97/19 41/100/19 45/99/19 43/98/19
f 74/108/20 46/108/20 47/113/20 73/113/20
f 66/104/20 68/103/20 60/103/20 58/104/20
f 42/104/10 50/104/10 66/104/10 58/104/10
f 54/108/20 74/108/20 73/113/20 55/113/20
f 65/109/23 70/108/23 77/108/23 78/109/23
f 70/108/23 71/113/23 76/113/23 77/108/23
f 46/108/20 74/108/20 75/109/20 41/109/20
f 55/101/14 73/101/14 76/101/14 71/101/14
usemtl Atlas_Metallic
f 4/1/1 3/2/1 1/3/1 2/4/1
f 1/3/2 6/5/2 7/6/2 10/7/2 5/8/2 2/4/2
f 9/9/3 7/6/3 6/5/3 8/10/3
f 14/11/4 12/12/4 11/13/4 13/14/4
f 11/13/5 12/12/5 15/15/5 20/16/5 17/17/5 16/18/5
f 19/19/6 18/20/6 16/18/6 17/17/6
f 1/21/7 3/22/7 13/23/7 11/24/7
f 4/25/8 2/26/8 12/27/8 14/28/8
f 2/26/9 5/29/9 15/30/9 12/27/9
f 6/31/10 1/32/10 11/33/10 16/34/10
f 8/35/11 6/36/11 16/37/11 18/38/11
f 7/39/12 9/40/12 19/41/12 17/42/12
f 10/43/13 7/39/13 17/42/13 20/44/13
f 5/45/14 10/46/14 20/47/14 15/48/14
f 24/49/15 23/50/15 21/51/15 22/52/15
f 21/51/5 26/53/5 27/54/5 30/55/5 25/56/5 22/52/5
f 29/57/4 27/54/4 26/53/4 28/58/4
f 34/59/3 32/60/3 31/61/3 33/62/3
f 31/61/2 32/60/2 35/63/2 40/64/2 37/65/2 36/66/2
f 39/67/16 38/68/16 36/66/16 37/65/16
f 21/69/11 23/70/11 33/71/11 31/72/11
f 24/73/12 22/74/12 32/75/12 34/76/12
f 22/74/13 25/77/13 35/78/13 32/75/13
f 26/79/10 21/80/10 31/81/10 36/82/10
f 28/83/7 26/84/7 36/85/7 38/86/7
f 27/87/8 29/88/8 39/89/8 37/90/8
f 30/91/9 27/87/9 37/90/9 40/92/9
f 25/93/14 30/94/14 40/95/14 35/96/14
