# Blender 4.2.0
# www.blender.org
mtllib Floor_Mid_Path.mtl
o Floor_Mid_Path
v 2.000000 -0.086149 1.200000
v -1.999996 0.009535 2.000004
v 2.000004 0.009535 1.999996
v -2.000004 0.009535 -1.999996
v 1.999996 0.009535 -2.000004
v -1.999996 -0.140465 2.000004
v 2.000004 -0.140465 1.999996
v -2.000004 -0.140465 -1.999996
v 1.999996 -0.140465 -2.000004
v -1.999998 -0.140465 1.265239
v 2.000002 -0.140465 1.265231
v 2.000002 -0.140465 1.134761
v -1.999998 -0.140465 1.134769
v -2.000002 -0.140465 -1.199996
v -1.999998 -0.140465 1.200004
v 2.000002 -0.140465 1.199996
v 1.999998 -0.140465 -1.200004
v -2.000002 0.009535 -1.134318
v -2.000002 0.009535 -1.265231
v -2.000002 -0.070450 -1.199996
v -2.000002 -0.140465 -1.134761
v -1.999998 0.009535 1.262072
v -1.999998 0.009535 1.134769
v -1.999998 -0.086357 1.198330
v 1.999998 -0.140465 -1.134769
v 2.000002 0.009535 1.134761
v 2.000002 0.009535 1.265231
v 1.999998 -0.140465 -1.265238
v 1.999998 0.009535 -1.265239
v 1.999998 0.009535 -1.134769
v 1.999998 -0.070450 -1.200004
v -2.000002 -0.140465 -1.265231
vn -0.0000 1.0000 -0.0000
vn -0.0000 -0.0000 1.0000
vn -0.0000 -0.0000 -1.0000
vn 1.0000 -0.0000 -0.0000
vn -1.0000 -0.0000 -0.0000
vn 0.0005 0.5585 -0.8295
vn -0.0002 0.5579 0.8299
vn -0.0000 0.6333 -0.7739
vn -0.0000 0.6320 0.7749
vt 0.187944 0.947908
vt 0.197944 0.947908
vt 0.197944 0.949745
vt 0.187944 0.949745
vt 0.187944 0.957908
vt 0.197944 0.957908
vt 0.447850 0.083969
vt 0.447850 0.083967
vt 0.187944 0.949908
vt 0.447850 0.083911
vt 0.197944 0.956071
vt 0.447750 0.083967
vt 0.447750 0.083911
vt 0.187944 0.956071
vt 0.447750 0.083909
vt 0.197944 0.949908
vt 0.447850 0.083909
vt 0.447750 0.083969
vt 0.197944 0.955908
vt 0.187944 0.955908
s 0
usemtl Atlas
f 2/1/1 3/2/1 27/3/1 22/4/1
f 3/2/2 2/1/2 6/1/2 7/2/2
f 4/5/3 5/6/3 9/6/3 8/5/3
f 31/7/4 30/8/4 25/8/4 17/7/4
f 10/4/5 22/4/5 24/9/5 15/9/5
f 25/8/4 30/8/4 26/10/4 12/10/4
f 5/6/4 29/11/4 28/11/4 9/6/4
f 30/8/1 18/12/1 23/13/1 26/10/1
f 2/1/5 22/4/5 10/4/5 6/1/5
f 13/13/5 23/13/5 18/12/5 21/12/5
f 19/14/1 29/11/1 5/6/1 4/5/1
f 24/15/5 23/13/5 13/13/5 15/15/5
f 1/16/4 27/3/4 11/3/4 16/16/4
f 11/3/4 27/3/4 3/2/4 7/2/4
f 12/10/4 26/10/4 1/17/4 16/17/4
f 21/12/5 18/12/5 20/18/5 14/18/5
f 32/14/5 19/14/5 4/5/5 8/5/5
f 28/11/4 29/11/4 31/19/4 17/19/4
f 24/9/6 22/4/6 27/3/6 1/16/6
f 23/13/7 24/15/7 1/17/7 26/10/7
f 20/18/8 18/12/8 30/8/8 31/7/8
f 19/14/9 20/20/9 31/19/9 29/11/9
f 20/20/5 19/14/5 32/14/5 14/20/5
