# Blender 4.2.0
# www.blender.org
mtllib Floor_Lamp.mtl
o Floor_Lamp
v 0.000000 0.000000 -0.401163
v -0.000000 0.198829 -0.085739
v 0.200581 0.000000 -0.347417
v 0.042869 0.198829 -0.074252
v 0.347417 0.000000 -0.200581
v 0.074252 0.198829 -0.042869
v 0.401163 0.000000 0.000000
v 0.085739 0.198829 -0.000000
v 0.347417 0.000000 0.200581
v 0.074252 0.198829 0.042869
v 0.200581 0.000000 0.347417
v 0.042869 0.198829 0.074252
v 0.000000 0.000000 0.401163
v -0.000000 0.198829 0.085739
v -0.200581 0.000000 0.347417
v -0.042869 0.198829 0.074252
v -0.347417 0.000000 0.200581
v -0.074252 0.198829 0.042869
v -0.401163 0.000000 0.000000
v -0.085739 0.198829 -0.000000
v -0.347417 0.000000 -0.200581
v -0.074252 0.198829 -0.042869
v -0.200581 0.000000 -0.347417
v -0.042869 0.198829 -0.074252
v 0.117438 0.198829 -0.203409
v -0.000000 0.198829 -0.234877
v 0.203409 0.198829 -0.117438
v 0.234877 0.198829 -0.000000
v 0.203409 0.198829 0.117438
v 0.117438 0.198829 0.203409
v -0.000000 0.198829 0.234877
v -0.117438 0.198829 0.203409
v -0.203409 0.198829 0.117438
v -0.234877 0.198829 -0.000000
v -0.203409 0.198829 -0.117438
v -0.117438 0.198829 -0.203409
v 0.042869 1.665421 -0.074252
v -0.000000 1.665421 -0.085739
v 0.074252 1.665421 -0.042869
v 0.085739 1.665421 -0.000000
v 0.074252 1.665421 0.042869
v 0.042869 1.665421 0.074252
v -0.000000 1.665421 0.085739
v -0.042869 1.665421 0.074252
v -0.074252 1.665421 0.042869
v -0.085739 1.665421 -0.000000
v -0.074252 1.665421 -0.042869
v -0.042869 1.665421 -0.074252
v 0.135792 1.566959 0.059616
v 0.135792 1.566959 -0.059616
v 1.521795 1.566959 0.059616
v 1.521795 1.566959 -0.059616
v 0.018925 1.742789 0.060237
v -0.079886 1.704980 0.122337
v 0.018925 1.742789 -0.060237
v -0.079886 1.704980 -0.122337
v 1.351692 1.742789 0.060237
v 1.450503 1.704980 0.122337
v 1.351692 1.742789 -0.060237
v 1.450503 1.704980 -0.122337
v -0.251037 1.566959 -0.159475
v -0.251037 1.566959 0.159475
v 1.621654 1.566959 -0.159475
v 1.621654 1.566959 0.159475
v 0.123181 1.566959 -0.072227
v 0.123181 1.566959 0.072227
v 1.534406 1.566959 -0.072227
v 1.534406 1.566959 0.072227
v 0.135792 1.615139 -0.059616
v 0.135792 1.615139 0.059616
v 1.521795 1.615139 -0.059616
v 1.521795 1.615139 0.059616
vn -0.0000 0.6415 -0.7671
vn -0.0000 0.8785 -0.4777
vn 0.2389 0.8785 -0.4137
vn 0.3835 0.6415 -0.6643
vn 0.4137 0.8785 -0.2389
vn 0.6643 0.6415 -0.3835
vn 0.4777 0.8785 -0.0000
vn 0.7671 0.6415 -0.0000
vn 0.4137 0.8785 0.2389
vn 0.6643 0.6415 0.3835
vn 0.2389 0.8785 0.4137
vn 0.3835 0.6415 0.6643
vn -0.0000 0.8785 0.4777
vn -0.0000 0.6415 0.7671
vn -0.2389 0.8785 0.4137
vn -0.3835 0.6415 0.6643
vn -0.4137 0.8785 0.2389
vn -0.6643 0.6415 0.3835
vn -0.4777 0.8785 -0.0000
vn -0.7671 0.6415 -0.0000
vn -0.4137 0.8785 -0.2389
vn -0.6643 0.6415 -0.3835
vn 0.6377 0.7703 -0.0000
vn 0.5523 0.7703 -0.3189
vn 0.8660 -0.0000 -0.5000
vn 1.0000 -0.0000 -0.0000
vn -0.2389 0.8785 -0.4137
vn -0.3835 0.6415 -0.6643
vn -0.0000 0.7703 -0.6377
vn 0.3189 0.7703 -0.5523
vn 0.5523 0.7703 0.3189
vn 0.3189 0.7703 0.5523
vn -0.0000 0.7703 0.6377
vn -0.3189 0.7703 0.5523
vn -0.5523 0.7703 0.3189
vn -0.6377 0.7703 -0.0000
vn -0.5523 0.7703 -0.3189
vn -0.3189 0.7703 -0.5523
vn -1.0000 -0.0000 -0.0000
vn -0.8660 -0.0000 -0.5000
vn -0.0000 -0.0000 1.0000
vn -0.5000 -0.0000 0.8660
vn 0.8660 -0.0000 0.5000
vn -0.5000 -0.0000 -0.8660
vn -0.0000 -0.0000 -1.0000
vn 0.5000 -0.0000 -0.8660
vn -0.8660 -0.0000 0.5000
vn 0.5000 -0.0000 0.8660
vn -0.0000 1.0000 -0.0000
vn 0.6277 0.7784 -0.0000
vn -0.6277 0.7784 -0.0000
vn -0.0000 0.2598 -0.9657
vn -0.3574 0.9340 -0.0000
vn -0.0000 0.8541 -0.5200
vn 0.3574 0.9340 -0.0000
vn -0.0000 0.8541 0.5200
vn -0.0000 0.2598 0.9657
vn -0.0000 -1.0000 -0.0000
vt 0.800953 0.935107
vt 0.800740 0.935759
vt 0.800642 0.935733
vt 0.800785 0.935062
vt 0.800542 0.935717
vt 0.800614 0.935035
vt 0.800440 0.935711
vt 0.800440 0.935026
vt 0.800339 0.935717
vt 0.800267 0.935035
vt 0.800238 0.935733
vt 0.800095 0.935062
vt 0.800140 0.935759
vt 0.799927 0.935107
vt 0.800045 0.935796
vt 0.799765 0.935170
vt 0.799954 0.935842
vt 0.799611 0.935249
vt 0.799869 0.935897
vt 0.799465 0.935344
vt 0.801415 0.935344
vt 0.801011 0.935897
vt 0.800926 0.935842
vt 0.801270 0.935249
vt 0.452623 0.941889
vt 0.452660 0.941889
vt 0.452660 0.946839
vt 0.452623 0.946839
vt 0.800835 0.935796
vt 0.801115 0.935170
vt 0.799604 0.938596
vt 0.799636 0.938614
vt 0.799604 0.938735
vt 0.799516 0.938684
vt 0.799673 0.938614
vt 0.799706 0.938735
vt 0.799706 0.938596
vt 0.799794 0.938684
vt 0.799724 0.938563
vt 0.799845 0.938596
vt 0.799724 0.938526
vt 0.799845 0.938494
vt 0.799706 0.938494
vt 0.799794 0.938406
vt 0.799673 0.938476
vt 0.799706 0.938355
vt 0.799636 0.938476
vt 0.799604 0.938355
vt 0.799604 0.938494
vt 0.799516 0.938406
vt 0.799586 0.938526
vt 0.799465 0.938494
vt 0.799586 0.938563
vt 0.799465 0.938596
vt 0.452809 0.941889
vt 0.452846 0.941889
vt 0.452846 0.946839
vt 0.452809 0.946839
vt 0.452475 0.941889
vt 0.452512 0.941889
vt 0.452512 0.946839
vt 0.452475 0.946839
vt 0.452586 0.941889
vt 0.452586 0.946839
vt 0.452772 0.941889
vt 0.452772 0.946839
vt 0.452698 0.941889
vt 0.452735 0.941889
vt 0.452735 0.946839
vt 0.452698 0.946839
vt 0.452438 0.941889
vt 0.452438 0.946839
vt 0.452549 0.941889
vt 0.452549 0.946839
vt 0.452401 0.941889
vt 0.452401 0.946839
vt 0.446033 0.807180
vt 0.447148 0.807180
vt 0.447148 0.807280
vt 0.446033 0.807280
vt 0.446106 0.807330
vt 0.446593 0.807361
vt 0.446593 0.807566
vt 0.446106 0.807597
vt 0.446033 0.807646
vt 0.446520 0.807677
vt 0.446520 0.807882
vt 0.446033 0.807913
vt 0.447276 0.807046
vt 0.446116 0.807046
vt 0.446033 0.806814
vt 0.446176 0.806347
vt 0.447456 0.806347
vt 0.447599 0.806814
vt 0.446672 0.807729
vt 0.446672 0.807830
vt 0.446259 0.806209
vt 0.447374 0.806209
vt 0.446745 0.807413
vt 0.446745 0.807514
vt 0.447374 0.806159
vt 0.446259 0.806159
vt 0.446176 0.806022
vt 0.447456 0.806022
vt 0.447599 0.805555
vt 0.446033 0.805555
vt 0.447286 0.807057
vt 0.447286 0.806936
vt 0.447599 0.806863
vt 0.447599 0.807130
vt 0.446106 0.807057
vt 0.446033 0.807130
vt 0.446033 0.807524
vt 0.446033 0.807403
vt 0.446106 0.806936
vt 0.446033 0.806863
vt 0.447276 0.806947
vt 0.446116 0.806947
s 1
usemtl Atlas
f 1/1/1 26/2/2 25/3/3 3/4/4
f 3/4/4 25/3/3 27/5/5 5/6/6
f 5/6/6 27/5/5 28/7/7 7/8/8
f 7/8/8 28/7/7 29/9/9 9/10/10
f 9/10/10 29/9/9 30/11/11 11/12/12
f 11/12/12 30/11/11 31/13/13 13/14/14
f 13/14/14 31/13/13 32/15/15 15/16/16
f 15/16/16 32/15/15 33/17/17 17/18/18
f 17/18/18 33/17/17 34/19/19 19/20/20
f 19/21/20 34/22/19 35/23/21 21/24/22
f 8/25/23 6/26/24 39/27/25 40/28/26
f 21/24/22 35/23/21 36/29/27 23/30/28
f 23/30/28 36/29/27 26/2/2 1/1/1
f 2/31/29 4/32/30 25/33/3 26/34/2
f 4/32/30 6/35/24 27/36/5 25/33/3
f 6/35/24 8/37/23 28/38/7 27/36/5
f 8/37/23 10/39/31 29/40/9 28/38/7
f 10/39/31 12/41/32 30/42/11 29/40/9
f 12/41/32 14/43/33 31/44/13 30/42/11
f 14/43/33 16/45/34 32/46/15 31/44/13
f 16/45/34 18/47/35 33/48/17 32/46/15
f 18/47/35 20/49/36 34/50/19 33/48/17
f 20/49/36 22/51/37 35/52/21 34/50/19
f 22/51/37 24/53/38 36/54/27 35/52/21
f 24/53/38 2/31/29 26/34/2 36/54/27
f 22/55/37 20/56/36 46/57/39 47/58/40
f 16/59/34 14/60/33 43/61/41 44/62/42
f 10/63/31 8/25/23 40/28/26 41/64/43
f 24/65/38 22/55/37 47/58/40 48/66/44
f 4/67/30 2/68/29 38/69/45 37/70/46
f 18/71/35 16/59/34 44/62/42 45/72/47
f 12/73/32 10/63/31 41/64/43 42/74/48
f 2/68/29 24/65/38 48/66/44 38/69/45
f 6/26/24 4/67/30 37/70/46 39/27/25
f 20/75/36 18/71/35 45/72/47 46/76/39
f 14/60/33 12/73/32 42/74/48 43/61/41
s 0
f 59/77/49 55/78/49 53/79/49 57/80/49
f 63/81/50 60/82/50 58/83/50 64/84/50
f 62/85/51 54/86/51 56/87/51 61/88/51
f 50/89/41 52/90/41 71/90/41 69/89/41
f 61/91/52 56/92/52 60/93/52 63/94/52
f 53/95/53 55/96/53 56/87/53 54/86/53
f 55/97/54 59/98/54 60/93/54 56/92/54
f 59/99/55 57/100/55 58/83/55 60/82/55
f 57/101/56 53/102/56 54/103/56 58/104/56
f 64/105/57 58/104/57 54/103/57 62/106/57
f 65/107/58 66/108/58 62/109/58 61/110/58
f 67/111/58 65/107/58 61/110/58 63/112/58
f 68/113/58 67/114/58 63/81/58 64/84/58
f 66/108/58 68/115/58 64/116/58 62/109/58
f 50/89/58 49/117/58 66/108/58 65/107/58
f 52/90/58 50/89/58 65/107/58 67/111/58
f 51/118/58 52/90/58 67/111/58 68/115/58
f 49/117/58 51/118/58 68/115/58 66/108/58
f 52/90/39 51/118/39 72/118/39 71/90/39
f 49/117/26 50/89/26 69/89/26 70/117/26
f 51/118/45 49/117/45 70/117/45 72/118/45
usemtl Atlas_Emissive
f 69/89/58 71/90/58 72/118/58 70/117/58
