# Blender 4.2.0
# www.blender.org
mtllib Floor_Tile_Metal.mtl
o Floor_Tile_Metal
v -2.000000 0.009535 -2.000000
v -2.000000 -0.140465 -2.000000
v 0.000000 0.009535 -2.000000
v 0.000000 -0.140465 -2.000000
v -2.000000 0.009535 0.000000
v -2.000000 -0.140465 0.000000
v 0.000000 0.009535 0.000000
v -1.379168 -0.140465 -2.000000
v -2.000000 -0.140465 -1.221439
v -1.420889 0.009535 -2.000000
v -1.337447 0.009535 -2.000000
v -1.379168 -0.032186 -2.000000
v -1.379168 0.002764 -2.000000
v 0.000000 0.009535 -1.283759
v 0.000000 0.009535 -1.200316
v 0.000000 0.002764 -1.242038
v -1.337447 0.009535 -1.531433
v -1.420889 0.009535 -1.495069
v -1.379168 0.002764 -1.513251
v -1.070961 0.009535 -1.283759
v -1.103750 0.009535 -1.200316
v -1.087356 0.002764 -1.242037
v -1.306549 0.009535 0.000000
v -1.389992 0.009535 0.000000
v -1.348271 0.002764 0.000000
v -2.000000 0.009535 -1.179718
v -2.000000 0.009535 -1.263160
v -2.000000 -0.032186 -1.221439
v -2.000000 0.002764 -1.221439
v -1.678474 0.009535 -1.263160
v -1.711551 0.009535 -1.179718
v -1.695012 0.002764 -1.221439
v -1.306550 0.009535 -0.913330
v -1.389992 0.009535 -0.877262
v -1.348271 0.002764 -0.895296
v 0.000000 0.009535 -0.756597
v 0.000000 0.009535 -0.664625
v 0.000000 0.000000 -0.710611
v -0.675076 0.009535 0.000000
v -0.767048 0.009535 0.000000
v -0.721062 0.000000 0.000000
v -0.767048 0.009535 -0.517660
v -0.675076 0.009535 -0.473070
v -0.721062 0.000000 -0.495365
v -0.464170 0.009535 -0.756598
v -0.432259 0.009535 -0.664625
v -0.448215 0.000000 -0.710611
v 2.000000 0.009535 -2.000000
v 2.000000 -0.140465 -2.000000
v 2.000000 0.009535 0.000000
v 2.000000 -0.140465 0.000000
v 1.379168 -0.140465 -2.000000
v 2.000000 -0.140465 -1.221439
v 1.420889 0.009535 -2.000000
v 1.337447 0.009535 -2.000000
v 1.379168 -0.032186 -2.000000
v 1.379168 0.002764 -2.000000
v 1.337447 0.009535 -1.531433
v 1.420889 0.009535 -1.495069
v 1.379168 0.002764 -1.513251
v 1.070961 0.009535 -1.283759
v 1.103750 0.009535 -1.200316
v 1.087356 0.002764 -1.242037
v 1.306549 0.009535 0.000000
v 1.389992 0.009535 0.000000
v 1.348271 0.002764 0.000000
v 2.000000 0.009535 -1.179718
v 2.000000 0.009535 -1.263160
v 2.000000 -0.032186 -1.221439
v 2.000000 0.002764 -1.221439
v 1.678474 0.009535 -1.263160
v 1.711551 0.009535 -1.179718
v 1.695012 0.002764 -1.221439
v 1.306550 0.009535 -0.913330
v 1.389992 0.009535 -0.877262
v 1.348271 0.002764 -0.895296
v 0.675076 0.009535 0.000000
v 0.767048 0.009535 0.000000
v 0.721062 0.000000 0.000000
v 0.767048 0.009535 -0.517660
v 0.675076 0.009535 -0.473070
v 0.721062 0.000000 -0.495365
v 0.464170 0.009535 -0.756598
v 0.432259 0.009535 -0.664625
v 0.448215 0.000000 -0.710611
v -2.000000 0.009535 2.000000
v -2.000000 -0.140465 2.000000
v 0.000000 0.009535 2.000000
v 0.000000 -0.140465 2.000000
v -1.379168 -0.140465 2.000000
v -2.000000 -0.140465 1.221439
v -1.420889 0.009535 2.000000
v -1.337447 0.009535 2.000000
v -1.379168 -0.032186 2.000000
v -1.379168 0.002764 2.000000
v 0.000000 0.009535 1.283759
v 0.000000 0.009535 1.200316
v 0.000000 0.002764 1.242038
v -1.337447 0.009535 1.531433
v -1.420889 0.009535 1.495069
v -1.379168 0.002764 1.513251
v -1.070961 0.009535 1.283759
v -1.103750 0.009535 1.200316
v -1.087356 0.002764 1.242037
v -2.000000 0.009535 1.179718
v -2.000000 0.009535 1.263160
v -2.000000 -0.032186 1.221439
v -2.000000 0.002764 1.221439
v -1.678474 0.009535 1.263160
v -1.711551 0.009535 1.179718
v -1.695012 0.002764 1.221439
v -1.306550 0.009535 0.913330
v -1.389992 0.009535 0.877262
v -1.348271 0.002764 0.895296
v 0.000000 0.009535 0.756597
v 0.000000 0.009535 0.664625
v 0.000000 0.000000 0.710611
v -0.767048 0.009535 0.517660
v -0.675076 0.009535 0.473070
v -0.721062 0.000000 0.495365
v -0.464170 0.009535 0.756598
v -0.432259 0.009535 0.664625
v -0.448215 0.000000 0.710611
v 2.000000 0.009535 2.000000
v 2.000000 -0.140465 2.000000
v 1.379168 -0.140465 2.000000
v 2.000000 -0.140465 1.221439
v 1.420889 0.009535 2.000000
v 1.337447 0.009535 2.000000
v 1.379168 -0.032186 2.000000
v 1.379168 0.002764 2.000000
v 1.337447 0.009535 1.531433
v 1.420889 0.009535 1.495069
v 1.379168 0.002764 1.513251
v 1.070961 0.009535 1.283759
v 1.103750 0.009535 1.200316
v 1.087356 0.002764 1.242037
v 2.000000 0.009535 1.179718
v 2.000000 0.009535 1.263160
v 2.000000 -0.032186 1.221439
v 2.000000 0.002764 1.221439
v 1.678474 0.009535 1.263160
v 1.711551 0.009535 1.179718
v 1.695012 0.002764 1.221439
v 1.306550 0.009535 0.913330
v 1.389992 0.009535 0.877262
v 1.348271 0.002764 0.895296
v 0.767048 0.009535 0.517660
v 0.675076 0.009535 0.473070
v 0.721062 0.000000 0.495365
v 0.464170 0.009535 0.756598
v 0.432259 0.009535 0.664625
v 0.448215 0.000000 0.710611
vn -1.0000 -0.0000 -0.0000
vn -0.0000 1.0000 -0.0000
vn -0.0000 -0.0000 -1.0000
vn 0.1602 0.9871 -0.0000
vn -0.1602 0.9871 -0.0000
vn 0.1091 0.9871 -0.1174
vn -0.1091 0.9871 0.1174
vn -0.0000 0.9871 -0.1602
vn -0.0000 0.9871 0.1602
vn 0.1098 0.9871 -0.1167
vn -0.1098 0.9871 0.1167
vn -0.2030 0.9792 -0.0000
vn 0.2030 0.9792 -0.0000
vn -0.1257 0.9792 -0.1594
vn 0.1257 0.9792 0.1594
vn -0.0000 0.9792 -0.2030
vn -0.0000 0.9792 0.2030
vn 1.0000 -0.0000 -0.0000
vn -0.1091 0.9871 -0.1174
vn 0.1091 0.9871 0.1174
vn -0.1098 0.9871 -0.1167
vn 0.1098 0.9871 0.1167
vn 0.1257 0.9792 -0.1594
vn -0.1257 0.9792 0.1594
vn -0.0000 -0.0000 1.0000
vt 0.802074 0.955551
vt 0.801850 0.955551
vt 0.801764 0.955465
vt 0.801764 0.953941
vt 0.802074 0.953941
vt 0.793389 0.958081
vt 0.794650 0.958081
vt 0.794650 0.959895
vt 0.793985 0.960520
vt 0.793389 0.960520
vt 0.801764 0.958078
vt 0.801764 0.955638
vt 0.802074 0.958078
vt 0.802480 0.953941
vt 0.802480 0.955139
vt 0.802394 0.955225
vt 0.802170 0.955225
vt 0.802170 0.953941
vt 0.794762 0.962221
vt 0.794762 0.961252
vt 0.795313 0.960739
vt 0.797528 0.960740
vt 0.797528 0.962221
vt 0.802480 0.955311
vt 0.802480 0.958078
vt 0.802170 0.958078
vt 0.802466 0.955225
vt 0.801778 0.955551
vt 0.794587 0.962221
vt 0.794588 0.961175
vt 0.794675 0.961213
vt 0.794675 0.962221
vt 0.795245 0.960565
vt 0.795279 0.960652
vt 0.797528 0.960565
vt 0.797528 0.960652
vt 0.794020 0.960608
vt 0.793389 0.960608
vt 0.794055 0.960695
vt 0.793389 0.960695
vt 0.794738 0.959933
vt 0.794825 0.959971
vt 0.794738 0.958081
vt 0.794825 0.958081
vt 0.797528 0.959453
vt 0.796636 0.959453
vt 0.796135 0.959058
vt 0.796135 0.958081
vt 0.797528 0.958081
vt 0.796038 0.959105
vt 0.796038 0.958081
vt 0.795941 0.959152
vt 0.795941 0.958081
vt 0.796602 0.959550
vt 0.796568 0.959647
vt 0.797528 0.959550
vt 0.797528 0.959647
vt 0.793389 0.962221
vt 0.802887 0.960604
vt 0.802887 0.962214
vt 0.802576 0.962214
vt 0.802576 0.960690
vt 0.802663 0.960604
vt 0.801668 0.958081
vt 0.801668 0.960521
vt 0.801072 0.960521
vt 0.800407 0.959895
vt 0.800407 0.958081
vt 0.802576 0.958078
vt 0.802887 0.958078
vt 0.802576 0.960517
vt 0.802480 0.962214
vt 0.802170 0.962214
vt 0.802170 0.960930
vt 0.802394 0.960930
vt 0.802480 0.961016
vt 0.800294 0.962221
vt 0.799743 0.960739
vt 0.800294 0.961252
vt 0.802480 0.960844
vt 0.802466 0.960930
vt 0.802590 0.960604
vt 0.800469 0.962221
vt 0.800382 0.962221
vt 0.800382 0.961214
vt 0.800469 0.961175
vt 0.799778 0.960652
vt 0.799812 0.960565
vt 0.801668 0.960608
vt 0.801037 0.960608
vt 0.801668 0.960695
vt 0.801002 0.960695
vt 0.800319 0.959933
vt 0.800232 0.959971
vt 0.800319 0.958081
vt 0.800232 0.958081
vt 0.798922 0.958081
vt 0.798922 0.959058
vt 0.798421 0.959453
vt 0.799019 0.958081
vt 0.799019 0.959105
vt 0.799116 0.958081
vt 0.799116 0.959152
vt 0.798455 0.959550
vt 0.798488 0.959647
vt 0.801668 0.962221
vt 0.802074 0.960604
vt 0.802074 0.962214
vt 0.801764 0.962214
vt 0.801764 0.960690
vt 0.801850 0.960604
vt 0.793389 0.955642
vt 0.793985 0.955642
vt 0.794650 0.956267
vt 0.801764 0.960517
vt 0.803293 0.962214
vt 0.802983 0.962214
vt 0.802983 0.960930
vt 0.803206 0.960930
vt 0.803293 0.961016
vt 0.794762 0.953941
vt 0.797529 0.953941
vt 0.797528 0.955423
vt 0.795314 0.955423
vt 0.794762 0.954910
vt 0.802983 0.958078
vt 0.803293 0.958078
vt 0.803293 0.960844
vt 0.803279 0.960930
vt 0.801778 0.960604
vt 0.794588 0.953941
vt 0.794675 0.953941
vt 0.794675 0.954948
vt 0.794588 0.954987
vt 0.795279 0.955510
vt 0.795245 0.955597
vt 0.797528 0.955510
vt 0.797528 0.955597
vt 0.793389 0.955554
vt 0.794020 0.955554
vt 0.793389 0.955467
vt 0.794055 0.955467
vt 0.794738 0.956229
vt 0.794825 0.956191
vt 0.797528 0.956709
vt 0.796135 0.957104
vt 0.796636 0.956709
vt 0.796038 0.957057
vt 0.795941 0.957010
vt 0.796602 0.956612
vt 0.796568 0.956515
vt 0.797528 0.956612
vt 0.797528 0.956515
vt 0.793389 0.953941
vt 0.802887 0.955551
vt 0.802663 0.955551
vt 0.802576 0.955465
vt 0.802576 0.953941
vt 0.802887 0.953941
vt 0.800407 0.956267
vt 0.801072 0.955642
vt 0.801668 0.955642
vt 0.802576 0.955638
vt 0.803293 0.953941
vt 0.803293 0.955139
vt 0.803206 0.955225
vt 0.802983 0.955225
vt 0.802983 0.953941
vt 0.800295 0.953941
vt 0.800294 0.954910
vt 0.799743 0.955423
vt 0.803293 0.955312
vt 0.803279 0.955225
vt 0.802590 0.955551
vt 0.800469 0.953941
vt 0.800469 0.954987
vt 0.800382 0.954949
vt 0.800382 0.953941
vt 0.799812 0.955597
vt 0.799778 0.955510
vt 0.801037 0.955554
vt 0.801668 0.955554
vt 0.801002 0.955467
vt 0.801668 0.955467
vt 0.800319 0.956229
vt 0.800232 0.956191
vt 0.798421 0.956709
vt 0.798922 0.957104
vt 0.799019 0.957057
vt 0.799116 0.957010
vt 0.798455 0.956612
vt 0.798488 0.956515
vt 0.801668 0.953942
s 0
usemtl Atlas_Metallic
f 9/1/1 28/2/1 27/3/1 1/4/1 2/5/1
f 5/6/2 24/7/2 34/8/2 31/9/2 26/10/2
f 5/11/1 26/12/1 28/2/1 9/1/1 6/13/1
f 1/14/3 10/15/3 12/16/3 8/17/3 2/18/3
f 11/19/2 17/20/2 20/21/2 14/22/2 3/23/2
f 8/17/3 12/16/3 11/24/3 3/25/3 4/26/3
f 10/15/3 13/27/3 12/16/3
f 13/27/3 11/24/3 12/16/3
f 26/12/1 29/28/1 28/2/1
f 29/28/1 27/3/1 28/2/1
f 10/29/4 18/30/4 19/31/4 13/32/4
f 13/32/5 19/31/5 17/20/5 11/19/5
f 18/30/6 21/33/6 22/34/6 19/31/6
f 19/31/7 22/34/7 20/21/7 17/20/7
f 21/33/8 15/35/8 16/36/8 22/34/8
f 22/34/9 16/36/9 14/22/9 20/21/9
f 26/10/8 31/9/8 32/37/8 29/38/8
f 29/38/9 32/37/9 30/39/9 27/40/9
f 31/9/10 34/8/10 35/41/10 32/37/10
f 32/37/11 35/41/11 33/42/11 30/39/11
f 34/8/4 24/7/4 25/43/4 35/41/4
f 35/41/5 25/43/5 23/44/5 33/42/5
f 37/45/2 46/46/2 43/47/2 39/48/2 7/49/2
f 39/48/12 43/47/12 44/50/12 41/51/12
f 41/51/13 44/50/13 42/52/13 40/53/13
f 43/47/14 46/46/14 47/54/14 44/50/14
f 44/50/15 47/54/15 45/55/15 42/52/15
f 46/46/16 37/45/16 38/56/16 47/54/16
f 47/54/17 38/56/17 36/57/17 45/55/17
f 27/40/2 30/39/2 33/42/2 23/44/2 40/53/2 42/52/2 45/55/2 36/57/2 15/35/2 21/33/2 18/30/2 10/29/2 1/58/2
f 53/59/18 49/60/18 48/61/18 68/62/18 69/63/18
f 50/64/2 67/65/2 72/66/2 75/67/2 65/68/2
f 50/69/18 51/70/18 53/59/18 69/63/18 67/71/18
f 48/72/3 49/73/3 52/74/3 56/75/3 54/76/3
f 55/77/2 3/23/2 14/22/2 61/78/2 58/79/2
f 52/74/3 4/26/3 3/25/3 55/80/3 56/75/3
f 54/76/3 56/75/3 57/81/3
f 57/81/3 56/75/3 55/80/3
f 67/71/18 69/63/18 70/82/18
f 70/82/18 69/63/18 68/62/18
f 54/83/5 57/84/5 60/85/5 59/86/5
f 57/84/4 55/77/4 58/79/4 60/85/4
f 59/86/19 60/85/19 63/87/19 62/88/19
f 60/85/20 58/79/20 61/78/20 63/87/20
f 62/88/8 63/87/8 16/36/8 15/35/8
f 63/87/9 61/78/9 14/22/9 16/36/9
f 67/65/8 70/89/8 73/90/8 72/66/8
f 70/89/9 68/91/9 71/92/9 73/90/9
f 72/66/21 73/90/21 76/93/21 75/67/21
f 73/90/22 71/92/22 74/94/22 76/93/22
f 75/67/5 76/93/5 66/95/5 65/68/5
f 76/93/4 74/94/4 64/96/4 66/95/4
f 37/45/2 7/49/2 77/97/2 81/98/2 84/99/2
f 77/97/13 79/100/13 82/101/13 81/98/13
f 79/100/12 78/102/12 80/103/12 82/101/12
f 81/98/23 82/101/23 85/104/23 84/99/23
f 82/101/24 80/103/24 83/105/24 85/104/24
f 84/99/16 85/104/16 38/56/16 37/45/16
f 85/104/17 83/105/17 36/57/17 38/56/17
f 68/91/2 48/106/2 54/83/2 59/86/2 62/88/2 15/35/2 36/57/2 83/105/2 80/103/2 78/102/2 64/96/2 74/94/2 71/92/2
f 91/107/1 87/108/1 86/109/1 106/110/1 107/111/1
f 5/6/2 105/112/2 110/113/2 113/114/2 24/7/2
f 5/11/1 6/13/1 91/107/1 107/111/1 105/115/1
f 86/116/25 87/117/25 90/118/25 94/119/25 92/120/25
f 93/121/2 88/122/2 96/123/2 102/124/2 99/125/2
f 90/118/25 89/126/25 88/127/25 93/128/25 94/119/25
f 92/120/25 94/119/25 95/129/25
f 95/129/25 94/119/25 93/128/25
f 105/115/1 107/111/1 108/130/1
f 108/130/1 107/111/1 106/110/1
f 92/131/4 95/132/4 101/133/4 100/134/4
f 95/132/5 93/121/5 99/125/5 101/133/5
f 100/134/20 101/133/20 104/135/20 103/136/20
f 101/133/19 99/125/19 102/124/19 104/135/19
f 103/136/9 104/135/9 98/137/9 97/138/9
f 104/135/8 102/124/8 96/123/8 98/137/8
f 105/112/9 108/139/9 111/140/9 110/113/9
f 108/139/8 106/141/8 109/142/8 111/140/8
f 110/113/22 111/140/22 114/143/22 113/114/22
f 111/140/21 109/142/21 112/144/21 114/143/21
f 113/114/4 114/143/4 25/43/4 24/7/4
f 114/143/5 112/144/5 23/44/5 25/43/5
f 116/145/2 7/49/2 39/48/2 119/146/2 122/147/2
f 39/48/12 41/51/12 120/148/12 119/146/12
f 41/51/13 40/53/13 118/149/13 120/148/13
f 119/146/24 120/148/24 123/150/24 122/147/24
f 120/148/23 118/149/23 121/151/23 123/150/23
f 122/147/17 123/150/17 117/152/17 116/145/17
f 123/150/16 121/151/16 115/153/16 117/152/16
f 106/141/2 86/154/2 92/131/2 100/134/2 103/136/2 97/138/2 115/153/2 121/151/2 118/149/2 40/53/2 23/44/2 112/144/2 109/142/2
f 127/155/18 140/156/18 139/157/18 124/158/18 125/159/18
f 50/64/2 65/68/2 146/160/2 143/161/2 138/162/2
f 50/69/18 138/163/18 140/156/18 127/155/18 51/70/18
f 124/164/25 128/165/25 130/166/25 126/167/25 125/168/25
f 129/169/2 132/170/2 135/171/2 96/123/2 88/122/2
f 126/167/25 130/166/25 129/172/25 88/127/25 89/126/25
f 128/165/25 131/173/25 130/166/25
f 131/173/25 129/172/25 130/166/25
f 138/163/18 141/174/18 140/156/18
f 141/174/18 139/157/18 140/156/18
f 128/175/5 133/176/5 134/177/5 131/178/5
f 131/178/4 134/177/4 132/170/4 129/169/4
f 133/176/7 136/179/7 137/180/7 134/177/7
f 134/177/6 137/180/6 135/171/6 132/170/6
f 136/179/9 97/138/9 98/137/9 137/180/9
f 137/180/8 98/137/8 96/123/8 135/171/8
f 138/162/9 143/161/9 144/181/9 141/182/9
f 141/182/8 144/181/8 142/183/8 139/184/8
f 143/161/11 146/160/11 147/185/11 144/181/11
f 144/181/10 147/185/10 145/186/10 142/183/10
f 146/160/5 65/68/5 66/95/5 147/185/5
f 147/185/4 66/95/4 64/96/4 145/186/4
f 116/145/2 152/187/2 149/188/2 77/97/2 7/49/2
f 77/97/13 149/188/13 150/189/13 79/100/13
f 79/100/12 150/189/12 148/190/12 78/102/12
f 149/188/15 152/187/15 153/191/15 150/189/15
f 150/189/14 153/191/14 151/192/14 148/190/14
f 152/187/17 116/145/17 117/152/17 153/191/17
f 153/191/16 117/152/16 115/153/16 151/192/16
f 139/184/2 142/183/2 145/186/2 64/96/2 78/102/2 148/190/2 151/192/2 115/153/2 97/138/2 136/179/2 133/176/2 128/175/2 124/193/2
