# Blender 4.2.0
# www.blender.org
mtllib Floor_Medbay.mtl
o Floor_Medbay
v -2.000000 0.011334 2.000000
v -2.000000 -0.138666 2.000000
v -2.000000 0.011334 0.000000
v -2.000000 -0.138666 0.000000
v 0.000000 0.011334 2.000000
v 0.000000 -0.138666 2.000000
v -1.608367 0.011334 0.000000
v -1.800000 0.011334 2.000000
v -1.800000 -0.138666 2.000000
v -2.000000 0.011334 1.800000
v -2.000000 -0.138666 1.800000
v 0.000000 0.011334 1.608367
v -1.800000 0.011334 1.800000
v -0.900000 0.011334 2.000000
v -0.900000 -0.138666 2.000000
v -0.804183 0.011334 1.608367
v -1.608367 0.011334 0.804183
v -2.000000 0.011334 0.900000
v -2.000000 -0.138666 0.900000
v -0.804183 0.011334 0.804183
v 0.000000 0.021948 0.794381
v 0.000000 0.021948 0.000000
v -0.794381 0.021948 0.000000
v -1.539750 0.021948 0.000000
v -1.539750 0.021948 0.753422
v 0.000000 0.021948 1.539750
v -0.763590 0.021948 1.539750
v -0.763590 0.021948 0.753422
v 2.000000 0.011334 2.000000
v 2.000000 -0.138666 2.000000
v 2.000000 0.011334 0.000000
v 2.000000 -0.138666 0.000000
v 1.608367 0.011334 0.000000
v 1.800000 0.011334 2.000000
v 1.800000 -0.138666 2.000000
v 2.000000 0.011334 1.800000
v 2.000000 -0.138666 1.800000
v 1.800000 0.011334 1.800000
v 0.900000 0.011334 2.000000
v 0.900000 -0.138666 2.000000
v 0.804183 0.011334 1.608367
v 1.608367 0.011334 0.804183
v 2.000000 0.011334 0.900000
v 2.000000 -0.138666 0.900000
v 0.804183 0.011334 0.804183
v 0.794381 0.021948 0.000000
v 1.539750 0.021948 0.000000
v 1.539750 0.021948 0.753422
v 0.763590 0.021948 1.539750
v 0.763590 0.021948 0.753422
v -2.000000 0.011334 -2.000000
v -2.000000 -0.138666 -2.000000
v 0.000000 0.011334 -2.000000
v 0.000000 -0.138666 -2.000000
v -1.800000 0.011334 -2.000000
v -1.800000 -0.138666 -2.000000
v -2.000000 0.011334 -1.800000
v -2.000000 -0.138666 -1.800000
v 0.000000 0.011334 -1.608367
v -1.800000 0.011334 -1.800000
v -0.900000 0.011334 -2.000000
v -0.900000 -0.138666 -2.000000
v -0.804183 0.011334 -1.608367
v -1.608367 0.011334 -0.804183
v -2.000000 0.011334 -0.900000
v -2.000000 -0.138666 -0.900000
v -0.804183 0.011334 -0.804183
v 0.000000 0.021948 -0.794381
v -1.539750 0.021948 -0.753422
v 0.000000 0.021948 -1.539750
v -0.763590 0.021948 -1.539750
v -0.763590 0.021948 -0.753422
v 2.000000 0.011334 -2.000000
v 2.000000 -0.138666 -2.000000
v 1.800000 0.011334 -2.000000
v 1.800000 -0.138666 -2.000000
v 2.000000 0.011334 -1.800000
v 2.000000 -0.138666 -1.800000
v 1.800000 0.011334 -1.800000
v 0.900000 0.011334 -2.000000
v 0.900000 -0.138666 -2.000000
v 0.804183 0.011334 -1.608367
v 1.608367 0.011334 -0.804183
v 2.000000 0.011334 -0.900000
v 2.000000 -0.138666 -0.900000
v 0.804183 0.011334 -0.804183
v 1.539750 0.021948 -0.753422
v 0.763590 0.021948 -1.539750
v 0.763590 0.021948 -0.753422
vn -0.0000 -0.0000 1.0000
vn -1.0000 -0.0000 -0.0000
vn -0.1529 0.9882 -0.0000
vn -0.0000 1.0000 -0.0000
vn -0.0000 0.9788 0.2047
vn -0.0000 0.9882 0.1529
vn -0.2530 0.9675 -0.0000
vn 1.0000 -0.0000 -0.0000
vn 0.1529 0.9882 -0.0000
vn 0.2530 0.9675 -0.0000
vn -0.0000 -0.0000 -1.0000
vn -0.0000 0.9788 -0.2047
vn -0.0000 0.9882 -0.1529
vt 0.155334 0.062858
vt 0.155330 0.062821
vt 0.155332 0.062821
vt 0.155332 0.062825
vt 0.155338 0.062875
vt 0.155338 0.062858
vt 0.155341 0.062858
vt 0.155341 0.062875
vt 0.288496 0.073099
vt 0.288494 0.073100
vt 0.155336 0.062857
vt 0.155338 0.062856
vt 0.155332 0.062858
vt 0.155332 0.062842
vt 0.155338 0.062895
vt 0.155334 0.062858
vt 0.155338 0.062891
vt 0.155335 0.062858
vt 0.155336 0.062858
vt 0.155336 0.062856
vt 0.155335 0.062857
vt 0.155341 0.062891
vt 0.155341 0.062895
vt 0.155330 0.062858
vt 0.155332 0.062858
vt 0.288495 0.073096
vt 0.155337 0.062853
vt 0.288493 0.073100
vt 0.288494 0.073099
vt 0.288495 0.073091
vt 0.288496 0.073083
vt 0.288496 0.073091
s 0
usemtl Atlas
f 8/1/1 1/2/1 2/3/1 9/4/1
f 18/5/2 3/6/2 4/7/2 19/8/2
f 7/9/3 17/10/3 25/10/3 24/9/3
f 18/5/4 17/11/4 7/12/4 3/6/4
f 14/13/1 8/1/1 9/4/1 15/14/1
f 1/15/4 8/1/4 13/16/4 10/17/4
f 14/18/4 5/19/4 12/20/4 16/21/4
f 1/15/2 10/17/2 11/22/2 2/23/2
f 8/1/4 14/18/4 16/21/4 13/16/4
f 5/24/1 14/13/1 15/14/1 6/25/1
f 17/10/5 20/26/5 28/26/5 25/10/5
f 13/16/4 16/21/4 20/27/4 17/11/4
f 10/17/4 13/16/4 17/11/4 18/5/4
f 16/28/6 12/29/6 26/29/6 27/28/6
f 10/17/2 18/5/2 19/8/2 11/22/2
f 28/26/4 21/30/4 22/31/4 23/32/4
f 25/10/4 28/26/4 23/32/4 24/9/4
f 27/28/4 26/29/4 21/30/4 28/26/4
f 20/26/7 16/28/7 27/28/7 28/26/7
f 34/1/1 35/4/1 30/3/1 29/2/1
f 43/5/8 44/8/8 32/7/8 31/6/8
f 33/9/9 47/9/9 48/10/9 42/10/9
f 43/5/4 31/6/4 33/12/4 42/11/4
f 39/13/1 40/14/1 35/4/1 34/1/1
f 29/15/4 36/17/4 38/16/4 34/1/4
f 39/18/4 41/21/4 12/20/4 5/19/4
f 29/15/8 30/23/8 37/22/8 36/17/8
f 34/1/4 38/16/4 41/21/4 39/18/4
f 5/24/1 6/25/1 40/14/1 39/13/1
f 42/10/5 48/10/5 50/26/5 45/26/5
f 38/16/4 42/11/4 45/27/4 41/21/4
f 36/17/4 43/5/4 42/11/4 38/16/4
f 41/28/6 49/28/6 26/29/6 12/29/6
f 36/17/8 37/22/8 44/8/8 43/5/8
f 50/26/4 46/32/4 22/31/4 21/30/4
f 48/10/4 47/9/4 46/32/4 50/26/4
f 49/28/4 50/26/4 21/30/4 26/29/4
f 45/26/10 50/26/10 49/28/10 41/28/10
f 55/1/11 56/4/11 52/3/11 51/2/11
f 65/5/2 66/8/2 4/7/2 3/6/2
f 7/9/3 24/9/3 69/10/3 64/10/3
f 65/5/4 3/6/4 7/12/4 64/11/4
f 61/13/11 62/14/11 56/4/11 55/1/11
f 51/15/4 57/17/4 60/16/4 55/1/4
f 61/18/4 63/21/4 59/20/4 53/19/4
f 51/15/2 52/23/2 58/22/2 57/17/2
f 55/1/4 60/16/4 63/21/4 61/18/4
f 53/24/11 54/25/11 62/14/11 61/13/11
f 64/10/12 69/10/12 72/26/12 67/26/12
f 60/16/4 64/11/4 67/27/4 63/21/4
f 57/17/4 65/5/4 64/11/4 60/16/4
f 63/28/13 71/28/13 70/29/13 59/29/13
f 57/17/2 58/22/2 66/8/2 65/5/2
f 72/26/4 23/32/4 22/31/4 68/30/4
f 69/10/4 24/9/4 23/32/4 72/26/4
f 71/28/4 72/26/4 68/30/4 70/29/4
f 67/26/7 72/26/7 71/28/7 63/28/7
f 75/1/11 73/2/11 74/3/11 76/4/11
f 84/5/8 31/6/8 32/7/8 85/8/8
f 33/9/9 83/10/9 87/10/9 47/9/9
f 84/5/4 83/11/4 33/12/4 31/6/4
f 80/13/11 75/1/11 76/4/11 81/14/11
f 73/15/4 75/1/4 79/16/4 77/17/4
f 80/18/4 53/19/4 59/20/4 82/21/4
f 73/15/8 77/17/8 78/22/8 74/23/8
f 75/1/4 80/18/4 82/21/4 79/16/4
f 53/24/11 80/13/11 81/14/11 54/25/11
f 83/10/12 86/26/12 89/26/12 87/10/12
f 79/16/4 82/21/4 86/27/4 83/11/4
f 77/17/4 79/16/4 83/11/4 84/5/4
f 82/28/13 59/29/13 70/29/13 88/28/13
f 77/17/8 84/5/8 85/8/8 78/22/8
f 89/26/4 68/30/4 22/31/4 46/32/4
f 87/10/4 89/26/4 46/32/4 47/9/4
f 88/28/4 70/29/4 68/30/4 89/26/4
f 86/26/10 82/28/10 88/28/10 89/26/10
