# Blender 4.2.0
# www.blender.org
mtllib Hydroponics_Floor.mtl
o Hydroponics_Floor
v -2.000000 0.000000 2.000000
v -2.000000 0.000000 -2.000000
v -2.000000 -0.150000 2.000000
v -2.000000 -0.150000 -2.000000
v -1.400000 0.000000 -2.000000
v -1.400000 -0.150000 -2.000000
v -1.400000 0.000000 2.000000
v -1.400000 -0.150000 2.000000
v -2.000000 0.000000 -1.400000
v -2.000000 -0.150000 -1.400000
v -2.000000 0.000000 1.400000
v -2.000000 -0.150000 1.400000
v 2.000000 0.000000 2.000000
v 2.000000 0.000000 -2.000000
v 2.000000 -0.150000 2.000000
v 2.000000 -0.150000 -2.000000
v 1.400000 0.000000 -2.000000
v 1.400000 -0.150000 -2.000000
v 1.400000 0.000000 2.000000
v 1.400000 -0.150000 2.000000
v 2.000000 0.000000 -1.400000
v 2.000000 -0.150000 -1.400000
v 2.000000 0.000000 1.400000
v 2.000000 -0.150000 1.400000
v 0.000000 0.000000 2.000000
v 0.000000 -0.150000 2.000000
v 0.000000 0.000000 -2.000000
v 0.000000 -0.150000 -2.000000
v -2.000000 0.000000 0.000000
v -2.000000 -0.150000 0.000000
v 2.000000 0.000000 0.000000
v 2.000000 -0.150000 0.000000
v 0.000000 0.000000 0.000000
v -1.372884 0.000000 -1.372884
v -1.427116 0.000000 -1.427116
v -1.400000 -0.015717 -1.400000
v -1.372884 0.000000 1.372884
v -1.427116 0.000000 1.427116
v -1.400000 -0.015717 1.400000
v 1.372884 0.000000 -1.372884
v 1.427116 0.000000 -1.427116
v 1.400000 -0.015717 -1.400000
v 1.372884 0.000000 1.372884
v 1.427116 0.000000 1.427116
v 1.400000 -0.015717 1.400000
v 0.000000 0.000000 -1.427116
v 0.000000 0.000000 -1.372884
v 0.000000 -0.015717 -1.400000
v 0.000000 0.000000 1.372884
v 0.000000 0.000000 1.427116
v 0.000000 -0.015717 1.400000
v -1.427116 0.000000 0.000000
v -1.372884 0.000000 0.000000
v -1.400000 -0.015717 0.000000
v 1.372884 0.000000 0.000000
v 1.427116 0.000000 0.000000
v 1.400000 -0.015717 0.000000
vn -1.0000 -0.0000 -0.0000
vn -0.0000 -0.0000 1.0000
vn -0.0000 1.0000 -0.0000
vn -0.0000 -0.0000 -1.0000
vn 1.0000 -0.0000 -0.0000
vn -0.5015 0.8652 -0.0000
vn 0.5015 0.8652 -0.0000
vn -0.0000 0.8652 -0.5015
vn -0.0000 0.8652 0.5015
vt 0.915820 0.804598
vt 0.912029 0.826084
vt 0.912029 0.826084
vt 0.912001 0.832431
vt 0.848834 0.793223
vt 0.912029 0.826084
vt 0.912029 0.826084
vt 0.912028 0.826084
vt 0.912029 0.826084
vt 0.927168 0.810945
vt 0.925931 0.799542
vt 0.925931 0.799542
s 0
usemtl Atlas
f 9/1/1 2/1/1 4/1/1 10/1/1
f 7/1/2 1/1/2 3/1/2 8/1/2
f 26/1/2 20/1/2 19/1/2 25/1/2
f 9/2/3 52/2/3 35/3/3
f 33/4/3 47/4/3 34/4/3 53/4/3
f 2/1/4 5/1/4 6/1/4 4/1/4
f 56/5/3 23/5/3 31/5/3
f 52/5/3 29/5/3 11/5/3
f 29/1/1 9/1/1 10/1/1 30/1/1
f 1/1/1 11/1/1 12/1/1 3/1/1
f 19/5/3 50/5/3 25/5/3
f 49/4/3 33/4/3 53/4/3 37/4/3
f 21/1/5 22/1/5 16/1/5 14/1/5
f 19/1/2 20/1/2 15/1/2 13/1/2
f 55/4/3 40/4/3 47/4/3 33/4/3
f 14/1/4 16/1/4 18/1/4 17/1/4
f 31/1/5 32/1/5 22/1/5 21/1/5
f 13/1/5 15/1/5 24/1/5 23/1/5
f 46/5/3 17/5/3 27/5/3
f 27/1/4 28/1/4 6/1/4 5/1/4
f 17/1/4 18/1/4 28/1/4 27/1/4
f 56/2/3 21/2/3 41/3/3
f 25/5/3 50/5/3 7/5/3
f 50/2/3 19/2/3 44/3/3
f 8/1/2 26/1/2 25/1/2 7/1/2
f 13/2/3 23/2/3 44/6/3 19/2/3
f 23/1/5 24/1/5 32/1/5 31/1/5
f 43/4/3 55/4/3 33/4/3 49/4/3
f 11/1/1 29/1/1 30/1/1 12/1/1
f 41/2/3 17/2/3 46/2/3
f 11/2/3 38/7/3 52/2/3
f 46/5/3 27/5/3 5/5/3
f 23/2/3 56/2/3 44/3/3
f 31/5/3 21/5/3 56/5/3
f 9/2/3 35/8/3 5/2/3 2/2/3
f 1/2/3 7/2/3 38/6/3 11/2/3
f 7/2/3 50/2/3 38/3/3
f 21/2/3 14/2/3 17/2/3 41/9/3
f 29/5/3 52/5/3 9/5/3
f 53/10/6 34/10/6 36/10/6 54/10/6
f 54/11/7 36/11/7 35/11/7 52/11/7
f 56/11/6 41/11/6 42/11/6 57/11/6
f 57/10/7 42/10/7 40/10/7 55/10/7
f 47/10/8 40/10/8 42/10/8 48/10/8
f 48/11/9 42/11/9 41/11/9 46/11/9
f 50/11/8 44/11/8 45/11/8 51/11/8
f 51/10/9 45/10/9 43/10/9 49/10/9
f 34/10/8 47/10/8 48/10/8 36/10/8
f 36/11/9 48/11/9 46/11/9 35/12/9
f 38/11/8 50/11/8 51/11/8 39/11/8
f 39/10/9 51/10/9 49/10/9 37/10/9
f 37/10/6 53/10/6 54/10/6 39/10/6
f 39/11/7 54/11/7 52/11/7 38/12/7
f 44/11/6 56/11/6 57/11/6 45/11/6
f 45/10/7 57/10/7 55/10/7 43/10/7
f 5/2/3 35/7/3 46/2/3
