# Blender 4.2.0
# www.blender.org
mtllib Large_Monitor_Orange.mtl
o Large_Monitor_Orange
v -1.443837 0.880537 -0.023694
v -1.443837 2.628702 -0.379191
v -1.551865 0.749720 -0.124890
v -1.551865 2.709607 -0.523442
v 1.443837 0.880537 -0.023694
v 1.443837 2.628702 -0.379191
v 1.551865 0.749720 -0.124890
v 1.551865 2.709607 -0.523442
v -1.551865 0.774676 -0.002166
v -1.551865 2.734563 -0.400718
v 1.551865 2.734563 -0.400718
v 1.551865 0.774676 -0.002166
v -1.454214 0.870369 -0.021626
v -1.454214 2.638871 -0.381259
v 1.454214 2.638871 -0.381259
v 1.454214 0.870369 -0.021626
v -1.443837 0.876339 -0.044338
v -1.443837 2.624504 -0.399835
v 1.443837 2.624504 -0.399835
v 1.443837 0.876339 -0.044338
v -0.752318 0.897131 -0.368277
v 0.752318 0.897131 -0.368277
v -0.752318 0.810431 -0.357932
v 0.752318 0.810431 -0.357932
v -0.752318 0.740519 -0.305624
v 0.752318 0.740519 -0.305624
v -0.752318 0.706128 -0.225368
v 0.752318 0.706128 -0.225368
v -0.752318 0.716472 -0.138668
v 0.752318 0.716473 -0.138668
v -0.752318 0.768781 -0.068756
v 0.752318 0.768781 -0.068756
v -0.752318 1.040040 -0.177274
v 0.752318 1.040040 -0.177274
v -0.752318 1.029696 -0.263974
v 0.752318 1.029696 -0.263974
v -0.752318 0.977387 -0.333885
v 0.752318 0.977387 -0.333885
v -1.000000 -0.000160 0.461524
v -0.834508 0.084684 -0.120985
v -1.000000 -0.000160 -0.522727
v -0.834508 0.084684 -0.244910
v 1.000000 -0.000160 0.461524
v 0.834508 0.084684 -0.120985
v 1.000000 -0.000160 -0.522727
v 0.834508 0.084684 -0.244910
v -0.940039 0.084684 0.432016
v -0.940039 0.084684 -0.493219
v 0.940039 0.084684 -0.493219
v 0.940039 0.084684 0.432016
v -0.676900 0.780887 -0.120985
v -0.676900 0.780887 -0.244910
v 0.676900 0.780887 -0.244910
v 0.676900 0.780887 -0.120985
v -0.560855 -0.000000 0.334171
v -0.684683 0.000000 -0.188511
v -0.684683 0.486813 -0.188511
v 0.560855 -0.000000 0.334171
v 0.684683 0.000000 -0.188511
v 0.684683 0.486813 -0.188511
v -0.560855 0.318456 0.334171
v -0.603679 0.486813 0.153409
v 0.603679 0.486813 0.153409
v 0.560855 0.318456 0.334171
v 0.480259 0.459360 0.223909
v 0.257564 0.458975 0.223487
v 0.480247 0.373095 0.309002
v 0.257552 0.372710 0.308580
v 0.480358 0.432218 0.196393
v 0.257663 0.431833 0.195971
v 0.480346 0.345953 0.281487
v 0.257651 0.345568 0.281065
v -0.286469 0.361817 0.323438
v -0.222001 0.361622 0.322927
v -0.286978 0.465295 0.219678
v -0.222511 0.465100 0.219167
v -0.286830 0.328721 0.290434
v -0.222363 0.328526 0.289923
v -0.287340 0.432198 0.186673
v -0.222873 0.432004 0.186163
v -0.113987 0.361296 0.322072
v -0.049519 0.361101 0.321561
v -0.114496 0.464774 0.218311
v -0.050029 0.464579 0.217800
v -0.114348 0.328200 0.289067
v -0.049881 0.328005 0.288557
v -0.114858 0.431677 0.185307
v -0.050390 0.431483 0.184796
v -0.199843 0.361555 0.322752
v -0.135375 0.361361 0.322241
v -0.200352 0.465033 0.218991
v -0.135885 0.464838 0.218480
v -0.200204 0.328459 0.289748
v -0.135737 0.328264 0.289237
v -0.200714 0.431937 0.185987
v -0.136246 0.431742 0.185476
v -0.025039 0.361817 0.323438
v 0.039428 0.361622 0.322927
v -0.025549 0.465295 0.219678
v 0.038919 0.465100 0.219167
v -0.025401 0.328721 0.290434
v 0.039067 0.328526 0.289923
v -0.025910 0.432198 0.186673
v 0.038557 0.432004 0.186163
v 0.061587 0.361555 0.322752
v 0.126054 0.361361 0.322241
v 0.061077 0.465033 0.218991
v 0.125545 0.464838 0.218480
v 0.061225 0.328459 0.289748
v 0.125693 0.328264 0.289237
v 0.060716 0.431937 0.185987
v 0.125183 0.431742 0.185476
v -0.418385 0.437732 0.169026
v -0.418385 0.477603 0.208577
v -0.375312 0.429604 0.177219
v -0.375312 0.469475 0.216771
v -0.343781 0.407398 0.199605
v -0.343781 0.447268 0.239156
v -0.332239 0.377064 0.230184
v -0.332239 0.416934 0.269735
v -0.343781 0.346729 0.260763
v -0.343781 0.386599 0.300314
v -0.375312 0.324523 0.283148
v -0.375312 0.364393 0.322699
v -0.418385 0.316395 0.291342
v -0.418385 0.356265 0.330893
v -0.461457 0.324523 0.283148
v -0.461457 0.364393 0.322699
v -0.492989 0.346729 0.260763
v -0.492989 0.386599 0.300314
v -0.504530 0.377064 0.230184
v -0.504530 0.416934 0.269735
v -0.492989 0.407398 0.199605
v -0.492989 0.447268 0.239156
v -0.461457 0.429604 0.177219
v -0.461457 0.469475 0.216771
vn -1.0000 -0.0000 -0.0000
vn -0.0000 -0.1993 -0.9799
vn 1.0000 -0.0000 -0.0000
vn -0.0000 0.9799 -0.1993
vn -0.0000 -0.9799 0.1993
vn -0.0000 0.1993 0.9799
vn -0.0000 -0.1185 -0.9930
vn -0.0000 -0.3714 -0.9285
vn -0.0000 -0.5991 -0.8007
vn -0.0000 -0.9192 -0.3939
vn -0.0000 -0.9898 -0.1426
vn -0.0000 -0.9930 0.1185
vn -0.0000 -0.8007 0.5991
vn -0.0000 0.9930 -0.1185
vn -0.0000 0.8007 -0.5991
vn -0.0000 0.6184 -0.7859
vn -0.0000 0.3939 -0.9192
vn -0.8166 0.5771 -0.0000
vn -0.0000 0.3285 -0.9445
vn 0.8166 0.5771 -0.0000
vn -0.0000 0.3285 0.9445
vn -0.0000 -0.0000 1.0000
vn -0.0000 1.0000 -0.0000
vn -0.0000 -0.0000 -1.0000
vn 0.9753 0.2208 -0.0000
vn -0.9753 0.2208 -0.0000
vn -0.9731 -0.0000 0.2305
vn 0.9731 -0.0000 0.2305
vn -0.0000 0.7318 0.6816
vn -0.0026 0.7023 0.7119
vn -0.0001 -0.7119 0.7023
vn 0.0001 0.7119 -0.7023
vn 1.0000 0.0017 0.0019
vn -1.0000 -0.0017 -0.0019
vn 0.0077 0.7081 0.7061
vn -0.0035 0.7061 -0.7081
vn 0.0035 -0.7061 0.7081
vn -1.0000 0.0030 0.0079
vn 1.0000 -0.0030 -0.0079
vn -0.0000 0.7043 -0.7099
vn 0.2588 0.6803 -0.6858
vn 0.7071 0.4980 -0.5020
vn 0.8660 0.3521 -0.3550
vn 0.9659 0.1823 -0.1837
vn 0.9659 -0.1823 0.1837
vn 0.8660 -0.3521 0.3550
vn 0.7071 -0.4980 0.5020
vn 0.2588 -0.6803 0.6858
vn -0.0000 -0.7043 0.7099
vn -0.2588 -0.6803 0.6858
vn -0.7071 -0.4980 0.5020
vn -0.8660 -0.3521 0.3550
vn -0.9659 -0.1823 0.1837
vn -0.9659 0.1823 -0.1837
vn -0.8660 0.3521 -0.3550
vn -0.0000 0.7099 0.7043
vn -0.7071 0.4980 -0.5020
vn -0.2588 0.6803 -0.6858
vt 0.420022 0.079737
vt 0.420022 0.083012
vt 0.419817 0.083012
vt 0.419817 0.079737
vt 0.418872 0.081451
vt 0.415596 0.081451
vt 0.415596 0.076367
vt 0.418872 0.076367
vt 0.420022 0.076367
vt 0.420022 0.079643
vt 0.419817 0.079643
vt 0.419817 0.076367
vt 0.419561 0.081097
vt 0.419561 0.076367
vt 0.419596 0.076367
vt 0.419596 0.081097
vt 0.419468 0.076367
vt 0.419468 0.081451
vt 0.419263 0.081451
vt 0.419263 0.076367
vt 0.419170 0.076367
vt 0.419170 0.081451
vt 0.418965 0.081451
vt 0.418965 0.076367
vt 0.412387 0.081291
vt 0.415343 0.081291
vt 0.415503 0.081451
vt 0.412227 0.081451
vt 0.415343 0.076527
vt 0.412387 0.076527
vt 0.412227 0.076367
vt 0.415503 0.076367
vt 0.412404 0.081274
vt 0.415326 0.081274
vt 0.415326 0.076544
vt 0.412404 0.076544
vt 0.173288 0.528705
vt 0.176210 0.528705
vt 0.176210 0.533435
vt 0.173288 0.533435
vt 0.419689 0.084113
vt 0.419689 0.081190
vt 0.419724 0.081190
vt 0.419724 0.084113
vt 0.419689 0.081097
vt 0.419689 0.076367
vt 0.419724 0.076367
vt 0.419724 0.081097
vt 0.419596 0.081190
vt 0.419596 0.084113
vt 0.419561 0.084113
vt 0.419561 0.081190
vt 0.409307 0.552999
vt 0.409307 0.555464
vt 0.409164 0.555464
vt 0.409164 0.552999
vt 0.409021 0.555464
vt 0.409021 0.552999
vt 0.408878 0.555464
vt 0.408878 0.552999
vt 0.408735 0.555464
vt 0.408735 0.552999
vt 0.408592 0.555464
vt 0.408592 0.552999
vt 0.409736 0.552999
vt 0.409736 0.555464
vt 0.409593 0.555464
vt 0.409593 0.552999
vt 0.409450 0.555464
vt 0.409450 0.552999
vt 0.407718 0.552700
vt 0.407856 0.552737
vt 0.407856 0.553216
vt 0.407718 0.553253
vt 0.407580 0.552737
vt 0.407580 0.553216
vt 0.407479 0.552839
vt 0.407479 0.553115
vt 0.407442 0.552977
vt 0.405475 0.553180
vt 0.405613 0.553143
vt 0.405613 0.553696
vt 0.405475 0.553659
vt 0.405751 0.553180
vt 0.405751 0.553659
vt 0.405852 0.553281
vt 0.405852 0.553558
vt 0.405423 0.552839
vt 0.405386 0.552977
vt 0.405386 0.552700
vt 0.429442 0.083411
vt 0.429272 0.083362
vt 0.429272 0.081847
vt 0.429442 0.081798
vt 0.432065 0.079897
vt 0.431918 0.079799
vt 0.431918 0.076720
vt 0.432065 0.076621
vt 0.429008 0.081798
vt 0.429178 0.081847
vt 0.429178 0.083362
vt 0.429008 0.083411
vt 0.431918 0.079991
vt 0.432065 0.080089
vt 0.432065 0.083168
vt 0.431918 0.083267
vt 0.408832 0.548995
vt 0.408832 0.546261
vt 0.409972 0.546519
vt 0.409972 0.548737
vt 0.427655 0.081971
vt 0.427452 0.081971
vt 0.427045 0.081798
vt 0.428561 0.081798
vt 0.427452 0.084705
vt 0.427045 0.084878
vt 0.427655 0.084705
vt 0.428561 0.084878
vt 0.407349 0.551438
vt 0.407349 0.554172
vt 0.406208 0.553914
vt 0.406208 0.551696
vt 0.407442 0.551438
vt 0.407645 0.551438
vt 0.407645 0.552607
vt 0.407442 0.552607
vt 0.405386 0.551438
vt 0.405589 0.551438
vt 0.405589 0.552607
vt 0.405386 0.552607
vt 0.324866 0.078568
vt 0.327366 0.078568
vt 0.327366 0.080204
vt 0.324866 0.080204
vt 0.322366 0.073568
vt 0.324002 0.073568
vt 0.324866 0.074433
vt 0.324866 0.076068
vt 0.322366 0.076068
vt 0.322366 0.078568
vt 0.324002 0.081068
vt 0.322366 0.081068
vt 0.324866 0.081068
vt 0.324866 0.083568
vt 0.324002 0.083568
vt 0.322366 0.083568
vt 0.422119 0.720961
vt 0.422119 0.721740
vt 0.421694 0.721740
vt 0.421694 0.720961
vt 0.421830 0.721836
vt 0.421830 0.722615
vt 0.421694 0.722615
vt 0.421694 0.721836
vt 0.419632 0.723280
vt 0.419632 0.724060
vt 0.419497 0.724060
vt 0.419497 0.723280
vt 0.424010 0.721759
vt 0.424145 0.721759
vt 0.424145 0.722184
vt 0.424010 0.722184
vt 0.424010 0.722279
vt 0.424145 0.722279
vt 0.424145 0.722703
vt 0.424010 0.722703
vt 0.430173 0.836788
vt 0.430360 0.836788
vt 0.430360 0.837212
vt 0.430173 0.837212
vt 0.430404 0.841131
vt 0.430404 0.840944
vt 0.430539 0.840944
vt 0.430539 0.841131
vt 0.431000 0.837827
vt 0.431000 0.838014
vt 0.430865 0.838014
vt 0.430865 0.837827
vt 0.430634 0.837827
vt 0.430770 0.837827
vt 0.430770 0.838251
vt 0.430634 0.838251
vt 0.430539 0.840330
vt 0.430404 0.840330
vt 0.430404 0.839905
vt 0.430539 0.839905
vt 0.430455 0.835055
vt 0.430642 0.835055
vt 0.430642 0.835479
vt 0.430455 0.835479
vt 0.427555 0.840837
vt 0.427555 0.841024
vt 0.427419 0.841024
vt 0.427419 0.840837
vt 0.430821 0.832081
vt 0.430821 0.832267
vt 0.430686 0.832267
vt 0.430686 0.832081
vt 0.430455 0.836788
vt 0.430590 0.836788
vt 0.430590 0.837212
vt 0.430455 0.837212
vt 0.430173 0.838347
vt 0.430308 0.838347
vt 0.430308 0.838771
vt 0.430173 0.838771
vt 0.430455 0.835575
vt 0.430642 0.835575
vt 0.430642 0.835999
vt 0.430455 0.835999
vt 0.430737 0.835242
vt 0.430737 0.835055
vt 0.430872 0.835055
vt 0.430872 0.835242
vt 0.430872 0.836268
vt 0.430872 0.836455
vt 0.430737 0.836455
vt 0.430737 0.836268
vt 0.430686 0.831561
vt 0.430821 0.831561
vt 0.430821 0.831985
vt 0.430686 0.831985
vt 0.430173 0.838866
vt 0.430308 0.838866
vt 0.430308 0.839290
vt 0.430173 0.839290
vt 0.828739 0.674086
vt 0.832331 0.672793
vt 0.830172 0.681319
vt 0.827530 0.679243
vt 0.826697 0.688456
vt 0.825585 0.683720
vt 0.822673 0.692463
vt 0.823399 0.686686
vt 0.819240 0.691638
vt 0.821731 0.685350
vt 0.817237 0.686819
vt 0.820725 0.682133
vt 0.817083 0.679235
vt 0.820737 0.677479
vt 0.818858 0.670395
vt 0.821823 0.672283
vt 0.822379 0.661950
vt 0.823779 0.667676
vt 0.827290 0.655664
vt 0.826117 0.664963
vt 0.831062 0.658348
vt 0.827994 0.665960
vt 0.808975 0.664212
vt 0.800793 0.664802
vt 0.793411 0.661222
vt 0.788809 0.654432
vt 0.788218 0.646249
vt 0.791798 0.638867
vt 0.798589 0.634265
vt 0.806771 0.633674
vt 0.814153 0.637254
vt 0.818755 0.644045
vt 0.819346 0.652228
vt 0.815766 0.659609
vt 0.832705 0.664592
vt 0.828917 0.669288
s 1
usemtl Atlas
f 9/1/1 10/2/1 4/3/1 3/4/1
f 3/5/2 4/6/2 8/7/2 7/8/2
f 7/9/3 8/10/3 11/11/3 12/12/3
f 1/13/4 5/14/4 20/15/4 17/16/4
f 3/17/5 7/18/5 12/19/5 9/20/5
f 8/21/4 4/22/4 10/23/4 11/24/4
f 13/25/6 14/26/6 10/27/6 9/28/6
f 15/29/6 16/30/6 12/31/6 11/32/6
f 16/30/6 13/25/6 9/28/6 12/31/6
f 14/26/6 15/29/6 11/32/6 10/27/6
f 1/33/6 2/34/6 14/26/6 13/25/6
f 6/35/6 5/36/6 16/30/6 15/29/6
f 5/36/6 1/33/6 13/25/6 16/30/6
f 2/34/6 6/35/6 15/29/6 14/26/6
f 2/41/3 1/42/3 17/43/3 18/44/3
f 6/45/5 2/46/5 18/47/5 19/48/5
f 5/49/1 6/50/1 19/51/1 20/52/1
f 21/53/7 22/54/7 24/55/8 23/56/8
f 23/56/8 24/55/8 26/57/9 25/58/9
f 25/58/10 26/57/10 28/59/11 27/60/11
f 27/60/11 28/59/11 30/61/12 29/62/12
f 29/62/13 30/61/13 32/63/13 31/64/13
f 33/65/14 34/66/14 36/67/14 35/68/14
f 35/68/15 36/67/15 38/69/16 37/70/16
f 37/70/16 38/69/16 22/54/17 21/53/17
f 29/71/1 31/72/1 33/73/1 35/74/1
f 27/75/1 29/71/1 35/74/1 37/76/1
f 25/77/1 27/75/1 37/76/1 21/78/1
f 21/78/1 23/79/1 25/77/1
f 32/80/3 30/81/3 36/82/3 34/83/3
f 30/81/3 28/84/3 38/85/3 36/82/3
f 28/84/3 26/86/3 22/87/3 38/85/3
f 24/88/3 22/89/3 26/90/3
f 39/91/18 47/92/18 48/93/18 41/94/18
f 41/95/19 48/96/19 49/97/19 45/98/19
f 45/99/20 49/100/20 50/101/20 43/102/20
f 43/103/21 50/104/21 47/105/21 39/106/21
f 40/107/22 44/108/22 54/109/22 51/110/22
f 40/111/23 42/112/23 48/113/23 47/114/23
f 42/112/23 46/115/23 49/116/23 48/113/23
f 46/115/23 44/117/23 50/118/23 49/116/23
f 44/117/23 40/111/23 47/114/23 50/118/23
f 46/119/24 42/120/24 52/121/24 53/122/24
f 44/123/25 46/124/25 53/125/25 54/126/25
f 42/127/26 40/128/26 51/129/26 52/130/26
f 60/131/23 57/132/23 62/133/23 63/134/23
f 55/135/27 61/136/27 62/137/27 57/138/27 56/139/27
f 59/140/28 60/131/28 63/134/28 64/141/28 58/142/28
f 63/143/29 62/144/29 61/145/29 64/141/29
f 58/142/22 64/141/22 61/145/22 55/146/22
f 73/167/35 74/168/35 76/169/35 75/170/35
f 75/171/36 76/172/36 80/173/36 79/174/36
f 77/175/37 78/176/37 74/177/37 73/178/37
f 75/179/38 79/180/38 77/181/38 73/182/38
f 80/183/39 76/184/39 74/185/39 78/186/39
f 81/187/35 82/188/35 84/189/35 83/190/35
f 83/191/36 84/192/36 88/193/36 87/194/36
f 85/195/37 86/196/37 82/197/37 81/198/37
f 83/199/38 87/200/38 85/201/38 81/202/38
f 88/203/39 84/204/39 82/205/39 86/206/39
f 89/207/35 90/208/35 92/209/35 91/210/35
f 91/211/36 92/212/36 96/213/36 95/214/36
f 93/215/37 94/216/37 90/217/37 89/218/37
f 91/219/38 95/220/38 93/221/38 89/222/38
f 96/223/39 92/224/39 90/225/39 94/226/39
f 105/207/35 106/208/35 108/209/35 107/210/35
f 107/211/36 108/212/36 112/213/36 111/214/36
f 109/215/37 110/216/37 106/217/37 105/218/37
f 107/219/38 111/220/38 109/221/38 105/222/38
f 112/223/39 108/224/39 106/225/39 110/226/39
usemtl Atlas_Emissive
f 20/37/6 19/38/6 18/39/6 17/40/6
f 65/147/30 66/148/30 68/149/30 67/150/30
f 67/151/31 68/152/31 72/153/31 71/154/31
f 69/155/32 70/156/32 66/157/32 65/158/32
f 67/159/33 71/160/33 69/161/33 65/162/33
f 72/163/34 68/164/34 66/165/34 70/166/34
f 97/167/35 98/168/35 100/169/35 99/170/35
f 99/171/36 100/172/36 104/173/36 103/174/36
f 101/175/37 102/176/37 98/177/37 97/178/37
f 99/179/38 103/180/38 101/181/38 97/182/38
f 104/183/39 100/184/39 98/185/39 102/186/39
f 113/227/40 114/228/40 116/229/41 115/230/41
f 115/230/42 116/229/42 118/231/43 117/232/43
f 117/232/43 118/231/43 120/233/44 119/234/44
f 119/234/45 120/233/45 122/235/46 121/236/46
f 121/236/46 122/235/46 124/237/47 123/238/47
f 123/238/48 124/237/48 126/239/49 125/240/49
f 125/240/49 126/239/49 128/241/50 127/242/50
f 127/242/51 128/241/51 130/243/52 129/244/52
f 129/244/52 130/243/52 132/245/53 131/246/53
f 131/246/54 132/245/54 134/247/55 133/248/55
f 116/249/56 114/250/56 136/251/56 134/252/56 132/253/56 130/254/56 128/255/56 126/256/56 124/257/56 122/258/56 120/259/56 118/260/56
f 133/248/55 134/247/55 136/261/57 135/262/57
f 135/262/58 136/261/58 114/228/40 113/227/40
