# Blender 4.2.0
# www.blender.org
mtllib Meeting_Table.mtl
o Meeting_Table
v -1.811243 0.921064 1.182887
v -1.811243 0.921064 -1.182887
v 1.811243 0.921064 1.182887
v 1.811243 0.921064 -1.182887
v -1.944148 0.769275 1.269685
v -1.944148 0.769275 -1.269685
v 1.944148 0.769275 1.269685
v 1.944148 0.769275 -1.269685
v -1.182129 0.689434 0.108258
v -1.182129 0.689434 -0.108258
v 1.182129 0.689434 -0.108258
v 1.182129 0.689434 0.108258
v -1.797763 0.689434 1.174083
v -1.797763 0.689434 -1.174083
v 1.797763 0.689434 -1.174083
v 1.797763 0.689434 1.174083
v -1.182129 -0.013169 0.108258
v -1.182129 -0.013169 -0.108258
v 1.182129 -0.013169 -0.108258
v 1.182129 -0.013169 0.108258
v -2.807682 0.921064 0.000000
v 2.807682 0.921064 0.000000
v -3.013705 0.769275 0.000000
v 3.013705 0.769275 0.000000
v -2.786787 0.689434 0.000000
v 2.786787 0.689434 0.000000
v -1.214925 0.689434 0.000000
v 1.214925 0.689434 0.000000
v -1.214925 -0.013169 0.000000
v 1.214925 -0.013169 0.000000
vn -0.0000 1.0000 -0.0000
vn -0.0000 -0.7675 0.6410
vn -0.5306 0.7202 -0.4470
vn 0.5306 0.7202 0.4470
vn -0.0000 0.4964 0.8681
vn -0.0000 0.4964 -0.8681
vn -0.0000 -0.0000 -1.0000
vn -0.3196 -0.9085 -0.2693
vn -0.0000 -0.7675 -0.6410
vn 0.3196 -0.9085 0.2693
vn -0.0000 -1.0000 -0.0000
vn 0.9570 -0.0000 0.2899
vn -0.0000 -0.0000 1.0000
vn -0.9570 -0.0000 -0.2899
vn -0.9570 -0.0000 0.2899
vn 0.9570 -0.0000 -0.2899
vn 0.3196 -0.9085 -0.2693
vn -0.3196 -0.9085 0.2693
vn 0.5306 0.7202 -0.4470
vn -0.5306 0.7202 0.4470
vt 0.314012 0.960687
vt 0.315391 0.960687
vt 0.315391 0.961377
vt 0.314012 0.961377
vt 0.418468 0.958475
vt 0.418468 0.959956
vt 0.418360 0.959900
vt 0.418360 0.958530
vt 0.417683 0.959215
vt 0.417683 0.958525
vt 0.417868 0.958475
vt 0.417868 0.959215
vt 0.418318 0.959215
vt 0.418318 0.959905
vt 0.418134 0.959956
vt 0.418134 0.959215
vt 0.418093 0.958525
vt 0.418093 0.959905
vt 0.417909 0.959956
vt 0.417909 0.958475
vt 0.417458 0.959905
vt 0.417458 0.958525
vt 0.417642 0.958475
vt 0.417642 0.959956
vt 0.418959 0.962319
vt 0.418959 0.961418
vt 0.419778 0.961418
vt 0.419778 0.962319
vt 0.418659 0.959215
vt 0.418659 0.958475
vt 0.418768 0.958530
vt 0.418768 0.959215
vt 0.418809 0.959956
vt 0.418809 0.958475
vt 0.418917 0.958530
vt 0.418917 0.959900
vt 0.418618 0.959215
vt 0.418618 0.959956
vt 0.418509 0.959900
vt 0.418509 0.959215
vt 0.419150 0.928615
vt 0.419150 0.928678
vt 0.418916 0.929299
vt 0.418916 0.928615
vt 0.420051 0.928615
vt 0.420051 0.928551
vt 0.420285 0.927930
vt 0.420285 0.928615
vt 0.420051 0.928678
vt 0.420285 0.929299
vt 0.419150 0.928551
vt 0.418916 0.927930
vt 0.420944 0.962238
vt 0.420880 0.962238
vt 0.420880 0.961418
vt 0.420944 0.961418
vt 0.419819 0.962319
vt 0.419819 0.961418
vt 0.420639 0.961418
vt 0.420639 0.962319
vt 0.418746 0.962227
vt 0.418683 0.962227
vt 0.418683 0.961408
vt 0.418746 0.961408
vt 0.418809 0.962227
vt 0.418809 0.961408
vt 0.421007 0.962238
vt 0.421007 0.961418
vt 0.418618 0.958475
vt 0.418509 0.958530
vt 0.418659 0.959956
vt 0.418768 0.959900
vt 0.418318 0.958525
vt 0.418134 0.958475
vt 0.417683 0.959905
vt 0.417868 0.959956
vt 0.314012 0.959997
vt 0.315391 0.959997
s 0
usemtl Atlas
f 21/1/1 22/2/1 4/3/1 2/4/1
f 7/5/2 5/6/2 13/7/2 16/8/2
f 21/9/3 2/10/3 6/11/3 23/12/3
f 22/13/4 3/14/4 7/15/4 24/16/4
f 3/17/5 1/18/5 5/19/5 7/20/5
f 2/21/6 4/22/6 8/23/6 6/24/6
f 10/25/7 11/26/7 19/27/7 18/28/7
f 23/29/8 6/30/8 14/31/8 25/32/8
f 6/33/9 8/34/9 15/35/9 14/36/9
f 24/37/10 7/38/10 16/39/10 26/40/10
f 27/41/11 9/42/11 13/43/11 25/44/11
f 28/45/11 11/46/11 15/47/11 26/48/11
f 9/42/11 12/49/11 16/50/11 13/43/11
f 11/46/11 10/51/11 14/52/11 15/47/11
f 28/53/12 12/54/12 20/55/12 30/56/12
f 12/57/13 9/58/13 17/59/13 20/60/13
f 27/61/14 10/62/14 18/63/14 29/64/14
f 9/65/15 27/61/15 29/64/15 17/66/15
f 11/67/16 28/53/16 30/56/16 19/68/16
f 12/49/11 28/45/11 26/48/11 16/50/11
f 10/51/11 27/41/11 25/44/11 14/52/11
f 8/69/17 24/37/17 26/40/17 15/70/17
f 5/71/18 23/29/18 25/32/18 13/72/18
f 4/73/19 22/13/19 24/16/19 8/74/19
f 1/75/20 21/9/20 23/12/20 5/76/20
f 1/77/1 3/78/1 22/2/1 21/1/1
