# Blender 4.2.0
# www.blender.org
mtllib Railing_Ramp.mtl
o Railing_Ramp
v -0.052857 1.544766 1.857117
v -0.052857 1.592850 1.857117
v -0.086857 1.568808 1.833076
v -0.052857 5.203283 -1.753315
v -0.052857 5.203283 -1.801398
v -0.086857 5.179241 -1.777357
v -0.052857 1.470015 1.782366
v -0.086857 1.494057 1.758325
v -0.052857 1.470015 1.734283
v -0.052857 5.128531 -1.876150
v -0.052857 5.080448 -1.876150
v -0.086857 5.104489 -1.852108
v 0.052857 1.544766 1.857117
v 0.086857 1.568808 1.833076
v 0.052857 1.592850 1.857117
v 0.052857 5.203283 -1.801398
v 0.052857 5.203283 -1.753315
v 0.086857 5.179241 -1.777357
v 0.052857 1.470015 1.782366
v 0.052857 1.470015 1.734283
v 0.086857 1.494057 1.758325
v 0.052857 5.128531 -1.876150
v 0.086857 5.104489 -1.852108
v 0.052857 5.080448 -1.876150
v -0.038961 1.985433 -0.037903
v -0.072961 2.019666 -0.071903
v -0.072961 3.301216 -0.071903
v -0.038961 3.268296 -0.037903
v -0.072961 2.126106 -0.177618
v -0.038961 2.160339 -0.211618
v -0.038961 3.436493 -0.211618
v -0.072961 3.403573 -0.177618
v 0.072961 2.019666 -0.071903
v 0.038961 1.985433 -0.037903
v 0.038961 3.268296 -0.037903
v 0.072961 3.301216 -0.071903
v 0.038961 2.160339 -0.211618
v 0.072961 2.126106 -0.177618
v 0.072961 3.403573 -0.177618
v 0.038961 3.436493 -0.211618
v -0.038961 0.278455 1.702577
v -0.072961 0.312688 1.668577
v -0.072961 1.553015 1.668577
v -0.038961 1.520095 1.702577
v -0.072961 0.419127 1.562863
v -0.038961 0.453361 1.528863
v -0.038961 1.688293 1.528863
v -0.072961 1.655372 1.562863
v 0.072961 0.312688 1.668577
v 0.038961 0.278455 1.702577
v 0.038961 1.520095 1.702577
v 0.072961 1.553015 1.668577
v 0.038961 0.453361 1.528863
v 0.072961 0.419127 1.562863
v 0.072961 1.655372 1.562863
v 0.038961 1.688293 1.528863
v -0.038961 3.329838 -1.394586
v -0.072961 3.364071 -1.428586
v -0.072961 4.665395 -1.428586
v -0.038961 4.632475 -1.394586
v -0.072961 3.470510 -1.534300
v -0.038961 3.504743 -1.568300
v -0.038961 4.800672 -1.568300
v -0.072961 4.767752 -1.534300
v 0.072961 3.364071 -1.428586
v 0.038961 3.329838 -1.394586
v 0.038961 4.632475 -1.394586
v 0.072961 4.665395 -1.428586
v 0.038961 3.504743 -1.568300
v 0.072961 3.470510 -1.534300
v 0.072961 4.767752 -1.534300
v 0.038961 4.800672 -1.568300
vn -0.0000 0.7071 0.7071
vn 1.0000 -0.0000 -0.0000
vn -1.0000 -0.0000 -0.0000
vn -0.0000 0.7071 -0.7071
vn -0.0000 -0.7071 -0.7071
vn -0.0000 -0.0000 1.0000
vn -0.0000 -0.0000 -1.0000
vn -0.5774 -0.0000 0.8165
vn -0.5773 0.8165 -0.0000
vn -0.5774 -0.8165 -0.0000
vn -0.5774 -0.0000 -0.8165
vn 0.5774 -0.0000 0.8165
vn 0.5773 0.8165 -0.0000
vn 0.5774 -0.8165 -0.0000
vn 0.5774 -0.0000 -0.8165
vn -0.7071 -0.5000 0.5000
vn -0.7071 0.5000 0.5000
vn -0.7071 0.5000 -0.5000
vn -0.7071 -0.5000 -0.5000
vn -0.0000 -1.0000 -0.0000
vn 0.7071 -0.5000 -0.5000
vn 0.7071 -0.5000 0.5000
vn 0.7071 0.5000 -0.5000
vn 0.7071 0.5000 0.5000
vn -0.0000 1.0000 -0.0000
vn -0.7071 -0.0000 0.7071
vn -0.7071 -0.0000 -0.7071
vn 0.7071 -0.0000 -0.7071
vn 0.7071 -0.0000 0.7071
vn -0.0000 -0.7071 0.7071
vt 0.705606 0.926563
vt 0.705607 0.936334
vt 0.705404 0.936334
vt 0.705404 0.926563
vt 0.705175 0.926563
vt 0.705175 0.936334
vt 0.704972 0.936334
vt 0.704973 0.926564
vt 0.707765 0.926564
vt 0.707765 0.929016
vt 0.707562 0.929212
vt 0.707562 0.926768
vt 0.707333 0.929642
vt 0.707131 0.929642
vt 0.707131 0.929439
vt 0.707333 0.929439
vt 0.704743 0.926563
vt 0.704743 0.936334
vt 0.704541 0.936334
vt 0.704541 0.926563
vt 0.706038 0.926563
vt 0.706038 0.936334
vt 0.705836 0.936334
vt 0.705836 0.926563
vt 0.709385 0.929078
vt 0.709385 0.931532
vt 0.709235 0.931532
vt 0.709236 0.929078
vt 0.707333 0.926768
vt 0.707333 0.929212
vt 0.707131 0.929016
vt 0.707131 0.926564
vt 0.708628 0.926564
vt 0.708628 0.928937
vt 0.708425 0.929133
vt 0.708425 0.926768
vt 0.709006 0.929090
vt 0.709006 0.931532
vt 0.708857 0.931532
vt 0.708857 0.929090
vt 0.708628 0.929295
vt 0.708628 0.931671
vt 0.708479 0.931671
vt 0.708479 0.929295
vt 0.708196 0.926768
vt 0.708196 0.929133
vt 0.707994 0.928937
vt 0.707994 0.926564
vt 0.706470 0.926564
vt 0.706470 0.929054
vt 0.706267 0.929250
vt 0.706267 0.926768
vt 0.708143 0.929295
vt 0.708143 0.931659
vt 0.707994 0.931659
vt 0.707994 0.929295
vt 0.709006 0.926498
vt 0.709006 0.928991
vt 0.708857 0.928991
vt 0.708857 0.926498
vt 0.706901 0.926768
vt 0.706901 0.929250
vt 0.706699 0.929054
vt 0.706699 0.926564
vt 0.709385 0.926498
vt 0.709385 0.928978
vt 0.709236 0.928978
vt 0.709235 0.926498
vt 0.706901 0.929477
vt 0.706901 0.929412
vt 0.706966 0.929477
vt 0.707131 0.929374
vt 0.707066 0.929439
vt 0.706901 0.929680
vt 0.706966 0.929680
vt 0.706901 0.929745
vt 0.707131 0.929707
vt 0.707066 0.929642
vt 0.706699 0.929477
vt 0.706634 0.929477
vt 0.706699 0.929412
vt 0.707333 0.929374
vt 0.707398 0.929439
vt 0.706699 0.929680
vt 0.706699 0.929745
vt 0.706634 0.929680
vt 0.707398 0.929642
vt 0.707333 0.929707
vt 0.706699 0.929412
vt 0.709450 0.929143
vt 0.709450 0.931532
vt 0.706202 0.929313
vt 0.706202 0.926833
s 0
usemtl Atlas_Metallic
f 15/1/1 17/2/1 4/3/1 2/4/1
f 21/5/2 23/6/2 18/7/2 14/8/2
f 26/9/3 27/10/3 32/11/3 29/12/3
f 22/13/4 10/14/4 5/15/4 16/16/4
f 9/17/5 11/18/5 24/19/5 20/20/5
f 3/21/3 6/22/3 12/23/3 8/24/3
f 34/25/6 35/26/6 28/27/6 25/28/6
f 38/29/2 39/30/2 36/31/2 33/32/2
f 42/33/3 43/34/3 48/35/3 45/36/3
f 30/37/7 31/38/7 40/39/7 37/40/7
f 50/41/6 51/42/6 44/43/6 41/44/6
f 54/45/2 55/46/2 52/47/2 49/48/2
f 58/49/3 59/50/3 64/51/3 61/52/3
f 46/53/7 47/54/7 56/55/7 53/56/7
f 66/57/6 67/58/6 60/59/6 57/60/6
f 70/61/2 71/62/2 68/63/2 65/64/2
f 62/65/7 63/66/7 72/67/7 69/68/7
f 1/69/8 2/70/8 3/71/8
f 4/72/9 5/15/9 6/73/9
f 7/74/10 8/75/10 9/76/10
f 10/14/11 11/77/11 12/78/11
f 13/79/12 14/80/12 15/81/12
f 16/16/13 17/82/13 18/83/13
f 19/84/14 20/85/14 21/86/14
f 22/13/15 23/87/15 24/88/15
f 7/74/16 1/69/16 3/71/16 8/75/16
f 2/4/17 4/3/17 6/22/17 3/21/17
f 5/15/18 10/14/18 12/78/18 6/73/18
f 11/18/19 9/17/19 8/24/19 12/23/19
f 19/84/20 7/74/20 9/76/20 20/85/20
f 10/14/7 22/13/7 24/88/7 11/77/7
f 23/6/21 21/5/21 20/20/21 24/19/21
f 13/79/22 19/84/22 21/86/22 14/80/22
f 22/13/23 16/16/23 18/83/23 23/87/23
f 17/2/24 15/1/24 14/8/24 18/7/24
f 1/69/6 13/79/6 15/89/6 2/70/6
f 16/16/25 5/15/25 4/72/25 17/82/25
f 25/28/26 28/27/26 27/10/26 26/9/26
f 31/38/27 30/37/27 29/12/27 32/11/27
f 39/30/28 38/29/28 37/40/28 40/39/28
f 35/26/29 34/25/29 33/90/29 36/91/29
f 41/44/26 44/43/26 43/34/26 42/33/26
f 47/54/27 46/53/27 45/36/27 48/35/27
f 55/46/28 54/45/28 53/56/28 56/55/28
f 51/42/29 50/41/29 49/48/29 52/47/29
f 57/60/26 60/59/26 59/50/26 58/49/26
f 63/92/27 62/93/27 61/52/27 64/51/27
f 71/62/28 70/61/28 69/68/28 72/67/28
f 67/58/29 66/57/29 65/64/29 68/63/29
f 7/74/30 19/84/30 13/79/30 1/69/30
