# Blender 4.2.0
# www.blender.org
mtllib Railing_Flat.mtl
o Railing_Flat
v -1.333610 -0.036295 0.040378
v -1.367610 -0.036295 0.074378
v -1.367610 1.012952 0.074378
v -1.333610 1.012952 0.040378
v -1.473324 -0.036295 0.074378
v -1.507324 -0.036295 0.040378
v -1.507324 1.012952 0.040378
v -1.473324 1.012952 0.074378
v -1.367610 -0.036295 -0.071544
v -1.333610 -0.036295 -0.037544
v -1.333610 1.012952 -0.037544
v -1.367610 1.012952 -0.071544
v -1.507324 -0.036295 -0.037544
v -1.473324 -0.036295 -0.071544
v -1.473324 1.012952 -0.071544
v -1.507324 1.012952 -0.037544
v 0.076950 -0.036295 0.040378
v 0.042950 -0.036295 0.074378
v 0.042950 1.012952 0.074378
v 0.076950 1.012952 0.040378
v -0.062764 -0.036295 0.074378
v -0.096764 -0.036295 0.040378
v -0.096764 1.012952 0.040378
v -0.062764 1.012952 0.074378
v 0.042950 -0.036295 -0.071544
v 0.076950 -0.036295 -0.037544
v 0.076950 1.012952 -0.037544
v 0.042950 1.012952 -0.071544
v -0.096764 -0.036295 -0.037544
v -0.062764 -0.036295 -0.071544
v -0.062764 1.012952 -0.071544
v -0.096764 1.012952 -0.037544
v 1.487510 -0.036295 0.040378
v 1.453510 -0.036295 0.074378
v 1.453510 1.012952 0.074378
v 1.487510 1.012952 0.040378
v 1.347796 -0.036295 0.074378
v 1.313796 -0.036295 0.040378
v 1.313796 1.012952 0.040378
v 1.347796 1.012952 0.074378
v 1.453510 -0.036295 -0.071544
v 1.487510 -0.036295 -0.037544
v 1.487510 1.012952 -0.037544
v 1.453510 1.012952 -0.071544
v 1.313796 -0.036295 -0.037544
v 1.347796 -0.036295 -0.071544
v 1.347796 1.012952 -0.071544
v 1.313796 1.012952 -0.037544
v 1.981931 1.067597 0.050023
v 1.956144 1.093385 0.050023
v 1.956144 1.067597 0.084023
v -1.916517 1.093385 0.050023
v -1.942305 1.067597 0.050023
v -1.916517 1.067597 0.084023
v 1.981932 0.987417 0.050023
v 1.956144 0.987417 0.084023
v 1.956144 0.961629 0.050023
v -1.942304 0.987416 0.050023
v -1.916517 0.961629 0.050023
v -1.916517 0.987416 0.084023
v 1.981931 1.067597 -0.055691
v 1.956144 1.067597 -0.089691
v 1.956144 1.093385 -0.055691
v -1.942305 1.067597 -0.055691
v -1.916517 1.093385 -0.055691
v -1.916517 1.067597 -0.089691
v 1.981932 0.987417 -0.055691
v 1.956144 0.961629 -0.055691
v 1.956144 0.987417 -0.089691
v -1.942304 0.987416 -0.055691
v -1.916517 0.987416 -0.089691
v -1.916517 0.961629 -0.055691
vn 1.0000 -0.0000 -0.0000
vn -0.0000 -0.0000 -1.0000
vn -1.0000 -0.0000 -0.0000
vn 0.7071 -0.0000 0.7071
vn -0.7071 -0.0000 0.7071
vn -0.7071 -0.0000 -0.7071
vn 0.7071 -0.0000 -0.7071
vn -0.0000 -0.0000 1.0000
vn -0.0000 1.0000 -0.0000
vn -0.0000 -1.0000 -0.0000
vn 0.6231 0.6231 0.4726
vn -0.6231 0.6231 0.4726
vn 0.6231 -0.6231 0.4726
vn -0.6231 -0.6231 0.4726
vn 0.6231 0.6231 -0.4726
vn -0.6231 0.6231 -0.4726
vn 0.6231 -0.6231 -0.4726
vn -0.6231 -0.6231 -0.4726
vn 0.7968 -0.0000 0.6043
vn -0.0000 0.7968 0.6043
vn -0.7967 -0.0000 0.6043
vn -0.0000 -0.7968 0.6043
vn 0.7071 -0.7071 -0.0000
vn -0.7071 -0.7071 -0.0000
vn -0.0000 -0.7968 -0.6043
vn 0.7968 -0.0000 -0.6043
vn -0.7967 -0.0000 -0.6043
vn -0.0000 0.7968 -0.6043
vn 0.7071 0.7071 -0.0000
vn -0.7071 0.7071 -0.0000
vt 0.709006 0.926498
vt 0.709006 0.928991
vt 0.708857 0.928991
vt 0.708857 0.926498
vt 0.706901 0.926768
vt 0.706901 0.929250
vt 0.706699 0.929054
vt 0.706699 0.926564
vt 0.709385 0.926498
vt 0.709385 0.928978
vt 0.709236 0.928978
vt 0.709235 0.926498
vt 0.706470 0.929054
vt 0.706470 0.926564
vt 0.706202 0.929313
vt 0.706202 0.926833
vt 0.706267 0.926768
vt 0.706267 0.929250
vt 0.705606 0.926564
vt 0.705606 0.936334
vt 0.705404 0.936334
vt 0.705404 0.926564
vt 0.705175 0.926563
vt 0.705175 0.936334
vt 0.704973 0.936334
vt 0.704973 0.926564
vt 0.707333 0.929642
vt 0.707131 0.929642
vt 0.707131 0.929439
vt 0.707333 0.929439
vt 0.704743 0.926564
vt 0.704743 0.936334
vt 0.704541 0.936334
vt 0.704541 0.926564
vt 0.706038 0.926563
vt 0.706038 0.936334
vt 0.705836 0.936334
vt 0.705836 0.926563
vt 0.706901 0.929477
vt 0.706901 0.929412
vt 0.706966 0.929477
vt 0.707131 0.929374
vt 0.707066 0.929439
vt 0.706901 0.929680
vt 0.706966 0.929680
vt 0.706901 0.929745
vt 0.707131 0.929707
vt 0.707066 0.929642
vt 0.706699 0.929477
vt 0.706634 0.929477
vt 0.706699 0.929412
vt 0.707333 0.929374
vt 0.707398 0.929439
vt 0.706699 0.929680
vt 0.706699 0.929745
vt 0.706634 0.929680
vt 0.707398 0.929642
vt 0.707333 0.929707
s 0
usemtl Atlas_Metallic
f 10/1/1 11/2/1 4/3/1 1/4/1
f 14/5/2 15/6/2 12/7/2 9/8/2
f 6/9/3 7/10/3 16/11/3 13/12/3
f 1/4/4 4/3/4 3/13/4 2/14/4
f 7/15/5 6/16/5 5/17/5 8/18/5
f 15/6/6 14/5/6 13/12/6 16/11/6
f 11/2/7 10/1/7 9/8/7 12/7/7
f 2/14/8 3/13/8 8/18/8 5/17/8
f 26/1/1 27/2/1 20/3/1 17/4/1
f 30/5/2 31/6/2 28/7/2 25/8/2
f 22/9/3 23/10/3 32/11/3 29/12/3
f 17/4/4 20/3/4 19/13/4 18/14/4
f 23/15/5 22/16/5 21/17/5 24/18/5
f 31/6/6 30/5/6 29/12/6 32/11/6
f 27/2/7 26/1/7 25/8/7 28/7/7
f 18/14/8 19/13/8 24/18/8 21/17/8
f 42/1/1 43/2/1 36/3/1 33/4/1
f 46/5/2 47/6/2 44/7/2 41/8/2
f 38/9/3 39/10/3 48/11/3 45/12/3
f 33/4/4 36/3/4 35/13/4 34/14/4
f 39/15/5 38/16/5 37/17/5 40/18/5
f 47/6/6 46/5/6 45/12/6 48/11/6
f 43/2/7 42/1/7 41/8/7 44/7/7
f 34/14/8 35/13/8 40/18/8 37/17/8
f 63/19/9 65/20/9 52/21/9 50/22/9
f 69/23/2 71/24/2 66/25/2 62/26/2
f 70/27/3 58/28/3 53/29/3 64/30/3
f 57/31/10 59/32/10 72/33/10 68/34/10
f 51/35/8 54/36/8 60/37/8 56/38/8
f 49/39/11 50/40/11 51/41/11
f 52/42/12 53/29/12 54/43/12
f 55/44/13 56/45/13 57/46/13
f 58/28/14 59/47/14 60/48/14
f 61/49/15 62/50/15 63/51/15
f 64/30/16 65/52/16 66/53/16
f 67/54/17 68/55/17 69/56/17
f 70/27/18 71/57/18 72/58/18
f 55/44/19 49/39/19 51/41/19 56/45/19
f 50/22/20 52/21/20 54/36/20 51/35/20
f 53/29/21 58/28/21 60/48/21 54/43/21
f 59/32/22 57/31/22 56/38/22 60/37/22
f 67/54/23 55/44/23 57/46/23 68/55/23
f 58/28/24 70/27/24 72/58/24 59/47/24
f 71/24/25 69/23/25 68/34/25 72/33/25
f 61/49/26 67/54/26 69/56/26 62/50/26
f 70/27/27 64/30/27 66/53/27 71/57/27
f 65/20/28 63/19/28 62/26/28 66/25/28
f 49/39/29 61/49/29 63/51/29 50/40/29
f 64/30/30 53/29/30 52/42/30 65/52/30
f 55/44/1 67/54/1 61/49/1 49/39/1
