# Blender 4.2.0
# www.blender.org
mtllib Wall_With_Door_Red.mtl
o Wall_With_Door_Red
v -1.580616 0.000016 0.168053
v -1.276235 3.169743 0.264568
v -1.494537 3.569886 0.241673
v -0.001691 3.638210 0.168053
v -1.642127 3.638210 0.168053
v -1.580616 0.000016 0.153585
v -1.642127 0.000016 0.153585
v -1.642127 3.569886 0.153585
v -0.001691 3.638210 0.153585
v -1.580616 3.638210 0.153585
v -1.642127 3.638210 0.153585
v -1.467768 3.498313 0.264568
v -0.878434 2.084220 0.264568
v -0.621964 2.471300 0.264568
v 1.577235 3.569886 0.168053
v 1.250727 -0.000688 0.264568
v 1.272854 3.169743 0.264568
v 1.638745 0.000016 0.168053
v 1.638745 3.569886 0.168053
v 1.577235 3.638210 0.168053
v 1.577235 3.569886 0.153585
v 1.577235 0.000016 0.153585
v 1.638745 3.569886 0.153585
v 1.638745 3.638210 0.153585
v 0.875053 0.447196 0.264568
v 1.577235 0.000016 0.168053
v 1.464386 0.000016 0.264568
v 1.491156 3.569886 0.241673
v 1.638745 3.638210 0.168053
v 1.638745 0.000016 0.153585
v 1.577235 3.638210 0.153585
v 1.464386 3.498313 0.264568
v 0.541234 -0.003028 0.264568
v 0.875053 2.084220 0.264568
v 0.618582 2.471300 0.264568
v -1.580616 3.569886 0.168053
v -1.467768 0.000016 0.264568
v -1.254109 -0.000688 0.264568
v -1.642127 0.000016 0.168053
v -1.642127 3.569886 0.168053
v -1.580616 3.638210 0.168053
v -1.580616 3.569886 0.153585
v -0.544616 -0.003028 0.264568
v -0.878434 0.447196 0.264568
v -1.580616 0.000016 -0.154317
v -1.580616 3.569886 -0.154317
v -1.467768 0.000016 -0.250831
v -1.254109 -0.000688 -0.250831
v -1.494537 3.569886 -0.227936
v -1.642127 0.000016 -0.154317
v -1.580616 3.638210 -0.154317
v -0.001691 3.638210 -0.154317
v -1.642127 3.638210 -0.154317
v -1.580616 0.000016 -0.139849
v -0.001691 3.638210 -0.139849
v -1.642127 3.638210 -0.139849
v -1.467768 3.498313 -0.250831
v -0.878434 2.084220 -0.250831
v -0.878434 0.447196 -0.250831
v 1.577235 0.000016 -0.154317
v 1.250727 -0.000688 -0.250831
v 1.272854 3.169743 -0.250831
v 1.491156 3.569886 -0.227936
v 1.638745 0.000016 -0.154317
v 1.577235 3.638210 -0.154317
v 1.638745 0.000016 -0.139849
v 1.577235 3.638210 -0.139849
v 0.541234 -0.003028 -0.250831
v 0.875053 2.084220 -0.250831
v 1.577235 3.569886 -0.154317
v 1.464386 0.000016 -0.250831
v 1.638745 3.569886 -0.154317
v 1.638745 3.638210 -0.154317
v 1.577235 3.569886 -0.139849
v 1.577235 0.000016 -0.139849
v 1.638745 3.569886 -0.139849
v 1.638745 3.638210 -0.139849
v 1.464386 3.498313 -0.250831
v 0.618582 2.471300 -0.250831
v 0.875053 0.447196 -0.250831
v -1.276235 3.169743 -0.250831
v -1.642127 3.569886 -0.154317
v -1.580616 3.569886 -0.139849
v -1.642127 0.000016 -0.139849
v -1.642127 3.569886 -0.139849
v -1.580616 3.638210 -0.139849
v -0.544616 -0.003028 -0.250831
v -0.621964 2.471300 -0.250831
v -0.436187 -0.003034 0.298448
v -0.731944 -0.003034 0.298448
v -1.022647 0.380767 0.298448
v -0.731944 2.644916 0.298448
v -1.022647 2.269065 0.298448
v -0.695113 0.474332 0.298448
v -0.436187 0.146264 0.298448
v 0.432806 -0.003034 0.298448
v 0.728563 -0.003034 0.298448
v 0.728563 2.644916 0.298448
v -0.528323 2.374821 0.331551
v -0.660885 -0.003034 0.331551
v -0.475689 -0.003034 0.331551
v -0.983145 2.247910 0.331551
v -0.983145 0.401922 0.331551
v -0.734614 2.082145 0.331551
v -0.734615 0.452874 0.331551
v -0.475689 0.124806 0.331551
v 0.657504 -0.003034 0.331551
v 0.472308 -0.003034 0.331551
v 0.979764 0.401922 0.331551
v 0.712201 2.593844 0.331551
v 0.731233 0.452874 0.331551
v 0.472308 0.124806 0.331551
v -0.436187 -0.003034 -0.282885
v -0.731944 -0.003034 -0.282885
v -1.022647 0.380767 -0.282885
v -0.510877 2.323749 -0.282885
v 0.432806 -0.003034 -0.282885
v 0.728563 -0.003034 -0.282885
v 0.728563 2.644916 -0.282885
v 1.019266 2.269065 -0.282885
v 0.691731 2.062365 -0.282885
v 0.432806 0.146264 -0.282885
v -0.528323 2.374821 -0.315988
v -0.660885 -0.003034 -0.315988
v -0.475689 -0.003034 -0.315988
v -0.734614 2.082145 -0.315988
v -0.734615 0.452874 -0.315988
v 0.657504 -0.003034 -0.315988
v 0.472308 -0.003034 -0.315988
v 0.979764 2.247910 -0.315988
v 0.979764 0.401922 -0.315988
v 0.712201 2.593844 -0.315988
v 0.731233 2.082145 -0.315988
v 0.731233 0.452874 -0.315988
v 0.472308 0.124806 -0.315988
v 1.019266 0.380767 0.298448
v 1.019266 2.269065 0.298448
v 0.507496 2.323749 0.298448
v 0.691731 2.062365 0.298448
v 0.691731 0.474332 0.298448
v 0.432806 0.146264 0.298448
v -0.510877 2.323749 0.298448
v -0.695113 2.062365 0.298448
v 0.524942 2.374821 0.331551
v 0.979764 2.247910 0.331551
v 0.731233 2.082145 0.331551
v -0.715582 2.593844 0.331551
v 1.019266 0.380767 -0.282885
v 0.507496 2.323749 -0.282885
v 0.691731 0.474332 -0.282885
v -0.731944 2.644916 -0.282885
v -1.022647 2.269065 -0.282885
v -0.695113 2.062365 -0.282885
v -0.695113 0.474332 -0.282885
v -0.436187 0.146264 -0.282885
v 0.524942 2.374821 -0.315988
v -0.983145 2.247910 -0.315988
v -0.983145 0.401922 -0.315988
v -0.715582 2.593844 -0.315988
v -0.475689 0.124806 -0.315988
v -1.997238 0.000011 0.094916
v 2.002762 3.634625 0.094916
v 2.002762 4.000010 0.094916
v 1.932145 3.633323 0.162073
v 1.932145 3.929394 0.162073
v 1.642599 3.633323 0.162073
v -1.622006 3.633323 0.162073
v -1.926622 3.633323 0.162073
v -1.622006 0.000011 0.162072
v -1.926622 0.000011 0.162072
v 1.642599 0.000011 0.162072
v 1.932145 0.000011 0.162072
v 2.002762 0.000011 0.094916
v -1.997238 3.646564 0.094916
v -1.997238 4.000010 0.094916
v -1.926622 3.929394 0.162073
v -1.997238 0.000011 -0.094916
v 2.002762 3.634625 -0.094916
v 2.002762 4.000010 -0.094916
v 1.932145 3.633323 -0.162073
v 1.932145 3.929394 -0.162073
v 1.642599 3.633323 -0.162073
v 1.641603 3.929394 -0.162073
v -1.622006 3.633323 -0.162073
v -1.926622 3.633323 -0.162073
v -1.622006 0.000011 -0.162072
v -1.926622 0.000011 -0.162072
v 1.642599 0.000011 -0.162072
v 1.932145 0.000011 -0.162072
v 2.002762 0.000011 -0.094916
v -1.997238 3.646564 -0.094916
v -1.997238 4.000010 -0.094916
v -1.926622 3.929394 -0.162073
v -1.622006 4.000010 -0.094916
v -1.622006 4.000010 0.094916
v -1.622006 3.929394 -0.162073
v -1.622006 3.929394 0.162073
v 1.641603 3.929394 0.162073
v 1.641604 4.000010 -0.094916
v 1.641604 4.000010 0.094916
v -1.257234 0.447196 0.264568
v -1.257234 0.447197 -0.250831
v 1.253845 0.446002 -0.250831
v 1.253845 0.446002 0.264568
v -1.268659 2.084220 0.264568
v -1.268659 2.084220 -0.250831
v 1.265286 2.085391 0.264568
v 1.265286 2.085391 -0.250831
v 0.615859 2.471300 0.264568
v 0.615859 2.471300 -0.250831
vn -0.0000 0.3047 -0.9525
vn -1.0000 -0.0000 -0.0000
vn -0.0000 1.0000 -0.0000
vn 0.6500 -0.0000 0.7600
vn 1.0000 -0.0000 -0.0000
vn -0.0000 -0.0000 1.0000
vn -0.0000 -1.0000 -0.0000
vn -0.6500 -0.0000 0.7600
vn -0.0000 -0.0000 -1.0000
vn -0.0000 -0.9970 -0.0779
vn 0.6500 -0.0000 -0.7600
vn -0.0000 -0.9989 -0.0468
vn -0.6500 -0.0000 -0.7600
vn -0.0000 -0.5439 0.8391
vn -0.0000 0.5439 0.8391
vn -0.6423 -0.0000 0.7664
vn -0.4350 -0.3381 0.8345
vn -0.7910 0.6118 -0.0000
vn -0.4743 0.3668 0.8003
vn 0.4937 -0.3480 0.7970
vn 0.6423 -0.0000 0.7664
vn 0.4699 0.3708 0.8011
vn 0.4350 -0.3381 0.8345
vn 0.4743 0.3668 0.8003
vn -0.4699 0.3708 0.8011
vn 0.7971 -0.6038 -0.0000
vn 0.7910 0.6118 -0.0000
vn -0.8174 -0.5761 -0.0000
vn 0.7850 0.6195 -0.0000
vn -0.7971 -0.6038 -0.0000
vn -0.0000 -0.5439 -0.8391
vn -0.0000 0.5439 -0.8391
vn -0.6423 -0.0000 -0.7664
vn -0.4350 -0.3381 -0.8345
vn 0.4937 -0.3480 -0.7970
vn 0.6423 -0.0000 -0.7664
vn 0.4699 0.3708 -0.8011
vn 0.4350 -0.3381 -0.8345
vn 0.4743 0.3668 -0.8003
vn -0.4937 -0.3480 -0.7970
vn -0.4699 0.3708 -0.8011
vn 0.8174 -0.5761 -0.0000
vn -0.7850 0.6195 -0.0000
vn -0.4937 -0.3480 0.7970
vn -0.4743 0.3668 -0.8003
vn 0.6891 -0.0000 0.7246
vn -0.6891 -0.0000 0.7246
vn -0.0000 0.6891 0.7246
vn 0.6891 -0.0000 -0.7246
vn -0.6891 -0.0000 -0.7246
vn -0.0000 0.6891 -0.7246
vn -0.0000 0.3047 0.9525
vt 0.443715 0.714137
vt 0.444015 0.714216
vt 0.453353 0.709466
vt 0.453220 0.709466
vt 0.453220 0.698919
vt 0.453353 0.698919
vt 0.455892 0.698919
vt 0.455758 0.698919
vt 0.446848 0.717793
vt 0.446167 0.717541
vt 0.461423 0.730093
vt 0.462149 0.730093
vt 0.462375 0.729277
vt 0.462375 0.689466
vt 0.461423 0.689466
vt 0.311112 0.950277
vt 0.311112 0.949793
vt 0.311433 0.949793
vt 0.311433 0.950277
vt 0.311112 0.924537
vt 0.311432 0.924537
vt 0.430178 0.711173
vt 0.429226 0.712098
vt 0.437257 0.700779
vt 0.437476 0.700934
vt 0.436445 0.702381
vt 0.432677 0.707668
vt 0.516388 0.928972
vt 0.527467 0.928972
vt 0.515956 0.928972
vt 0.515956 0.928488
vt 0.516388 0.928488
vt 0.308205 0.946760
vt 0.308205 0.947191
vt 0.307885 0.947191
vt 0.307885 0.946760
vt 0.308205 0.935681
vt 0.307885 0.935681
vt 0.437483 0.700925
vt 0.436454 0.702369
vt 0.436844 0.702641
vt 0.438209 0.701443
vt 0.453353 0.698919
vt 0.461423 0.689466
vt 0.515956 0.903233
vt 0.516388 0.903233
vt 0.432676 0.707668
vt 0.515956 0.903233
vt 0.438204 0.701451
vt 0.437476 0.700934
vt 0.432679 0.707664
vt 0.436451 0.702372
vt 0.437483 0.700925
vt 0.311432 0.924537
vt 0.436448 0.702377
vt 0.432674 0.707671
vt 0.383378 0.094013
vt 0.382931 0.094435
vt 0.382674 0.094310
vt 0.383033 0.093958
vt 0.380653 0.094013
vt 0.380998 0.093958
vt 0.381358 0.094310
vt 0.381101 0.094435
vt 0.382674 0.094435
vt 0.383033 0.092209
vt 0.383378 0.092031
vt 0.382747 0.091894
vt 0.383006 0.091659
vt 0.386312 0.091684
vt 0.386223 0.091659
vt 0.381358 0.094435
vt 0.380653 0.092031
vt 0.380998 0.092209
vt 0.381025 0.091659
vt 0.381285 0.091894
vt 0.383736 0.094518
vt 0.383825 0.094496
vt 0.383825 0.096523
vt 0.383736 0.096500
vt 0.383676 0.094518
vt 0.383676 0.096500
vt 0.383587 0.096523
vt 0.383587 0.094496
vt 0.386827 0.091659
vt 0.386827 0.092275
vt 0.386739 0.092299
vt 0.386730 0.091731
vt 0.381224 0.096583
vt 0.381224 0.097435
vt 0.380653 0.097435
vt 0.380653 0.096583
vt 0.386819 0.092382
vt 0.386819 0.092907
vt 0.386730 0.092930
vt 0.386730 0.092359
vt 0.384743 0.097357
vt 0.384743 0.097782
vt 0.384655 0.097761
vt 0.384655 0.097381
vt 0.384482 0.096245
vt 0.384482 0.094496
vt 0.384571 0.094519
vt 0.384571 0.096224
vt 0.386522 0.093098
vt 0.386522 0.092595
vt 0.386610 0.092572
vt 0.386610 0.093075
vt 0.386610 0.094117
vt 0.386610 0.094242
vt 0.386522 0.094242
vt 0.386522 0.094094
vt 0.384273 0.094518
vt 0.384273 0.096500
vt 0.384184 0.096523
vt 0.384184 0.094496
vt 0.386470 0.097789
vt 0.386470 0.097173
vt 0.386567 0.097245
vt 0.386559 0.097813
vt 0.386753 0.096809
vt 0.386753 0.096284
vt 0.386841 0.096261
vt 0.386841 0.096832
vt 0.384631 0.096245
vt 0.384631 0.094496
vt 0.384720 0.094517
vt 0.384720 0.096222
vt 0.386252 0.097336
vt 0.386252 0.097839
vt 0.386164 0.097816
vt 0.386164 0.097313
vt 0.380653 0.097644
vt 0.380653 0.097519
vt 0.380742 0.097496
vt 0.380742 0.097644
vt 0.383112 0.096583
vt 0.383112 0.097435
vt 0.382544 0.097435
vt 0.382544 0.096583
vt 0.381505 0.096523
vt 0.380653 0.096523
vt 0.380653 0.094496
vt 0.381505 0.094496
vt 0.381855 0.096583
vt 0.381855 0.097435
vt 0.381284 0.097435
vt 0.381284 0.096583
vt 0.384929 0.094496
vt 0.385781 0.094496
vt 0.385781 0.096201
vt 0.384929 0.096201
vt 0.386603 0.094034
vt 0.386313 0.096261
vt 0.386692 0.096261
vt 0.386223 0.094034
vt 0.384929 0.097674
vt 0.385781 0.097674
vt 0.384070 0.094200
vt 0.385532 0.094200
vt 0.385792 0.094435
vt 0.383810 0.094435
vt 0.386670 0.091659
vt 0.386670 0.092511
vt 0.386522 0.092511
vt 0.386522 0.091659
vt 0.384240 0.096583
vt 0.384240 0.097435
vt 0.383736 0.097435
vt 0.383736 0.096583
vt 0.382483 0.096583
vt 0.382483 0.097435
vt 0.381915 0.097435
vt 0.381915 0.096583
vt 0.381566 0.096523
vt 0.382418 0.094496
vt 0.382418 0.096523
vt 0.386163 0.092082
vt 0.385818 0.092137
vt 0.385459 0.091784
vt 0.385716 0.091659
vt 0.383438 0.092082
vt 0.383886 0.091659
vt 0.384143 0.091784
vt 0.383783 0.092137
vt 0.386163 0.094064
vt 0.385818 0.093886
vt 0.386372 0.093121
vt 0.386461 0.093097
vt 0.384143 0.091659
vt 0.383783 0.093886
vt 0.383438 0.094064
vt 0.384035 0.096500
vt 0.384123 0.096523
vt 0.383974 0.096500
vt 0.383886 0.096523
vt 0.383886 0.094496
vt 0.383974 0.094518
vt 0.386313 0.097173
vt 0.386410 0.097245
vt 0.386401 0.097813
vt 0.386313 0.097789
vt 0.384594 0.097782
vt 0.384506 0.097758
vt 0.384506 0.097378
vt 0.384594 0.097357
vt 0.384780 0.094496
vt 0.384869 0.094517
vt 0.384869 0.096222
vt 0.384780 0.096245
vt 0.385842 0.097313
vt 0.385930 0.097336
vt 0.385930 0.097839
vt 0.385842 0.097816
vt 0.383527 0.096500
vt 0.383438 0.096523
vt 0.383438 0.094496
vt 0.383527 0.094518
vt 0.386725 0.097789
vt 0.386637 0.097813
vt 0.386628 0.097245
vt 0.386725 0.097173
vt 0.386843 0.095044
vt 0.386754 0.095066
vt 0.386754 0.094496
vt 0.386843 0.094518
vt 0.384422 0.097782
vt 0.384333 0.097761
vt 0.384333 0.097381
vt 0.384422 0.097357
vt 0.384422 0.096245
vt 0.384333 0.096222
vt 0.384333 0.094517
vt 0.384422 0.094496
vt 0.386014 0.097336
vt 0.386103 0.097313
vt 0.386103 0.097816
vt 0.386014 0.097839
vt 0.386372 0.094094
vt 0.386461 0.094094
vt 0.386461 0.094242
vt 0.386372 0.094219
vt 0.386603 0.093182
vt 0.386223 0.093182
vt 0.386694 0.094496
vt 0.386694 0.096201
vt 0.383173 0.096583
vt 0.383676 0.096583
vt 0.386812 0.094034
vt 0.386663 0.094034
vt 0.578447 0.974072
vt 0.578494 0.976313
vt 0.578309 0.975869
vt 0.578269 0.973991
vt 0.578300 0.950941
vt 0.578787 0.973980
vt 0.578613 0.974068
vt 0.578124 0.950945
vt 0.602818 0.978038
vt 0.600768 0.977751
vt 0.524299 0.983310
vt 0.524073 0.982838
vt 0.524214 0.982838
vt 0.524484 0.983420
vt 0.323068 0.952374
vt 0.323068 0.949870
vt 0.594666 0.951252
vt 0.595056 0.951244
vt 0.578627 0.975506
vt 0.578322 0.975513
vt 0.577957 0.950948
vt 0.577781 0.950952
vt 0.574036 0.950383
vt 0.574570 0.975592
vt 0.574890 0.975585
vt 0.574357 0.950376
vt 0.578661 0.976309
vt 0.578827 0.975858
vt 0.575394 0.974450
vt 0.575441 0.976691
vt 0.574904 0.951327
vt 0.323068 0.924037
vt 0.578670 0.977560
vt 0.578365 0.977567
vt 0.382478 0.094496
vt 0.383330 0.094496
vt 0.383330 0.096523
vt 0.382478 0.096523
vt 0.603053 0.978071
vt 0.521862 0.977777
vt 0.521651 0.977779
vt 0.574934 0.977639
vt 0.574614 0.977646
vt 0.521435 0.977328
vt 0.521602 0.977217
vt 0.578321 0.975513
vt 0.578314 0.975513
vt 0.600541 0.977719
vt 0.438209 0.701443
vt 0.433081 0.707945
vt 0.432455 0.709386
s 0
usemtl Atlas
f 49/1/1 63/1/1 78/2/1 57/2/1
f 36/3/2 42/4/2 6/5/2 1/6/2
f 36/7/3 15/7/3 21/8/3 42/8/3
f 3/9/3 28/9/3 15/10/3 36/10/3
f 15/11/4 28/12/4 32/13/4 27/14/4 26/15/4
f 5/16/5 40/17/5 8/18/5 11/19/5
f 40/17/5 39/20/5 7/21/5 8/18/5
f 2/22/6 12/23/6 37/24/6 38/25/6 201/26/6 205/27/6
f 31/28/6 9/29/6 10/28/6 11/30/6 8/31/6 42/32/6 21/32/6 23/31/6 24/30/6
f 41/33/7 5/34/7 11/35/7 10/36/7
f 4/37/7 41/33/7 10/36/7 9/38/7
f 23/18/2 30/21/2 18/20/2 19/17/2
f 16/39/6 204/40/6 25/41/6 33/42/6
f 22/5/5 21/4/5 15/3/5 26/43/5
f 36/11/8 1/44/8 37/14/8 12/13/8 3/12/8
f 29/16/2 24/19/2 23/18/2 19/17/2
f 30/45/6 23/31/6 21/32/6 22/46/6
f 17/22/6 32/23/6 12/23/6 2/22/6
f 27/24/6 32/23/6 17/22/6 207/47/6 204/40/6 16/39/6
f 7/48/6 6/46/6 42/32/6 8/31/6
f 20/33/7 31/36/7 24/35/7 29/34/7
f 4/37/7 9/38/7 31/36/7 20/33/7
f 66/48/9 75/46/9 74/32/9 76/31/9
f 37/24/10 43/49/10 38/25/10
f 83/4/2 46/3/2 45/43/2 54/5/2
f 68/49/6 61/50/6 71/24/6
f 84/48/9 85/31/9 83/32/9 54/46/9
f 70/7/3 46/7/3 83/8/3 74/8/3
f 46/10/3 70/10/3 63/9/3 49/9/3
f 47/24/9 57/23/9 81/22/9 206/51/9 202/52/9 48/53/9
f 53/16/5 56/19/5 85/18/5 82/17/5
f 62/22/9 81/22/9 57/23/9 78/23/9
f 84/54/5 50/20/5 82/17/5 85/18/5
f 86/28/9 55/29/9 67/28/9 77/30/9 76/31/9 74/32/9 83/32/9 85/31/9 56/30/9
f 51/33/7 86/36/7 56/35/7 53/34/7
f 52/37/7 55/38/7 86/36/7 51/33/7
f 70/11/11 60/15/11 71/14/11 78/13/11 63/12/11
f 80/41/9 203/55/9 61/50/9 68/49/9
f 27/24/12 16/39/12 33/49/12
f 70/3/5 74/4/5 75/5/5 60/6/5
f 47/24/6 48/53/6 87/49/6
f 64/20/2 66/21/2 76/18/2 72/17/2
f 61/50/9 203/55/9 208/56/9 62/22/9 78/23/9 71/24/9
f 65/33/7 73/34/7 77/35/7 67/36/7
f 52/37/7 65/33/7 67/36/7 55/38/7
f 46/11/13 49/12/13 57/13/13 47/14/13 45/15/13
f 73/16/2 72/17/2 76/18/2 77/19/2
f 162/251/46 163/252/46 165/253/46 164/254/46
f 170/255/47 168/256/47 174/257/47 161/258/47
f 195/259/3 200/260/3 199/260/3 194/259/3
f 176/261/48 197/262/48 195/263/48 175/264/48
f 179/265/5 163/265/5 162/266/5 178/266/5
f 171/267/6 172/268/6 164/269/6 166/270/6
f 173/271/46 162/251/46 164/254/46 172/272/46
f 187/273/9 185/274/9 184/275/9 186/276/9
f 190/271/49 189/272/49 180/254/49 178/251/49
f 175/277/47 174/257/47 168/256/47 176/278/47
f 191/279/2 174/279/2 175/280/2 192/280/2
f 177/281/2 161/281/2 174/279/2 191/279/2
f 162/266/5 173/282/5 190/282/5 178/266/5
f 178/251/49 180/254/49 181/253/49 179/252/49
f 177/258/50 191/257/50 185/256/50 187/255/50
f 188/267/9 182/270/9 180/269/9 189/268/9
f 192/277/50 193/278/50 185/256/50 191/257/50
f 166/270/6 164/269/6 165/283/6 198/284/6
f 193/261/51 192/264/51 194/263/51 196/262/51
f 167/275/6 168/274/6 170/273/6 169/276/6
f 12/2/52 32/2/52 28/1/52 3/1/52
f 192/289/3 175/289/3 195/259/3 194/259/3
f 194/263/51 199/290/51 183/291/51 196/262/51
f 196/292/9 184/275/9 185/274/9 193/293/9
f 167/275/6 197/292/6 176/293/6 168/274/6
f 165/294/48 163/295/48 200/290/48 198/291/48
f 166/296/6 198/284/6 197/292/6 167/275/6
f 183/284/9 182/297/9 184/275/9 196/292/9
f 183/291/51 199/290/51 179/295/51 181/294/51
f 199/260/3 200/260/3 163/298/3 179/298/3
f 198/291/48 200/290/48 195/263/48 197/262/48
f 181/283/9 180/269/9 182/297/9 183/284/9
f 202/52/9 59/41/9 87/299/9 48/53/9
f 44/41/6 201/26/6 38/25/6 43/49/6
f 203/55/9 80/41/9 69/300/9 208/56/9
f 25/41/6 204/40/6 207/47/6 34/300/6
f 13/300/6 205/27/6 201/26/6 44/41/6
f 206/51/9 58/300/9 59/41/9 202/52/9
f 34/300/6 207/47/6 17/22/6 209/301/6 35/301/6
f 208/56/9 69/300/9 79/301/9 210/301/9 62/22/9
f 81/22/9 88/301/9 58/300/9 206/51/9
f 14/301/6 2/22/6 205/27/6 13/300/6
f 62/22/9 210/301/9 88/301/9 81/22/9
f 209/301/6 17/22/6 2/22/6 14/301/6
usemtl Atlas_Metallic
f 103/57/6 100/58/6 106/59/6 105/60/6
f 109/61/6 111/62/6 112/63/6 107/64/6
f 106/59/6 100/58/6 101/65/6
f 105/60/6 104/66/6 102/67/6 103/57/6
f 102/67/6 104/66/6 99/68/6 147/69/6
f 138/70/14 144/71/14 99/71/14 142/70/14
f 107/64/6 112/63/6 108/72/6
f 111/62/6 109/61/6 145/73/6 146/74/6
f 146/74/6 145/73/6 110/75/6 144/76/6
f 110/77/15 98/78/15 92/79/15 147/80/15
f 103/81/16 102/82/16 93/83/16 91/84/16
f 100/85/17 103/86/17 91/87/17 90/88/17
f 152/89/18 93/90/18 92/91/18 151/92/18
f 102/93/19 147/94/19 92/95/19 93/96/19
f 99/97/20 104/98/20 143/99/20 142/100/20
f 104/101/21 105/102/21 94/103/21 143/104/21
f 105/105/22 106/106/22 95/107/22 94/108/22
f 106/109/21 101/110/21 89/111/21 95/112/21
f 145/113/21 109/114/21 136/115/21 137/116/21
f 109/117/23 107/118/23 97/119/23 136/120/23
f 110/121/24 145/122/24 137/123/24 98/124/24
f 111/125/16 146/126/16 139/127/16 140/128/16
f 112/129/25 111/130/25 140/131/25 141/132/25
f 108/133/16 112/134/16 141/135/16 96/136/16
f 148/137/26 136/138/26 97/139/26 118/140/26
f 120/141/5 137/142/5 136/143/5 148/144/5
f 119/145/27 98/146/27 137/147/27 120/148/27
f 153/149/5 143/150/5 94/151/5 154/152/5
f 138/153/28 149/154/28 121/155/28 139/156/28
f 116/157/7 149/157/7 138/158/7 142/158/7
f 156/159/9 123/160/9 159/161/9 132/162/9
f 117/163/2 96/164/2 141/165/2 122/166/2
f 154/167/29 94/168/29 95/169/29 155/170/29
f 114/171/30 90/172/30 91/173/30 115/174/30
f 119/175/3 151/175/3 92/176/3 98/177/3
f 158/178/9 127/179/9 160/180/9 124/181/9
f 131/182/9 128/183/9 135/184/9 134/185/9
f 127/179/9 158/178/9 157/186/9 126/187/9
f 157/186/9 159/161/9 123/160/9 126/187/9
f 123/188/31 156/188/31 149/189/31 116/189/31
f 128/183/9 129/190/9 135/184/9
f 134/185/9 133/191/9 130/192/9 131/182/9
f 133/191/9 156/159/9 132/162/9 130/192/9
f 132/193/32 159/193/32 151/194/32 119/194/32
f 158/195/33 115/196/33 152/197/33 157/198/33
f 124/199/34 114/200/34 115/201/34 158/202/34
f 123/203/35 116/204/35 153/205/35 126/206/35
f 126/207/36 153/208/36 154/209/36 127/210/36
f 127/211/37 154/212/37 155/213/37 160/214/37
f 130/215/36 120/216/36 148/217/36 131/218/36
f 131/219/38 148/220/38 118/221/38 128/222/38
f 132/223/39 119/224/39 120/225/39 130/226/39
f 133/227/40 121/228/40 149/229/40 156/230/40
f 134/231/33 150/232/33 121/233/33 133/234/33
f 135/235/41 122/236/41 150/237/41 134/238/41
f 129/239/33 117/240/33 122/241/33 135/242/33
f 116/243/42 142/153/42 143/156/42 153/244/42
f 139/150/2 121/245/2 150/246/2 140/151/2
f 140/168/43 150/247/43 122/248/43 141/169/43
f 113/163/5 155/166/5 95/249/5 89/250/5
f 144/97/44 138/100/44 139/99/44 146/98/44
f 124/183/9 160/184/9 125/190/9
f 159/223/45 157/226/45 152/225/45 151/224/45
f 125/239/36 160/242/36 155/241/36 113/240/36
f 144/76/6 110/75/6 147/69/6 99/68/6
f 115/285/2 91/286/2 93/287/2 152/288/2
