# Blender 4.2.0
# www.blender.org
mtllib Wall_Blue.mtl
o Wall_Blue
v 1.636654 3.633316 0.048380
v 1.636654 3.564991 0.048380
v 1.569836 3.564991 0.048380
v -0.003183 3.633316 0.048380
v -0.003183 3.610169 0.048380
v -0.048360 3.564991 0.048380
v 0.041994 3.564991 0.048380
v -0.003180 3.542813 0.048380
v -0.003016 3.542813 0.303964
v -0.048193 3.564991 0.304067
v -0.002965 3.472374 0.320067
v 0.042161 3.564991 0.304067
v 0.042213 3.493418 0.358631
v 1.484413 3.564991 0.304067
v 1.457847 3.493418 0.358631
v -1.455257 3.493418 0.358631
v -1.567028 3.564991 0.048380
v -1.627951 3.564991 0.048380
v -1.627951 3.633316 0.048380
v -1.627951 0.000003 0.048380
v -1.567028 0.000003 0.048380
v -1.455257 0.000003 0.358630
v -0.048142 0.000003 0.358630
v -0.002965 0.034302 0.320067
v 0.042213 0.000003 0.358630
v 1.457847 0.000003 0.358630
v 1.569836 0.000003 0.048380
v 1.636654 0.000003 0.048380
v -1.481772 3.564991 0.304067
v -0.048142 3.493418 0.358631
v 1.636654 3.633316 -0.048380
v 1.636654 3.564991 -0.048380
v 1.569836 3.564991 -0.048380
v -0.003183 3.633316 -0.048380
v -0.003183 3.610169 -0.048380
v -0.048360 3.564991 -0.048380
v 0.041994 3.564991 -0.048380
v -0.003180 3.542813 -0.048380
v -0.003016 3.542813 -0.303964
v -0.048193 3.564991 -0.304067
v -0.002965 3.472374 -0.320067
v 0.042161 3.564991 -0.304067
v 0.042213 3.493419 -0.358631
v 1.484413 3.564991 -0.304067
v 1.457847 3.493419 -0.358631
v -1.455257 3.493419 -0.358631
v -1.567028 3.564991 -0.048380
v -1.627951 3.564991 -0.048380
v -1.627951 3.633316 -0.048380
v -1.627951 0.000003 -0.048380
v -1.567028 0.000003 -0.048380
v -1.455257 0.000003 -0.358630
v -0.048142 0.000003 -0.358630
v -0.002965 0.034302 -0.320067
v 0.042213 0.000003 -0.358630
v 1.457847 0.000003 -0.358630
v 1.569836 0.000003 -0.048380
v 1.636654 0.000003 -0.048380
v -1.481772 3.564991 -0.304067
v -0.048142 3.493419 -0.358631
v -2.000000 0.000009 0.094916
v -1.620709 3.633321 0.162073
v -1.928620 3.633321 0.162073
v -1.620709 0.000009 0.162072
v -1.928620 0.000009 0.162072
v -2.000000 3.646562 0.094916
v -2.000000 4.000009 0.094916
v -1.928620 3.929392 0.162073
v -2.000000 0.000009 -0.094916
v -1.620709 3.633321 -0.162073
v -1.928620 3.633321 -0.162073
v -1.620709 0.000009 -0.162072
v -1.928620 0.000009 -0.162072
v -2.000000 3.646562 -0.094916
v -2.000000 4.000009 -0.094916
v -1.928620 3.929392 -0.162073
v 2.000000 0.000009 0.094916
v 1.620709 3.633321 0.162073
v 1.928620 3.633321 0.162073
v 1.620709 0.000009 0.162072
v 1.928620 0.000009 0.162072
v 2.000000 3.646562 0.094916
v 2.000000 4.000009 0.094916
v 1.928620 3.929392 0.162073
v 2.000000 0.000009 -0.094916
v 1.620709 3.633321 -0.162073
v 1.928620 3.633321 -0.162073
v 1.620709 0.000009 -0.162072
v 1.928620 0.000009 -0.162072
v 2.000000 3.646562 -0.094916
v 2.000000 4.000009 -0.094916
v 1.928620 3.929392 -0.162073
v -1.620709 4.000009 0.094916
v -1.620709 4.000009 -0.094916
v -1.620710 3.929392 0.162073
v -1.620710 3.929392 -0.162073
v 1.610948 4.000009 0.094916
v 1.610948 4.000009 -0.094916
v 1.610948 3.929392 0.162073
v 1.610948 3.929392 -0.162073
v 1.610947 3.633321 0.162073
v 1.610947 3.633321 -0.162073
vn -0.0000 -0.0000 1.0000
vn -0.0000 -0.0000 -1.0000
vn 0.4407 0.8977 -0.0003
vn -0.4407 0.8977 0.0003
vn 0.5122 0.3829 0.7688
vn -0.5121 0.3824 0.7692
vn -0.0000 0.6063 0.7953
vn -0.0000 1.0000 -0.0000
vn -0.6492 -0.0000 0.7606
vn 0.6492 -0.0000 0.7606
vn -0.9409 -0.0009 0.3388
vn 0.9407 -0.0009 0.3393
vn 0.4407 0.8977 0.0003
vn -0.4407 0.8977 -0.0003
vn 0.5122 0.3829 -0.7688
vn -0.5121 0.3824 -0.7692
vn -0.0000 0.6063 -0.7953
vn -0.6492 -0.0000 -0.7606
vn 0.6492 -0.0000 -0.7606
vn -0.9409 -0.0009 -0.3388
vn 0.9407 -0.0009 -0.3393
vn -0.6852 -0.0000 -0.7283
vn -0.6852 -0.0000 0.7283
vn -1.0000 -0.0000 -0.0000
vn 0.6852 -0.0000 0.7283
vn 1.0000 -0.0000 -0.0000
vn -0.0000 0.6891 0.7246
vn 0.6852 -0.0000 -0.7283
vn -0.0000 0.6891 -0.7246
vn -0.0000 -1.0000 -0.0000
vt 0.563484 0.944655
vt 0.563588 0.944624
vt 0.566165 0.943863
vt 0.566264 0.943917
vt 0.566276 0.943956
vt 0.563519 0.944771
vt 0.569060 0.943142
vt 0.569026 0.943026
vt 0.568913 0.943059
vt 0.566318 0.943818
vt 0.566230 0.943802
vt 0.450195 0.850549
vt 0.452881 0.855440
vt 0.452671 0.855431
vt 0.450182 0.850801
vt 0.450523 0.850874
vt 0.453095 0.855463
vt 0.449188 0.849033
vt 0.449339 0.848989
vt 0.449615 0.849172
vt 0.453611 0.850106
vt 0.453164 0.849586
vt 0.455501 0.852648
vt 0.423487 0.795314
vt 0.419522 0.794797
vt 0.419522 0.794797
vt 0.423487 0.795314
vt 0.419666 0.795374
vt 0.419206 0.794865
vt 0.444943 0.847202
vt 0.415478 0.794531
vt 0.445005 0.847600
vt 0.445705 0.849740
vt 0.414508 0.794447
vt 0.561698 0.938605
vt 0.561801 0.938575
vt 0.567256 0.936972
vt 0.567143 0.937005
vt 0.424435 0.795167
vt 0.419666 0.795374
vt 0.578613 0.974068
vt 0.578787 0.973980
vt 0.578300 0.950941
vt 0.578124 0.950945
vt 0.603053 0.978071
vt 0.574036 0.950383
vt 0.574357 0.950376
vt 0.574890 0.975585
vt 0.574570 0.975592
vt 0.578661 0.976309
vt 0.578827 0.975858
vt 0.575394 0.974450
vt 0.574904 0.951327
vt 0.574614 0.977646
vt 0.524299 0.983310
vt 0.524484 0.983420
vt 0.575441 0.976691
s 0
usemtl Atlas
f 18/1/1 17/2/1 6/3/1 5/4/1 4/5/1 19/6/1
f 35/4/2 34/5/2 31/7/2 32/8/2 33/9/2 37/10/2
f 6/3/1 8/11/1 5/4/1
f 8/11/1 7/10/1 5/4/1
f 9/12/3 8/13/3 6/14/3 10/15/3
f 12/16/4 7/17/4 8/13/4 9/12/4
f 14/21/8 3/23/8 7/17/8 12/16/8
f 20/35/1 21/36/1 17/2/1 18/1/1
f 28/37/1 2/8/1 3/9/1 27/38/1
f 29/32/8 10/15/8 6/14/8 17/33/8
f 48/1/2 49/6/2 34/5/2 35/4/2 36/3/2 47/2/2
f 36/3/2 35/4/2 38/11/2
f 38/11/2 35/4/2 37/10/2
f 39/12/13 40/15/13 36/14/13 38/13/13
f 42/16/14 39/12/14 38/13/14 37/17/14
f 44/21/8 42/16/8 37/17/8 33/23/8
f 50/35/2 48/1/2 47/2/2 51/36/2
f 57/38/2 33/9/2 32/8/2 58/37/2
f 59/32/8 47/33/8 36/14/8 40/15/8
f 74/41/22 71/42/22 73/43/22 69/44/22
f 75/45/8 67/45/8 93/45/8 94/45/8
f 65/46/1 64/47/1 62/48/1 63/49/1
f 67/50/23 66/41/23 63/42/23 68/51/23
f 66/52/24 74/52/24 69/53/24 61/53/24
f 62/48/1 101/48/1 99/54/1 95/54/1
f 73/46/2 71/49/2 70/48/2 72/47/2
f 82/41/25 79/42/25 81/43/25 77/44/25
f 75/50/22 76/51/22 71/42/22 74/41/22
f 62/48/26 64/47/26 72/47/26 70/48/26
f 68/55/27 95/55/27 93/56/27 67/56/27
f 90/41/28 85/44/28 89/43/28 87/42/28
f 81/46/1 79/49/1 78/48/1 80/47/1
f 83/50/25 84/51/25 79/42/25 82/41/25
f 90/52/26 91/57/26 83/57/26 82/52/26
f 71/49/2 76/54/2 96/54/2 70/48/2
f 85/53/26 90/52/26 82/52/26 77/53/26
f 76/55/29 75/56/29 94/56/29 96/55/29
f 86/48/2 87/49/2 89/46/2 88/47/2
f 91/50/28 90/41/28 87/42/28 92/51/28
f 66/41/23 61/44/23 65/43/23 63/42/23
f 5/4/1 7/10/1 3/9/1 2/8/1 1/7/1 4/5/1
f 86/48/24 88/47/24 80/47/24 78/48/24
f 62/48/30 70/48/30 102/48/30 101/48/30
f 74/52/24 66/52/24 67/57/24 75/57/24
f 96/55/29 94/56/29 98/56/29 100/55/29
f 95/54/1 68/54/1 63/49/1 62/48/1
f 93/56/27 95/55/27 99/55/27 97/56/27
f 94/45/8 93/45/8 97/45/8 98/45/8
f 70/48/2 96/54/2 100/54/2 102/48/2
f 100/55/29 98/56/29 91/56/29 92/55/29
f 101/48/30 102/48/30 86/48/30 78/48/30
f 97/56/27 99/55/27 84/55/27 83/56/27
f 98/45/8 97/45/8 83/45/8 91/45/8
f 102/48/2 100/54/2 92/54/2 87/49/2 86/48/2
f 99/54/1 101/48/1 78/48/1 79/49/1 84/54/1
usemtl Atlas_Metallic
f 10/15/5 30/18/5 11/19/5 9/12/5
f 9/12/6 11/19/6 13/20/6 12/16/6
f 14/21/7 12/16/7 13/20/7 15/22/7
f 26/24/1 15/22/1 13/20/1 25/25/1
f 55/26/2 43/20/2 45/22/2 56/27/2
f 25/25/9 13/20/9 11/19/9 24/28/9
f 30/18/10 23/29/10 24/28/10 11/19/10
f 23/29/1 30/18/1 16/30/1 22/31/1
f 29/32/11 17/33/11 21/34/11 22/31/11 16/30/11
f 26/24/12 27/39/12 3/23/12 14/21/12 15/22/12
f 10/15/7 29/32/7 16/30/7 30/18/7
f 40/15/15 39/12/15 41/19/15 60/18/15
f 39/12/16 42/16/16 43/20/16 41/19/16
f 44/21/17 45/22/17 43/20/17 42/16/17
f 41/19/18 43/20/18 55/26/18 54/40/18
f 46/30/2 60/18/2 53/29/2 52/31/2
f 60/18/19 41/19/19 54/40/19 53/29/19
f 59/32/20 46/30/20 52/31/20 51/34/20 47/33/20
f 56/27/21 45/22/21 44/21/21 33/23/21 57/39/21
f 40/15/17 60/18/17 46/30/17 59/32/17
