# Blender 4.2.0
# www.blender.org
mtllib Wall_Blue_Greeblies.mtl
o Wall_Blue_Greeblies
v 1.639837 3.633312 0.119061
v 1.639837 3.564988 0.119061
v 1.573019 3.564988 0.119061
v -1.624768 3.633312 0.119061
v -1.624768 3.564988 0.119061
v -1.563846 3.564988 0.119061
v -1.624768 0.000000 0.119060
v -1.563846 0.000000 0.119060
v -1.563846 0.000000 0.162072
v -1.452074 0.000000 0.449003
v -1.452074 3.493415 0.449004
v -1.478589 3.564988 0.380938
v 1.461029 3.493415 0.449004
v 1.487596 3.564988 0.380938
v 1.461029 0.000000 0.449003
v 1.573019 0.000000 0.162072
v 1.573019 0.000000 0.119060
v 1.639837 0.000000 0.119060
v 1.573019 3.564988 0.162073
v -1.563846 3.564988 0.162073
v 0.468445 2.748804 0.368414
v 0.593445 2.715310 0.368414
v 0.468445 2.748804 0.531394
v 0.343445 2.715310 0.368414
v 0.251939 2.623804 0.368414
v 0.343445 2.715310 0.531394
v 0.251939 2.623804 0.531394
v 0.218445 2.498804 0.531394
v 0.251939 2.373804 0.531394
v 0.218445 2.498804 0.368414
v 0.251939 2.373804 0.368414
v 0.343445 2.282297 0.368414
v 0.468445 2.248804 0.368414
v 0.343445 2.282297 0.531394
v 0.468445 2.248804 0.531394
v 0.593445 2.282297 0.531394
v 0.684951 2.373804 0.531394
v 0.593445 2.282297 0.368414
v 0.684951 2.373804 0.368414
v 0.718445 2.498804 0.368414
v 0.684951 2.623804 0.368414
v 0.718445 2.498804 0.531394
v 0.684951 2.623804 0.531394
v 0.593445 2.715310 0.531394
v 1.050233 2.748804 0.368414
v 1.175233 2.715310 0.368414
v 1.050233 2.748804 0.531394
v 0.925233 2.715310 0.368414
v 0.833727 2.623804 0.368414
v 0.925233 2.715310 0.531394
v 0.833727 2.623804 0.531394
v 0.800233 2.498804 0.531394
v 0.833727 2.373804 0.531394
v 0.800233 2.498804 0.368414
v 0.833727 2.373804 0.368414
v 0.925233 2.282297 0.368414
v 1.050233 2.248804 0.368414
v 0.925233 2.282297 0.531394
v 1.050233 2.248804 0.531394
v 1.175233 2.282297 0.531394
v 1.266740 2.373804 0.531394
v 1.175233 2.282297 0.368414
v 1.266740 2.373804 0.368414
v 1.300233 2.498804 0.368414
v 1.266740 2.623804 0.368414
v 1.300233 2.498804 0.531394
v 1.266740 2.623804 0.531394
v 1.175233 2.715310 0.531394
v 0.056130 2.418561 0.423012
v 0.097381 2.407508 0.423012
v 0.056130 2.418561 0.476796
v 0.014880 2.407508 0.423012
v -0.015316 2.377311 0.423012
v 0.014880 2.407508 0.476796
v -0.015316 2.377311 0.476796
v -0.026369 2.336061 0.476796
v -0.015316 2.294811 0.476796
v -0.026369 2.336061 0.423012
v -0.015316 2.294811 0.423012
v 0.014880 2.264614 0.423012
v 0.056130 2.253561 0.423012
v 0.014880 2.264614 0.476796
v 0.056130 2.253561 0.476796
v 0.097381 2.264614 0.476796
v 0.127578 2.294811 0.476796
v 0.097381 2.264614 0.423012
v 0.127578 2.294811 0.423012
v 0.138631 2.336061 0.423012
v 0.127578 2.377311 0.423012
v 0.138631 2.336061 0.476796
v 0.127578 2.377311 0.476796
v 0.097381 2.407508 0.476796
v -0.243580 -0.000015 0.469824
v -0.243580 -0.000015 0.347109
v -0.243580 1.156492 0.469824
v -0.366295 -0.000015 0.682371
v -0.366295 1.156492 0.682371
v -0.578842 -0.000015 0.805086
v -0.578842 1.156492 0.805086
v -0.824271 -0.000015 0.805086
v -0.824271 1.156492 0.805086
v -1.036819 -0.000015 0.682371
v -1.036819 1.156492 0.682371
v -1.159534 -0.000015 0.469824
v -1.159534 1.156492 0.469824
v -1.159534 -0.000015 0.347109
v -1.159534 1.166978 0.347109
v -0.869188 1.482120 0.347109
v -0.869188 1.454553 0.525701
v -0.533926 1.482120 0.347109
v -0.533926 1.454553 0.525701
v -0.243580 1.166978 0.347109
v 1.639837 3.633312 -0.119061
v 1.639837 3.564988 -0.119061
v 1.573019 3.564988 -0.119061
v -1.563816 3.633312 -0.119061
v -1.624768 3.633312 -0.119061
v -1.624768 3.564988 -0.119061
v -1.563846 3.564988 -0.119061
v -1.624768 0.000000 -0.119060
v -1.563846 0.000000 -0.119060
v -1.563846 0.000000 -0.162072
v -1.452074 0.000000 -0.449003
v -1.452074 3.493415 -0.449004
v -1.478589 3.564988 -0.380938
v 1.461029 3.493415 -0.449004
v 1.487596 3.564988 -0.380938
v 1.461029 0.000000 -0.449003
v 1.573019 0.000000 -0.162072
v 1.573019 0.000000 -0.119060
v 1.639837 0.000000 -0.119060
v 1.573019 3.564988 -0.162073
v 1.573025 3.633312 -0.119061
v -1.563846 3.564988 -0.162073
v 0.468445 2.748804 -0.368414
v 0.593445 2.715310 -0.368414
v 0.468445 2.748804 -0.531394
v 0.343445 2.715310 -0.368414
v 0.251939 2.623804 -0.368414
v 0.343445 2.715310 -0.531394
v 0.251939 2.623804 -0.531394
v 0.218445 2.498804 -0.531394
v 0.251939 2.373804 -0.531394
v 0.218445 2.498804 -0.368414
v 0.251939 2.373804 -0.368414
v 0.343445 2.282297 -0.368414
v 0.468445 2.248804 -0.368414
v 0.343445 2.282297 -0.531394
v 0.468445 2.248804 -0.531394
v 0.593445 2.282297 -0.531394
v 0.684951 2.373804 -0.531394
v 0.593445 2.282297 -0.368414
v 0.684951 2.373804 -0.368414
v 0.718445 2.498804 -0.368414
v 0.684951 2.623804 -0.368414
v 0.718445 2.498804 -0.531394
v 0.684951 2.623804 -0.531394
v 0.593445 2.715310 -0.531394
v 1.050233 2.748804 -0.368414
v 1.175233 2.715310 -0.368414
v 1.050233 2.748804 -0.531394
v 0.925233 2.715310 -0.368414
v 0.833727 2.623804 -0.368414
v 0.925233 2.715310 -0.531394
v 0.833727 2.623804 -0.531394
v 0.800233 2.498804 -0.531394
v 0.833727 2.373804 -0.531394
v 0.800233 2.498804 -0.368414
v 0.833727 2.373804 -0.368414
v 0.925233 2.282297 -0.368414
v 1.050233 2.248804 -0.368414
v 0.925233 2.282297 -0.531394
v 1.050233 2.248804 -0.531394
v 1.175233 2.282297 -0.531394
v 1.266740 2.373804 -0.531394
v 1.175233 2.282297 -0.368414
v 1.266740 2.373804 -0.368414
v 1.300233 2.498804 -0.368414
v 1.266740 2.623804 -0.368414
v 1.300233 2.498804 -0.531394
v 1.266740 2.623804 -0.531394
v 1.175233 2.715310 -0.531394
v 0.056130 2.418561 -0.423012
v 0.097381 2.407508 -0.423012
v 0.056130 2.418561 -0.476796
v 0.014880 2.407508 -0.423012
v -0.015316 2.377311 -0.423012
v 0.014880 2.407508 -0.476796
v -0.015316 2.377311 -0.476796
v -0.026369 2.336061 -0.476796
v -0.015316 2.294811 -0.476796
v -0.026369 2.336061 -0.423012
v -0.015316 2.294811 -0.423012
v 0.014880 2.264614 -0.423012
v 0.056130 2.253561 -0.423012
v 0.014880 2.264614 -0.476796
v 0.056130 2.253561 -0.476796
v 0.097381 2.264614 -0.476796
v 0.127578 2.294811 -0.476796
v 0.097381 2.264614 -0.423012
v 0.127578 2.294811 -0.423012
v 0.138631 2.336061 -0.423012
v 0.127578 2.377311 -0.423012
v 0.138631 2.336061 -0.476796
v 0.127578 2.377311 -0.476796
v 0.097381 2.407508 -0.476796
v -0.243580 -0.000015 -0.469824
v -0.243580 -0.000015 -0.347109
v -0.243580 1.156492 -0.469824
v -0.366295 -0.000015 -0.682371
v -0.366295 1.156492 -0.682371
v -0.578842 -0.000015 -0.805086
v -0.578842 1.156492 -0.805086
v -0.824271 -0.000015 -0.805086
v -0.824271 1.156492 -0.805086
v -1.036819 -0.000015 -0.682371
v -1.036819 1.156492 -0.682371
v -1.159534 -0.000015 -0.469824
v -1.159534 1.156492 -0.469824
v -1.159534 -0.000015 -0.347109
v -1.159534 1.166978 -0.347109
v -0.869188 1.482120 -0.347109
v -0.869188 1.454553 -0.525701
v -0.533926 1.482120 -0.347109
v -0.533926 1.454553 -0.525701
v -0.243580 1.166978 -0.347109
v -2.000000 0.000009 0.094916
v -1.620709 3.633321 0.162073
v -1.928620 3.633321 0.162073
v -1.620709 0.000009 0.162072
v -1.928620 0.000009 0.162072
v -2.000000 3.646562 0.094916
v -2.000000 4.000009 0.094916
v -1.928620 3.929392 0.162073
v -2.000000 0.000009 -0.094916
v -1.620709 3.633321 -0.162073
v -1.928620 3.633321 -0.162073
v -1.620709 0.000009 -0.162072
v -1.928620 0.000009 -0.162072
v -2.000000 3.646562 -0.094916
v -2.000000 4.000009 -0.094916
v -1.928620 3.929392 -0.162073
v 2.000000 0.000009 0.094916
v 1.620709 3.633321 0.162073
v 1.928620 3.633321 0.162073
v 1.620709 0.000009 0.162072
v 1.928620 0.000009 0.162072
v 2.000000 3.646562 0.094916
v 2.000000 4.000009 0.094916
v 1.928620 3.929392 0.162073
v 2.000000 0.000009 -0.094916
v 1.620709 3.633321 -0.162073
v 1.928620 3.633321 -0.162073
v 1.620709 0.000009 -0.162072
v 1.928620 0.000009 -0.162072
v 2.000000 3.646562 -0.094916
v 2.000000 4.000009 -0.094916
v 1.928620 3.929392 -0.162073
v -1.563844 3.633312 0.119061
v 1.572988 3.633312 0.119061
v -1.620709 4.000009 0.094916
v -1.620709 4.000009 -0.094916
v -1.620710 3.929392 0.162073
v -1.620710 3.929392 -0.162073
v 1.620709 3.929392 -0.162073
v 1.620709 4.000009 0.094916
v 1.620709 4.000009 -0.094916
v 1.620709 3.929392 0.162073
v -2.000000 3.929392 0.094916
v -2.000000 3.929392 -0.094916
v 2.000000 3.929392 0.094916
v 2.000000 3.929392 -0.094916
vn -0.0000 -0.0000 -1.0000
vn -1.0000 -0.0000 -0.0000
vn -0.0000 0.6891 0.7246
vn -0.0000 1.0000 -0.0000
vn -0.9318 -0.0000 0.3630
vn -0.0000 -0.0000 1.0000
vn 0.9316 -0.0000 0.3636
vn 1.0000 -0.0000 -0.0000
vn 0.2588 0.9659 -0.0000
vn -0.2588 0.9659 -0.0000
vn -0.7071 0.7071 -0.0000
vn -0.9659 0.2588 -0.0000
vn -0.9659 -0.2588 -0.0000
vn -0.7071 -0.7071 -0.0000
vn -0.2588 -0.9659 -0.0000
vn 0.2588 -0.9659 -0.0000
vn 0.7071 -0.7071 -0.0000
vn 0.9659 -0.2588 -0.0000
vn 0.9659 0.2588 -0.0000
vn 0.7071 0.7071 -0.0000
vn 0.8660 -0.0000 0.5000
vn 0.5000 -0.0000 0.8660
vn -0.5000 -0.0000 0.8660
vn -0.8660 -0.0000 0.5000
vn -0.7273 0.6809 0.0860
vn -0.0000 0.9883 0.1526
vn 0.7273 0.6809 0.0860
vn -0.0000 0.6839 0.7296
vn 0.4026 0.5930 0.6973
vn 0.6929 0.5999 0.4000
vn -0.6929 0.5999 0.4000
vn -0.4026 0.5930 0.6973
vn -0.0000 0.6891 -0.7246
vn -0.9318 -0.0000 -0.3630
vn 0.9316 -0.0000 -0.3636
vn 0.8660 -0.0000 -0.5000
vn 0.5000 -0.0000 -0.8660
vn -0.5000 -0.0000 -0.8660
vn -0.8660 -0.0000 -0.5000
vn -0.7273 0.6809 -0.0860
vn -0.0000 0.9883 -0.1526
vn 0.7273 0.6809 -0.0860
vn -0.0000 0.6839 -0.7296
vn 0.4026 0.5930 -0.6973
vn 0.6929 0.5999 -0.4000
vn -0.6929 0.5999 -0.4000
vn -0.4026 0.5930 -0.6973
vn -0.6852 -0.0000 -0.7283
vn -0.6852 -0.0000 0.7283
vn 0.6852 -0.0000 0.7283
vn 0.6852 -0.0000 -0.7283
vn -0.0000 -1.0000 -0.0000
vt 0.515956 0.928488
vt 0.515956 0.928972
vt 0.516388 0.928972
vt 0.516388 0.928488
vt 0.515956 0.903233
vt 0.516388 0.903233
vt 0.451876 0.791862
vt 0.451876 0.817118
vt 0.451555 0.817118
vt 0.451555 0.791863
vt 0.428797 0.849316
vt 0.428797 0.828303
vt 0.429514 0.828491
vt 0.429514 0.849128
vt 0.434669 0.858676
vt 0.434669 0.836453
vt 0.436299 0.837057
vt 0.436299 0.858071
vt 0.471198 0.866507
vt 0.471198 0.769228
vt 0.473478 0.769228
vt 0.473478 0.864554
vt 0.472937 0.866507
vt 0.539084 0.903233
vt 0.539084 0.928488
vt 0.538611 0.928488
vt 0.538611 0.903233
vt 0.394103 0.823421
vt 0.413333 0.796317
vt 0.420557 0.801442
vt 0.401328 0.828547
vt 0.469887 0.769228
vt 0.469887 0.866507
vt 0.468148 0.866507
vt 0.467607 0.864554
vt 0.467607 0.769228
vt 0.450564 0.817118
vt 0.450564 0.791863
vt 0.450885 0.791863
vt 0.450885 0.817118
vt 0.828739 0.674086
vt 0.832331 0.672793
vt 0.830172 0.681319
vt 0.827530 0.679243
vt 0.828917 0.669288
vt 0.832705 0.664592
vt 0.827994 0.665960
vt 0.831062 0.658348
vt 0.808975 0.664212
vt 0.800793 0.664802
vt 0.793411 0.661222
vt 0.788809 0.654432
vt 0.788218 0.646249
vt 0.791798 0.638867
vt 0.798589 0.634265
vt 0.806771 0.633674
vt 0.814153 0.637254
vt 0.818755 0.644045
vt 0.819346 0.652228
vt 0.815766 0.659609
vt 0.826117 0.664963
vt 0.827290 0.655664
vt 0.823779 0.667676
vt 0.822379 0.661950
vt 0.821823 0.672283
vt 0.818858 0.670395
vt 0.820737 0.677479
vt 0.817083 0.679235
vt 0.820725 0.682133
vt 0.817237 0.686819
vt 0.821731 0.685350
vt 0.819240 0.691638
vt 0.823399 0.686686
vt 0.822673 0.692463
vt 0.825585 0.683720
vt 0.826697 0.688456
vt 0.458471 0.720871
vt 0.444595 0.724096
vt 0.444110 0.721391
vt 0.457862 0.718196
vt 0.442892 0.716039
vt 0.456643 0.712844
vt 0.441674 0.710688
vt 0.455425 0.707492
vt 0.440426 0.705158
vt 0.454217 0.702139
vt 0.439228 0.699802
vt 0.453019 0.696782
vt 0.438031 0.694446
vt 0.451822 0.691426
vt 0.437307 0.691795
vt 0.451223 0.688748
vt 0.436824 0.700819
vt 0.438381 0.702553
vt 0.436619 0.709997
vt 0.434374 0.708163
vt 0.436565 0.716483
vt 0.434308 0.716172
vt 0.438190 0.725541
vt 0.436617 0.725783
vt 0.441828 0.712951
vt 0.441782 0.718496
vt 0.440461 0.722773
vt 0.440588 0.707454
vt 0.451876 0.791863
vt 0.450564 0.791862
vt 0.538611 0.928973
vt 0.539084 0.928972
vt 0.578613 0.974068
vt 0.578787 0.973980
vt 0.578300 0.950941
vt 0.578124 0.950945
vt 0.603053 0.978071
vt 0.574036 0.950383
vt 0.574357 0.950376
vt 0.574890 0.975585
vt 0.574570 0.975592
vt 0.578661 0.976309
vt 0.578651 0.975861
vt 0.578827 0.975858
vt 0.575394 0.974450
vt 0.574904 0.951327
vt 0.574614 0.977646
vt 0.524299 0.983310
vt 0.524484 0.983420
vt 0.578651 0.975862
vt 0.575432 0.976243
vt 0.538610 0.928972
vt 0.516388 0.928972
vt 0.457955 0.791863
vt 0.457634 0.791863
vt 0.457634 0.814085
vt 0.457955 0.814085
vt 0.575441 0.976691
s 0
usemtl Atlas
f 118/1/1 117/2/1 116/3/1 119/4/1
f 120/5/1 118/1/1 119/4/1 121/6/1
f 18/24/6 2/25/6 3/26/6 17/27/6
f 21/41/9 23/42/9 44/43/9 22/44/9
f 24/45/10 26/46/10 23/42/10 21/41/10
f 25/47/11 27/48/11 26/46/11 24/45/11
f 44/49/6 23/50/6 26/51/6 27/52/6 28/53/6 29/54/6 34/55/6 35/56/6 36/57/6 37/58/6 42/59/6 43/60/6
f 30/61/12 28/62/12 27/48/12 25/47/12
f 31/63/13 29/64/13 28/62/13 30/61/13
f 32/65/14 34/66/14 29/64/14 31/63/14
f 33/67/15 35/68/15 34/66/15 32/65/15
f 38/69/16 36/70/16 35/68/16 33/67/16
f 39/71/17 37/72/17 36/70/17 38/69/17
f 40/73/18 42/74/18 37/72/18 39/71/18
f 41/75/19 43/76/19 42/74/19 40/73/19
f 22/44/20 44/43/20 43/76/20 41/75/20
f 45/41/9 47/42/9 68/43/9 46/44/9
f 48/45/10 50/46/10 47/42/10 45/41/10
f 49/47/11 51/48/11 50/46/11 48/45/11
f 68/49/6 47/50/6 50/51/6 51/52/6 52/53/6 53/54/6 58/55/6 59/56/6 60/57/6 61/58/6 66/59/6 67/60/6
f 54/61/12 52/62/12 51/48/12 49/47/12
f 55/63/13 53/64/13 52/62/13 54/61/13
f 56/65/14 58/66/14 53/64/14 55/63/14
f 57/67/15 59/68/15 58/66/15 56/65/15
f 62/69/16 60/70/16 59/68/16 57/67/16
f 63/71/17 61/72/17 60/70/17 62/69/17
f 64/73/18 66/74/18 61/72/18 63/71/18
f 65/75/19 67/76/19 66/74/19 64/73/19
f 46/44/20 68/43/20 67/76/20 65/75/20
f 69/41/9 71/42/9 92/43/9 70/44/9
f 72/45/10 74/46/10 71/42/10 69/41/10
f 73/47/11 75/48/11 74/46/11 72/45/11
f 92/49/6 71/50/6 74/51/6 75/52/6 76/53/6 77/54/6 82/55/6 83/56/6 84/57/6 85/58/6 90/59/6 91/60/6
f 78/61/12 76/62/12 75/48/12 73/47/12
f 79/63/13 77/64/13 76/62/13 78/61/13
f 80/65/14 82/66/14 77/64/14 79/63/14
f 81/67/15 83/68/15 82/66/15 80/65/15
f 86/69/16 84/70/16 83/68/16 81/67/16
f 87/71/17 85/72/17 84/70/17 86/69/17
f 88/73/18 90/74/18 85/72/18 87/71/18
f 89/75/19 91/76/19 90/74/19 88/73/19
f 70/44/20 92/43/20 91/76/20 89/75/20
f 94/77/8 112/78/8 95/79/8 93/80/8
f 93/80/21 95/79/21 97/81/21 96/82/21
f 96/82/22 97/81/22 99/83/22 98/84/22
f 98/84/6 99/83/6 101/85/6 100/86/6
f 100/86/23 101/85/23 103/87/23 102/88/23
f 102/88/24 103/87/24 105/89/24 104/90/24
f 104/90/2 105/89/2 107/91/2 106/92/2
f 107/93/25 105/94/25 109/95/25 108/96/25
f 108/96/26 109/95/26 111/97/26 110/98/26
f 110/98/27 111/97/27 95/99/27 112/100/27
f 109/95/28 101/101/28 99/102/28 111/97/28
f 97/103/29 111/97/29 99/102/29
f 111/97/30 97/103/30 95/99/30
f 105/94/31 103/104/31 109/95/31
f 109/95/32 103/104/32 101/101/32
f 130/27/1 115/26/1 114/25/1 131/24/1
f 115/26/1 133/107/1 113/108/1 114/25/1
f 135/41/9 136/44/9 158/43/9 137/42/9
f 138/45/10 135/41/10 137/42/10 140/46/10
f 139/47/11 138/45/11 140/46/11 141/48/11
f 158/49/1 157/60/1 156/59/1 151/58/1 150/57/1 149/56/1 148/55/1 143/54/1 142/53/1 141/52/1 140/51/1 137/50/1
f 144/61/12 139/47/12 141/48/12 142/62/12
f 145/63/13 144/61/13 142/62/13 143/64/13
f 146/65/14 145/63/14 143/64/14 148/66/14
f 147/67/15 146/65/15 148/66/15 149/68/15
f 152/69/16 147/67/16 149/68/16 150/70/16
f 153/71/17 152/69/17 150/70/17 151/72/17
f 154/73/18 153/71/18 151/72/18 156/74/18
f 155/75/19 154/73/19 156/74/19 157/76/19
f 136/44/20 155/75/20 157/76/20 158/43/20
f 159/41/9 160/44/9 182/43/9 161/42/9
f 162/45/10 159/41/10 161/42/10 164/46/10
f 163/47/11 162/45/11 164/46/11 165/48/11
f 182/49/1 181/60/1 180/59/1 175/58/1 174/57/1 173/56/1 172/55/1 167/54/1 166/53/1 165/52/1 164/51/1 161/50/1
f 168/61/12 163/47/12 165/48/12 166/62/12
f 169/63/13 168/61/13 166/62/13 167/64/13
f 170/65/14 169/63/14 167/64/14 172/66/14
f 171/67/15 170/65/15 172/66/15 173/68/15
f 176/69/16 171/67/16 173/68/16 174/70/16
f 177/71/17 176/69/17 174/70/17 175/72/17
f 178/73/18 177/71/18 175/72/18 180/74/18
f 179/75/19 178/73/19 180/74/19 181/76/19
f 160/44/20 179/75/20 181/76/20 182/43/20
f 183/41/9 184/44/9 206/43/9 185/42/9
f 186/45/10 183/41/10 185/42/10 188/46/10
f 187/47/11 186/45/11 188/46/11 189/48/11
f 206/49/1 205/60/1 204/59/1 199/58/1 198/57/1 197/56/1 196/55/1 191/54/1 190/53/1 189/52/1 188/51/1 185/50/1
f 192/61/12 187/47/12 189/48/12 190/62/12
f 193/63/13 192/61/13 190/62/13 191/64/13
f 194/65/14 193/63/14 191/64/14 196/66/14
f 195/67/15 194/65/15 196/66/15 197/68/15
f 200/69/16 195/67/16 197/68/16 198/70/16
f 201/71/17 200/69/17 198/70/17 199/72/17
f 202/73/18 201/71/18 199/72/18 204/74/18
f 203/75/19 202/73/19 204/74/19 205/76/19
f 184/44/20 203/75/20 205/76/20 206/43/20
f 208/77/8 207/80/8 209/79/8 226/78/8
f 207/80/36 210/82/36 211/81/36 209/79/36
f 210/82/37 212/84/37 213/83/37 211/81/37
f 212/84/1 214/86/1 215/85/1 213/83/1
f 214/86/38 216/88/38 217/87/38 215/85/38
f 216/88/39 218/90/39 219/89/39 217/87/39
f 218/90/2 220/92/2 221/91/2 219/89/2
f 221/93/40 222/96/40 223/95/40 219/94/40
f 222/96/41 224/98/41 225/97/41 223/95/41
f 224/98/42 226/100/42 209/99/42 225/97/42
f 223/95/43 225/97/43 213/102/43 215/101/43
f 211/103/44 213/102/44 225/97/44
f 225/97/45 209/99/45 211/103/45
f 219/94/46 223/95/46 217/104/46
f 223/95/47 215/101/47 217/104/47
f 240/109/48 237/110/48 239/111/48 235/112/48
f 241/113/4 233/113/4 261/113/4 262/113/4
f 231/114/6 230/115/6 228/116/6 229/117/6
f 233/118/49 269/119/49 234/120/49
f 232/121/2 240/121/2 235/122/2 227/122/2
f 228/116/6 244/116/6 268/123/6 263/123/6
f 239/114/1 237/117/1 236/116/1 238/115/1
f 248/109/50 245/110/50 247/111/50 243/112/50
f 241/118/48 242/120/48 270/119/48
f 228/116/8 230/115/8 238/115/8 236/116/8
f 234/124/3 263/124/3 261/125/3 233/125/3
f 256/109/51 251/112/51 255/111/51 253/110/51
f 247/114/6 245/117/6 244/116/6 246/115/6
f 249/118/50 250/120/50 271/126/50
f 256/121/8 272/127/8 271/127/8 248/121/8
f 237/117/1 242/123/1 264/123/1 236/116/1
f 251/122/8 256/121/8 248/121/8 243/122/8
f 242/124/33 241/125/33 262/125/33 264/124/33
f 252/116/1 253/117/1 255/114/1 254/115/1
f 257/118/51 272/126/51 258/120/51
f 232/109/49 227/112/49 231/111/49 229/110/49
f 252/116/2 254/115/2 246/115/2 244/116/2
f 228/116/52 236/116/52 252/116/52 244/116/52
f 7/5/6 8/6/6 6/4/6 5/1/6
f 240/121/2 232/121/2 269/127/2 270/127/2
f 6/4/6 3/26/6 260/128/6 259/129/6
f 119/4/1 116/3/1 133/107/1 115/26/1
f 6/4/6 259/129/6 4/2/6 5/1/6
f 260/128/6 3/26/6 2/25/6 1/108/6
f 261/125/3 263/124/3 268/124/3 266/125/3
f 262/113/4 261/113/4 266/113/4 267/113/4
f 236/116/1 264/123/1 265/123/1 252/116/1
f 264/124/33 262/125/33 267/125/33 265/124/33
f 263/123/6 234/123/6 229/117/6 228/116/6
f 267/113/4 266/113/4 249/113/4 257/113/4
f 252/116/1 265/123/1 258/123/1 253/117/1
f 265/124/33 267/125/33 257/125/33 258/124/33
f 266/125/3 268/124/3 250/124/3 249/125/3
f 268/123/6 244/116/6 245/117/6 250/123/6
f 234/120/49 269/119/49 232/109/49 229/110/49
f 270/119/48 242/120/48 237/110/48 240/109/48
f 270/127/2 269/127/2 233/134/2 241/134/2
f 258/120/51 272/126/51 256/109/51 253/110/51
f 271/126/50 250/120/50 245/110/50 248/109/50
f 271/127/8 272/127/8 257/134/8 249/134/8
usemtl Atlas_Metallic
f 9/7/2 20/8/2 6/9/2 8/10/2
f 14/11/3 12/12/3 11/13/3 13/14/3
f 19/15/4 20/16/4 12/17/4 14/18/4
f 20/19/5 9/20/5 10/21/5 11/22/5 12/23/5
f 11/28/6 10/29/6 15/30/6 13/31/6
f 16/32/7 19/33/7 14/34/7 13/35/7 15/36/7
f 19/37/8 16/38/8 17/39/8 3/40/8
f 121/10/2 119/9/2 134/8/2 122/105/2
f 127/11/33 126/14/33 124/13/33 125/12/33
f 127/18/4 125/17/4 134/16/4 132/15/4
f 134/19/34 125/23/34 124/22/34 123/21/34 122/20/34
f 123/29/1 124/28/1 126/31/1 128/30/1
f 129/32/35 128/36/35 126/35/35 127/34/35 132/33/35
f 132/37/8 115/40/8 130/39/8 129/106/8
f 134/130/4 119/131/4 115/132/4 132/133/4
f 20/130/4 19/133/4 3/132/4 6/131/4
