# Blender 4.2.0
# www.blender.org
mtllib Wall_Grey.mtl
o Wall_Grey
v -2.000000 0.000009 0.094916
v -1.620709 3.633321 0.162073
v -1.928620 3.633321 0.162073
v -1.620709 0.000009 0.162072
v -1.928620 0.000009 0.162072
v -2.000000 3.646562 0.094916
v -2.000000 4.000009 0.094916
v -1.928620 3.929392 0.162073
v -2.000000 0.000009 -0.094916
v -1.620709 3.633321 -0.162073
v -1.928620 3.633321 -0.162073
v -1.620709 0.000009 -0.162072
v -1.928620 0.000009 -0.162072
v -2.000000 3.646562 -0.094916
v -2.000000 4.000009 -0.094916
v -1.928620 3.929392 -0.162073
v 2.000000 0.000009 0.094916
v 1.620709 3.633321 0.162073
v 1.928620 3.633321 0.162073
v 1.620709 0.000009 0.162072
v 1.928620 0.000009 0.162072
v 2.000000 3.646562 0.094916
v 2.000000 4.000009 0.094916
v 1.928620 3.929392 0.162073
v 2.000000 0.000009 -0.094916
v 1.620709 3.633321 -0.162073
v 1.928620 3.633321 -0.162073
v 1.620709 0.000009 -0.162072
v 1.928620 0.000009 -0.162072
v 2.000000 3.646562 -0.094916
v 2.000000 4.000009 -0.094916
v 1.928620 3.929392 -0.162073
v 0.000000 3.564998 0.168354
v 0.000000 0.000009 0.368629
v 0.000000 3.564998 0.321120
v 0.000000 3.164855 0.368629
v -1.262371 3.164855 0.368629
v 0.000000 3.564998 0.138332
v -1.563846 3.564998 0.138332
v -1.563846 0.000009 0.138332
v -1.624768 0.000009 0.138332
v 0.000000 3.633322 0.138332
v -1.624768 3.633322 0.138332
v 0.000000 3.493425 0.368629
v -1.452074 3.493425 0.368629
v -1.563846 1.952726 0.168354
v -1.563846 2.047293 0.168354
v -1.563846 2.000009 0.138670
v 0.000000 1.908427 0.368629
v 0.000000 1.813860 0.368629
v 0.000000 1.863286 0.329549
v -1.228185 1.863286 0.329549
v -1.452074 1.952623 0.368629
v -1.452074 2.047395 0.368629
v -1.412767 1.998403 0.329549
v 1.563846 0.000009 0.168354
v 1.452074 0.000009 0.368629
v 1.262371 3.164855 0.368629
v 1.478589 3.564998 0.321120
v 1.563846 2.000009 0.138332
v 1.563846 0.110027 0.138332
v 1.563846 0.000009 0.138332
v 1.624768 0.000009 0.138332
v 1.624768 3.564998 0.138332
v 1.563846 1.952726 0.168354
v 1.563846 2.047293 0.168354
v 1.563846 2.000009 0.138670
v 1.203671 1.908529 0.368629
v 1.452074 1.952623 0.368629
v 1.412767 1.998403 0.329549
v -1.262371 0.000009 0.368629
v 1.262371 0.000009 0.368629
v 1.563846 3.564998 0.168354
v 1.563846 3.564998 0.138332
v 1.624768 2.000009 0.138332
v 1.624768 3.633322 0.138332
v 1.452074 3.493425 0.368629
v 1.521521 1.998403 0.172216
v 1.262371 1.813757 0.368629
v 1.228185 1.863286 0.329549
v 1.452074 2.047395 0.368629
v -1.563846 0.000009 0.168354
v -1.563846 3.564998 0.168354
v -1.452074 0.000009 0.368629
v -1.478589 3.564998 0.321120
v -1.563846 2.000009 0.138332
v -1.563846 0.110027 0.138332
v -1.624768 3.564998 0.138332
v -1.624768 2.000009 0.138332
v -1.521521 1.998403 0.172216
v -1.203671 1.908529 0.368629
v -1.262371 1.813757 0.368629
v 0.000000 3.564998 -0.168354
v -1.563846 0.000009 -0.168354
v -1.452074 0.000009 -0.368629
v 0.000000 0.000009 -0.368629
v 0.000000 3.564998 -0.321120
v 0.000000 3.164855 -0.368629
v -1.262371 3.164855 -0.368629
v -1.478589 3.564998 -0.321120
v 0.000000 3.564998 -0.138332
v -1.563846 3.564998 -0.138332
v -1.563846 2.000009 -0.138332
v -1.624768 0.000009 -0.138332
v 0.000000 3.633322 -0.138332
v -1.624768 3.633322 -0.138332
v 0.000000 3.493425 -0.368629
v -1.452074 3.493425 -0.368629
v -1.563846 1.952726 -0.168354
v -1.563846 2.047293 -0.168354
v -1.521521 1.998403 -0.172216
v 0.000000 1.908427 -0.368629
v 0.000000 1.813860 -0.368629
v 0.000000 1.863286 -0.329549
v -1.203671 1.908529 -0.368629
v -1.452074 1.952623 -0.368629
v -1.412767 1.998403 -0.329549
v 1.563846 0.000009 -0.168354
v 1.563846 3.564998 -0.168354
v 1.452074 0.000009 -0.368629
v 1.262371 3.164855 -0.368629
v 1.563846 2.000009 -0.138332
v 1.624768 3.564998 -0.138332
v 1.624768 2.000009 -0.138332
v 1.563846 1.952726 -0.168354
v 1.563846 2.047293 -0.168354
v 1.563846 2.000009 -0.138670
v 1.203671 1.908529 -0.368629
v 1.262371 1.813757 -0.368629
v 1.228185 1.863286 -0.329549
v -1.262371 0.000009 -0.368629
v 1.262371 0.000009 -0.368629
v 1.478589 3.564998 -0.321120
v 1.563846 3.564998 -0.138332
v 1.563846 0.110027 -0.138332
v 1.563846 0.000009 -0.138332
v 1.624768 0.000009 -0.138332
v 1.624768 3.633322 -0.138332
v 1.452074 3.493425 -0.368629
v 1.521521 1.998403 -0.172216
v 1.452074 1.952623 -0.368629
v 1.452074 2.047395 -0.368629
v 1.412767 1.998403 -0.329549
v -1.563846 3.564998 -0.168354
v -1.563846 0.110027 -0.138332
v -1.563846 0.000009 -0.138332
v -1.624768 3.564998 -0.138332
v -1.624768 2.000009 -0.138332
v -1.563846 2.000009 -0.138670
v -1.262371 1.813757 -0.368629
v -1.228185 1.863286 -0.329549
v -1.452074 2.047395 -0.368629
v -1.620709 4.000009 -0.094916
v -1.620710 3.929392 0.162073
v -1.620710 3.929392 -0.162073
v -1.620709 4.000009 0.094916
v 1.617113 3.633321 0.162073
v 1.617113 3.633321 -0.162073
v 1.617113 4.000009 0.094916
v 1.617113 4.000009 -0.094916
v 1.617114 3.929392 0.162073
v 1.617114 3.929392 -0.162073
vn -0.6852 -0.0000 -0.7283
vn -0.0000 1.0000 -0.0000
vn -0.0000 -0.0000 1.0000
vn -0.6852 -0.0000 0.7283
vn -1.0000 -0.0000 -0.0000
vn -0.0000 -0.0000 -1.0000
vn 0.6852 -0.0000 0.7283
vn 1.0000 -0.0000 -0.0000
vn -0.0000 0.6891 0.7246
vn 0.6852 -0.0000 -0.7283
vn -0.0000 0.6891 -0.7246
vn -0.0000 -1.0000 -0.0000
vn -0.0000 0.5530 0.8332
vn -0.8732 -0.0000 0.4873
vn -0.5456 0.4456 0.7098
vn -0.5687 -0.4373 0.6966
vn -0.6134 0.6932 0.3784
vn -0.6330 -0.6684 0.3905
vn -0.0000 -0.6541 0.7564
vn -0.0000 0.6198 0.7847
vn -0.3940 -0.6226 0.6761
vn 0.3218 0.4396 0.8386
vn 0.8732 -0.0000 0.4873
vn 0.5456 0.4456 0.7098
vn 0.5687 -0.4373 0.6966
vn 0.6134 0.6932 0.3784
vn 0.6330 -0.6684 0.3905
vn 0.3940 -0.6226 0.6761
vn -0.3218 0.4396 0.8386
vn -0.0000 0.5530 -0.8332
vn -0.8732 -0.0000 -0.4873
vn -0.5456 0.4456 -0.7098
vn -0.5687 -0.4373 -0.6966
vn -0.6134 0.6932 -0.3784
vn -0.6330 -0.6684 -0.3905
vn -0.0000 -0.6541 -0.7564
vn -0.3940 -0.6226 -0.6761
vn 0.3218 0.4396 -0.8386
vn 0.8732 -0.0000 -0.4873
vn 0.5456 0.4456 -0.7098
vn 0.5687 -0.4373 -0.6966
vn 0.6134 0.6932 -0.3784
vn 0.6330 -0.6684 -0.3905
vn -0.0000 0.6198 -0.7847
vn 0.3940 -0.6226 -0.6761
vn -0.3218 0.4396 -0.8386
vt 0.578613 0.974068
vt 0.578787 0.973980
vt 0.578300 0.950941
vt 0.578124 0.950945
vt 0.603053 0.978071
vt 0.574036 0.950383
vt 0.574357 0.950376
vt 0.574890 0.975585
vt 0.574570 0.975592
vt 0.578661 0.976309
vt 0.578827 0.975858
vt 0.575394 0.974450
vt 0.574904 0.951327
vt 0.574614 0.977646
vt 0.574614 0.977646
vt 0.524299 0.983310
vt 0.524484 0.983420
vt 0.575441 0.976691
vt 0.691857 0.914406
vt 0.691857 0.928240
vt 0.691540 0.928575
vt 0.691537 0.928575
vt 0.691537 0.915186
vt 0.691537 0.914406
vt 0.691857 0.928910
vt 0.691857 0.939662
vt 0.691537 0.939662
vt 0.643279 0.934002
vt 0.646411 0.936222
vt 0.639495 0.945971
vt 0.636364 0.943749
vt 0.668778 0.961323
vt 0.668778 0.950846
vt 0.669496 0.951034
vt 0.669496 0.961323
vt 0.653785 0.919194
vt 0.656916 0.921416
vt 0.646931 0.935489
vt 0.643801 0.933267
vt 0.697936 0.914406
vt 0.697936 0.925485
vt 0.697616 0.925485
vt 0.697616 0.914406
vt 0.711180 0.945056
vt 0.711180 0.891772
vt 0.713459 0.891772
vt 0.713459 0.945054
vt 0.515956 0.917401
vt 0.516388 0.917401
vt 0.516388 0.928488
vt 0.515956 0.928488
vt 0.515956 0.903233
vt 0.516388 0.904012
vt 0.516388 0.903233
vt 0.634085 0.945965
vt 0.642044 0.934745
vt 0.637686 0.948520
vt 0.642566 0.934010
vt 0.653314 0.918861
vt 0.691857 0.928575
vt 0.713459 0.946347
vt 0.711180 0.946347
vt 0.713459 0.947640
vt 0.711180 0.947637
vt 0.643540 0.933634
vt 0.646671 0.935856
vt 0.642305 0.934378
vt 0.711180 0.989051
vt 0.713459 0.987098
vt 0.712918 0.989051
vt 0.515956 0.928972
vt 0.527467 0.928972
vt 0.527467 0.928488
vt 0.674650 0.970076
vt 0.676280 0.970077
vt 0.676280 0.959601
vt 0.674650 0.958997
vt 0.524484 0.983420
vt 0.524299 0.983310
s 0
usemtl Atlas
f 14/1/1 11/2/1 13/3/1 9/4/1
f 15/5/2 7/5/2 156/5/2 153/5/2
f 5/6/3 4/7/3 2/8/3 3/9/3
f 7/10/4 6/1/4 3/2/4 8/11/4
f 6/12/5 14/12/5 9/13/5 1/13/5
f 2/8/3 157/8/3 161/14/3 154/15/3
f 13/6/6 11/9/6 10/8/6 12/7/6
f 22/1/7 19/2/7 21/3/7 17/4/7
f 15/10/1 16/11/1 11/2/1 14/1/1
f 2/8/8 4/7/8 12/7/8 10/8/8
f 8/16/9 154/16/9 156/17/9 7/17/9
f 30/1/10 25/4/10 29/3/10 27/2/10
f 21/6/3 19/9/3 18/8/3 20/7/3
f 23/10/7 24/11/7 19/2/7 22/1/7
f 30/12/8 31/18/8 23/18/8 22/12/8
f 11/9/6 16/15/6 155/15/6 10/8/6
f 25/13/8 30/12/8 22/12/8 17/13/8
f 16/16/11 15/17/11 153/17/11 155/16/11
f 26/8/6 27/9/6 29/6/6 28/7/6
f 31/10/10 30/1/10 27/2/10 32/11/10
f 6/1/4 1/4/4 5/3/4 3/2/4
f 26/8/5 28/7/5 20/7/5 18/8/5
f 2/8/12 10/8/12 158/8/12 157/8/12
f 82/19/5 46/20/5 48/21/5 86/22/5 87/23/5
f 82/19/5 87/23/5 40/24/5
f 48/21/5 47/25/5 83/26/5 39/27/5 86/22/5
f 83/40/2 33/41/2 38/42/2 39/43/2
f 89/48/3 86/49/3 39/50/3 88/51/3
f 63/52/3 75/48/3 60/49/3 61/53/3 62/54/3
f 46/20/15 90/60/15 48/21/15
f 90/60/16 47/60/16 48/21/16
f 64/51/3 76/71/3 42/72/3 38/73/3 74/50/3
f 56/19/8 61/23/8 60/22/8 67/21/8 65/20/8
f 56/19/8 62/24/8 61/23/8
f 67/21/8 60/22/8 74/27/8 73/26/8 66/25/8
f 33/74/2 35/75/2 59/76/2 73/77/2
f 75/48/3 64/51/3 74/50/3 60/49/3
f 65/20/24 67/21/24 78/60/24
f 78/60/25 67/21/25 66/60/25
f 88/51/3 39/50/3 38/73/3 42/72/3 43/71/3
f 41/52/3 40/54/3 87/53/3 86/49/3 89/48/3
f 73/40/2 74/43/2 38/42/2 33/41/2
f 33/74/2 83/77/2 85/76/2 35/75/2
f 94/19/5 145/23/5 103/22/5 149/21/5 109/20/5
f 94/19/5 146/24/5 145/23/5
f 149/21/5 103/22/5 102/27/5 144/26/5 110/25/5
f 93/74/2 97/75/2 100/76/2 144/77/2
f 144/40/2 102/43/2 101/42/2 93/41/2
f 148/48/6 147/51/6 102/50/6 103/49/6
f 137/52/6 136/54/6 135/53/6 122/49/6 124/48/6
f 109/20/32 149/21/32 111/60/32
f 111/60/33 149/21/33 110/60/33
f 123/51/6 134/50/6 101/73/6 105/72/6 138/71/6
f 118/19/8 125/20/8 127/21/8 122/22/8 135/23/8
f 118/19/8 135/23/8 136/24/8
f 127/21/8 126/25/8 119/26/8 134/27/8 122/22/8
f 93/74/2 119/77/2 133/76/2 97/75/2
f 119/40/2 93/41/2 101/42/2 134/43/2
f 124/48/6 122/49/6 134/50/6 123/51/6
f 125/20/40 140/60/40 127/21/40
f 140/60/41 126/60/41 127/21/41
f 147/51/6 106/71/6 105/72/6 101/73/6 102/50/6
f 104/52/6 148/48/6 103/49/6 145/53/6 146/54/6
f 14/12/5 6/12/5 7/18/5 15/18/5
f 155/16/11 153/17/11 160/78/11 162/79/11
f 154/15/3 8/15/3 3/9/3 2/8/3
f 153/5/2 156/5/2 159/5/2 160/5/2
f 156/17/9 154/16/9 161/79/9 159/78/9
f 10/8/6 155/15/6 162/14/6 158/8/6
f 157/8/12 158/8/12 26/8/12 18/8/12
f 160/5/2 159/5/2 23/5/2 31/5/2
f 161/14/3 157/8/3 18/8/3 19/9/3 24/15/3
f 159/78/9 161/79/9 24/16/9 23/17/9
f 158/8/6 162/14/6 32/15/6 27/9/6 26/8/6
f 162/79/11 160/78/11 31/17/11 32/16/11
usemtl Atlas_Metallic
f 91/28/3 49/29/3 36/30/3 37/31/3
f 35/32/13 85/33/13 45/34/13 44/35/13
f 71/36/3 34/37/3 50/38/3 92/39/3
f 46/44/14 82/45/14 84/46/14 53/47/14
f 91/28/3 37/31/3 45/55/3 54/56/3
f 37/31/3 36/30/3 44/57/3 45/55/3
f 71/36/3 92/39/3 53/58/3 84/59/3
f 46/44/17 53/47/17 55/61/17 90/62/17
f 90/62/18 55/61/18 54/63/18 47/64/18
f 49/29/19 91/28/19 52/65/19 51/66/19
f 51/66/20 52/65/20 92/39/20 50/38/20
f 91/28/21 54/56/21 55/67/21 52/65/21
f 52/65/22 55/67/22 53/58/22 92/39/22
f 83/68/14 47/64/14 54/63/14 45/69/14 85/70/14
f 68/28/3 58/31/3 36/30/3 49/29/3
f 35/32/13 44/35/13 77/34/13 59/33/13
f 72/36/3 79/39/3 50/38/3 34/37/3
f 65/44/23 69/47/23 57/46/23 56/45/23
f 68/28/3 81/56/3 77/55/3 58/31/3
f 58/31/3 77/55/3 44/57/3 36/30/3
f 72/36/3 57/59/3 69/58/3 79/39/3
f 65/44/26 78/62/26 70/61/26 69/47/26
f 78/62/27 66/64/27 81/63/27 70/61/27
f 49/29/19 51/66/19 80/65/19 68/28/19
f 68/28/28 80/65/28 70/67/28 81/56/28
f 80/65/29 79/39/29 69/58/29 70/67/29
f 73/68/23 59/70/23 77/69/23 81/63/23 66/64/23
f 51/66/20 50/38/20 79/39/20 80/65/20
f 115/28/6 99/31/6 98/30/6 112/29/6
f 97/32/30 107/35/30 108/34/30 100/33/30
f 131/36/6 150/39/6 113/38/6 96/37/6
f 109/44/31 116/47/31 95/46/31 94/45/31
f 115/28/6 152/56/6 108/55/6 99/31/6
f 99/31/6 108/55/6 107/57/6 98/30/6
f 131/36/6 95/59/6 116/58/6 150/39/6
f 109/44/34 111/62/34 117/61/34 116/47/34
f 111/62/35 110/64/35 152/63/35 117/61/35
f 112/29/36 114/66/36 151/65/36 115/28/36
f 115/28/37 151/65/37 117/67/37 152/56/37
f 151/65/38 150/39/38 116/58/38 117/67/38
f 144/68/31 100/70/31 108/69/31 152/63/31 110/64/31
f 128/28/6 112/29/6 98/30/6 121/31/6
f 132/36/6 96/37/6 113/38/6 129/39/6
f 125/44/39 118/45/39 120/46/39 141/47/39
f 128/28/6 121/31/6 139/55/6 142/56/6
f 121/31/6 98/30/6 107/57/6 139/55/6
f 132/36/6 129/39/6 141/58/6 120/59/6
f 125/44/42 141/47/42 143/61/42 140/62/42
f 140/62/43 143/61/43 142/63/43 126/64/43
f 112/29/36 128/28/36 130/65/36 114/66/36
f 114/66/44 130/65/44 129/39/44 113/38/44
f 128/28/45 142/56/45 143/67/45 130/65/45
f 130/65/46 143/67/46 141/58/46 129/39/46
f 119/68/39 126/64/39 142/63/39 139/69/39 133/70/39
f 97/32/30 133/33/30 139/34/30 107/35/30
f 114/66/44 113/38/44 150/39/44 151/65/44
