# Blender 4.2.0
# www.blender.org
mtllib Wall_Display_Orange.mtl
o Wall_Display_Orange
v -0.771967 0.705306 -0.123443
v -0.771967 3.161196 -0.123443
v -0.577321 0.762610 0.013899
v -0.577321 3.103892 0.013899
v -0.577321 0.705306 -0.123443
v -0.577321 3.161196 -0.123443
v -0.577321 0.705306 0.071203
v -0.577321 3.103892 -0.066139
v -0.577321 0.762610 -0.066139
v -0.577321 3.161196 0.071203
v -0.659448 0.705306 0.071203
v -0.771967 0.705306 -0.041315
v -0.739011 0.705306 0.038247
v -0.771967 3.161196 -0.041315
v -0.659448 3.161196 0.071203
v -0.739011 3.161196 0.038247
v 0.771967 0.705306 -0.123443
v 0.771967 3.161196 -0.123443
v 0.577321 0.762610 0.013899
v 0.577321 3.103892 0.013899
v 0.577321 0.705306 -0.123443
v 0.577321 3.161196 -0.123443
v 0.577321 0.705306 0.071203
v 0.577321 3.103892 -0.066139
v 0.577321 0.762610 -0.066139
v 0.577321 3.161196 0.071203
v 0.659448 0.705306 0.071203
v 0.771967 0.705306 -0.041315
v 0.739011 0.705306 0.038247
v 0.771967 3.161196 -0.041315
v 0.659448 3.161196 0.071203
v 0.739011 3.161196 0.038247
vn -0.0000 -0.0000 1.0000
vn -0.0000 1.0000 -0.0000
vn -1.0000 -0.0000 -0.0000
vn 1.0000 -0.0000 -0.0000
vn -0.3827 -0.0000 0.9239
vn -0.9239 -0.0000 0.3827
vn -0.0000 -1.0000 -0.0000
vn 0.3827 -0.0000 0.9239
vn 0.9239 -0.0000 0.3827
vt 0.301551 0.057548
vt 0.301551 0.067042
vt 0.301234 0.067042
vt 0.301234 0.057548
vt 0.303900 0.067450
vt 0.303148 0.067450
vt 0.303148 0.067132
vt 0.303275 0.066825
vt 0.303583 0.066697
vt 0.303900 0.066697
vt 0.301967 0.057548
vt 0.301967 0.067042
vt 0.301650 0.067042
vt 0.301650 0.057548
vt 0.298981 0.066820
vt 0.298981 0.057770
vt 0.299202 0.057548
vt 0.299202 0.067042
vt 0.298671 0.057770
vt 0.298450 0.057548
vt 0.298671 0.066820
vt 0.298450 0.067042
vt 0.438306 0.603889
vt 0.436953 0.603889
vt 0.436953 0.601143
vt 0.438306 0.601143
vt 0.300901 0.067042
vt 0.300901 0.057548
vt 0.302300 0.057548
vt 0.302300 0.067042
vt 0.306453 0.066697
vt 0.306453 0.067450
vt 0.305701 0.067450
vt 0.305701 0.067132
vt 0.305828 0.066825
vt 0.306135 0.066697
vt 0.438336 0.603881
vt 0.438336 0.602527
vt 0.438430 0.602527
vt 0.438430 0.603881
vt 0.300152 0.057548
vt 0.300469 0.057548
vt 0.300469 0.067042
vt 0.300152 0.067042
vt 0.304751 0.067450
vt 0.303999 0.067450
vt 0.303999 0.067132
vt 0.304126 0.066825
vt 0.304433 0.066697
vt 0.304751 0.066697
vt 0.302732 0.057548
vt 0.303049 0.057548
vt 0.303049 0.067042
vt 0.302732 0.067042
vt 0.299522 0.066820
vt 0.299301 0.067042
vt 0.299301 0.057548
vt 0.299522 0.057770
vt 0.300053 0.057548
vt 0.299832 0.057770
vt 0.299832 0.066820
vt 0.300053 0.067042
vt 0.300802 0.057548
vt 0.300802 0.067042
vt 0.302399 0.057548
vt 0.302399 0.067042
vt 0.304850 0.066697
vt 0.305167 0.066697
vt 0.305475 0.066825
vt 0.305602 0.067132
vt 0.305602 0.067450
vt 0.304850 0.067450
vt 0.438430 0.601143
vt 0.438430 0.602497
vt 0.438336 0.602497
vt 0.438336 0.601143
s 0
usemtl Atlas_Metallic
f 7/1/1 10/2/1 15/3/1 11/4/1
f 6/5/2 2/6/2 14/7/2 16/8/2 15/9/2 10/10/2
f 12/11/3 14/12/3 2/13/3 1/14/3
f 8/15/4 9/16/4 5/17/4 6/18/4
f 9/16/4 3/19/4 7/20/4 5/17/4
f 4/21/4 8/15/4 6/18/4 10/22/4
f 3/19/4 4/21/4 10/22/4 7/20/4
f 11/4/5 15/3/5 16/27/5 13/28/5
f 13/29/6 16/30/6 14/12/6 12/11/6
f 1/31/7 5/32/7 7/33/7 11/34/7 13/35/7 12/36/7
f 23/41/1 27/42/1 31/43/1 26/44/1
f 22/45/2 26/46/2 31/47/2 32/48/2 30/49/2 18/50/2
f 28/51/4 17/52/4 18/53/4 30/54/4
f 24/55/3 22/56/3 21/57/3 25/58/3
f 25/58/3 21/57/3 23/59/3 19/60/3
f 20/61/3 26/62/3 22/56/3 24/55/3
f 19/60/3 23/59/3 26/62/3 20/61/3
f 27/42/8 29/63/8 32/64/8 31/43/8
f 29/65/9 28/51/9 30/54/9 32/66/9
f 17/67/7 28/68/7 29/69/7 27/70/7 23/71/7 21/72/7
usemtl Atlas_Emissive
f 20/23/1 4/24/1 3/25/1 19/26/1
f 4/37/2 20/38/2 24/39/2 8/40/2
f 9/73/7 25/74/7 19/75/7 3/76/7
