# Blender 4.2.0
# www.blender.org
mtllib Wall_Green.mtl
o Wall_Green
v 1.639837 3.633312 0.028350
v 1.639837 3.564988 0.028350
v 1.573019 3.564988 0.028350
v 0.000000 3.633312 0.028350
v 0.000000 3.610165 0.028350
v -0.045177 3.564988 0.028350
v 0.045177 3.564988 0.028350
v 0.000003 3.542810 0.032372
v 0.000166 3.542810 0.290100
v -0.045011 3.564988 0.290227
v 0.000217 3.472371 0.310187
v 0.045344 3.564988 0.290227
v 0.045395 3.493415 0.358293
v 1.487596 3.564988 0.290227
v 1.461030 3.493415 0.358293
v 1.271326 3.164846 0.358293
v 0.045395 3.164846 0.358293
v 0.000217 3.149006 0.310187
v -0.044959 3.164846 0.358293
v -1.262371 3.164846 0.358293
v -1.452075 3.493415 0.358293
v -1.563846 3.564988 0.028350
v -1.624768 3.564988 0.028350
v -1.624768 3.633312 0.028350
v -1.624768 0.000000 0.028350
v -1.563846 0.000000 0.028350
v -1.452075 0.000000 0.358293
v -0.044959 0.000000 0.358293
v 0.000217 0.000538 0.310187
v 0.045395 0.000000 0.358293
v 1.461030 0.000000 0.358293
v -1.262371 0.000000 0.358293
v 1.573019 0.000000 0.028350
v 1.271326 0.000000 0.358293
v 1.639837 0.000000 0.028350
v -1.478589 3.564988 0.290227
v -0.044959 3.493415 0.358293
v 1.639837 3.633312 -0.028350
v 1.639837 3.564988 -0.028350
v 1.573019 3.564988 -0.028350
v 0.000000 3.633312 -0.028350
v 0.000000 3.610165 -0.028350
v -0.045177 3.564988 -0.028350
v 0.045177 3.564988 -0.028350
v 0.000003 3.542810 -0.032372
v 0.000166 3.542810 -0.290100
v -0.045011 3.564988 -0.290227
v 0.000217 3.472371 -0.310187
v 0.045344 3.564988 -0.290227
v 0.045395 3.493415 -0.358293
v 1.487596 3.564988 -0.290227
v 1.461030 3.493415 -0.358293
v 1.271326 3.164846 -0.358293
v 0.045395 3.164846 -0.358293
v 0.000217 3.149006 -0.310187
v -0.044959 3.164846 -0.358293
v -1.262371 3.164846 -0.358293
v -1.452075 3.493415 -0.358293
v -1.563846 3.564988 -0.028350
v -1.624768 3.564988 -0.028350
v -1.624768 3.633312 -0.028350
v -1.624768 0.000000 -0.028350
v -1.563846 0.000000 -0.028350
v -1.452075 0.000000 -0.358293
v -0.044959 0.000000 -0.358293
v 0.000217 0.000538 -0.310187
v 0.045395 0.000000 -0.358293
v 1.461030 0.000000 -0.358293
v -1.262371 0.000000 -0.358293
v 1.573019 0.000000 -0.028350
v 1.271326 0.000000 -0.358293
v 1.639837 0.000000 -0.028350
v -1.478589 3.564988 -0.290227
v -0.044959 3.493415 -0.358293
v -2.000000 0.000009 0.094916
v -1.620709 3.633321 0.162073
v -1.928620 3.633321 0.162073
v -1.620709 0.000009 0.162072
v -1.928620 0.000009 0.162072
v -2.000000 3.646562 0.094916
v -2.000000 4.000009 0.094916
v -1.928620 3.929392 0.162073
v -2.000000 0.000009 -0.094916
v -1.620709 3.633321 -0.162073
v -1.928620 3.633321 -0.162073
v -1.620709 0.000009 -0.162072
v -1.928620 0.000009 -0.162072
v -2.000000 3.646562 -0.094916
v -2.000000 4.000009 -0.094916
v -1.928620 3.929392 -0.162073
v 2.000000 0.000009 0.094916
v 1.620709 3.633321 0.162073
v 1.928620 3.633321 0.162073
v 1.620709 0.000009 0.162072
v 1.928620 0.000009 0.162072
v 2.000000 3.646562 0.094916
v 2.000000 4.000009 0.094916
v 1.928620 3.929392 0.162073
v 2.000000 0.000009 -0.094916
v 1.620709 3.633321 -0.162073
v 1.928620 3.633321 -0.162073
v 1.620709 0.000009 -0.162072
v 1.928620 0.000009 -0.162072
v 2.000000 3.646562 -0.094916
v 2.000000 4.000009 -0.094916
v 1.928620 3.929392 -0.162073
v -1.620710 3.929392 0.162073
v -1.620710 3.929392 -0.162073
v -1.620709 4.000009 0.094916
v -1.620709 4.000009 -0.094916
v 1.620709 3.929392 0.162073
v 1.620709 4.000009 0.094916
v 1.620709 4.000009 -0.094916
v 1.620709 3.929392 -0.162073
vn -0.0000 -0.0000 1.0000
vn -0.0000 -0.0000 -1.0000
vn -0.0595 0.0595 0.9965
vn 0.0595 0.0595 0.9965
vn 0.4407 0.8977 -0.0003
vn -0.4407 0.8977 0.0003
vn 0.5767 0.4312 0.6939
vn -0.5766 0.4306 0.6943
vn -0.0000 0.6891 0.7246
vn -0.0000 1.0000 -0.0000
vn 0.7290 -0.0000 0.6846
vn -0.7289 -0.0000 0.6846
vn -0.9472 -0.0005 0.3208
vn -0.0000 -1.0000 -0.0000
vn 0.9470 -0.0005 0.3213
vn -0.0595 0.0595 -0.9965
vn 0.0595 0.0595 -0.9965
vn 0.4407 0.8977 0.0003
vn -0.4407 0.8977 -0.0003
vn 0.5767 0.4312 -0.6939
vn -0.5766 0.4306 -0.6943
vn -0.0000 0.6891 -0.7246
vn 0.7290 -0.0000 -0.6846
vn -0.7289 -0.0000 -0.6846
vn -0.9472 -0.0005 -0.3208
vn 0.9470 -0.0005 -0.3213
vn -0.6852 -0.0000 -0.7283
vn -0.6852 -0.0000 0.7283
vn -1.0000 -0.0000 -0.0000
vn 0.6852 -0.0000 0.7283
vn 1.0000 -0.0000 -0.0000
vn 0.6852 -0.0000 -0.7283
vt 0.913140 0.809460
vt 0.913220 0.809460
vt 0.915209 0.809460
vt 0.915268 0.809519
vt 0.915268 0.809549
vt 0.913140 0.809549
vt 0.917416 0.809549
vt 0.917416 0.809460
vt 0.917328 0.809460
vt 0.915327 0.809460
vt 0.915268 0.809460
vt 0.924221 0.829247
vt 0.928816 0.824110
vt 0.928816 0.824074
vt 0.924221 0.829210
vt 0.924221 0.829284
vt 0.928816 0.824147
vt 0.922605 0.828201
vt 0.922759 0.828202
vt 0.922759 0.828238
vt 0.922605 0.828238
vt 0.922759 0.828275
vt 0.922605 0.828275
vt 0.922605 0.829452
vt 0.922759 0.829430
vt 0.924221 0.830460
vt 0.928816 0.825394
vt 0.916977 0.826728
vt 0.920729 0.823899
vt 0.920830 0.823938
vt 0.916689 0.827060
vt 0.916322 0.826479
vt 0.915933 0.826773
vt 0.916274 0.826461
vt 0.920026 0.823633
vt 0.920050 0.823642
vt 0.916298 0.826470
vt 0.915909 0.826764
vt 0.920074 0.823651
vt 0.915624 0.826214
vt 0.919376 0.823386
vt 0.915133 0.826469
vt 0.919274 0.823347
vt 0.932112 0.831432
vt 0.927507 0.825743
vt 0.927507 0.822834
vt 0.932228 0.820227
vt 0.932228 0.831207
vt 0.913140 0.804791
vt 0.913220 0.804791
vt 0.917416 0.804791
vt 0.917328 0.804791
vt 0.930964 0.820227
vt 0.927362 0.822834
vt 0.927362 0.825743
vt 0.931080 0.831432
vt 0.930964 0.831207
vt 0.924221 0.828040
vt 0.928816 0.822834
vt 0.922605 0.827032
vt 0.922759 0.827053
vt 0.915884 0.826755
vt 0.578613 0.974068
vt 0.578787 0.973980
vt 0.578300 0.950941
vt 0.578124 0.950945
vt 0.603053 0.978071
vt 0.574036 0.950383
vt 0.574357 0.950376
vt 0.574890 0.975585
vt 0.574570 0.975592
vt 0.578661 0.976309
vt 0.578827 0.975858
vt 0.575394 0.974450
vt 0.574904 0.951327
vt 0.574614 0.977646
vt 0.524299 0.983310
vt 0.524484 0.983420
vt 0.575441 0.976691
s 0
usemtl Atlas
f 23/1/1 22/2/1 6/3/1 5/4/1 4/5/1 24/6/1
f 42/4/2 41/5/2 38/7/2 39/8/2 40/9/2 44/10/2
f 6/3/3 8/11/3 5/4/3
f 8/11/4 7/11/4 5/4/4
f 9/12/5 8/13/5 6/14/5 10/15/5
f 12/16/6 7/17/6 8/13/6 9/12/6
f 14/26/10 3/27/10 7/17/10 12/16/10
f 25/49/1 26/50/1 22/2/1 23/1/1
f 35/51/1 2/8/1 3/9/1 33/52/1
f 36/58/10 10/15/10 6/14/10 22/59/10
f 60/1/2 61/6/2 41/5/2 42/4/2 43/3/2 59/2/2
f 43/3/16 42/4/16 45/11/16
f 45/11/17 42/4/17 44/11/17
f 46/12/18 47/15/18 43/14/18 45/13/18
f 49/16/19 46/12/19 45/13/19 44/17/19
f 51/26/10 49/16/10 44/17/10 40/27/10
f 62/49/2 60/1/2 59/2/2 63/50/2
f 72/51/2 70/52/2 40/9/2 39/8/2
f 73/58/10 59/59/10 43/14/10 47/15/10
f 88/63/27 85/64/27 87/65/27 83/66/27
f 89/67/10 81/67/10 109/67/10 110/67/10
f 79/68/1 78/69/1 76/70/1 77/71/1
f 81/72/28 80/63/28 77/64/28 82/73/28
f 80/74/29 88/74/29 83/75/29 75/75/29
f 76/70/1 92/70/1 111/76/1 107/76/1
f 87/68/2 85/71/2 84/70/2 86/69/2
f 96/63/30 93/64/30 95/65/30 91/66/30
f 89/72/27 90/73/27 85/64/27 88/63/27
f 76/70/31 78/69/31 86/69/31 84/70/31
f 82/77/9 107/77/9 109/78/9 81/78/9
f 104/63/32 99/66/32 103/65/32 101/64/32
f 95/68/1 93/71/1 92/70/1 94/69/1
f 97/72/30 98/73/30 93/64/30 96/63/30
f 104/74/31 105/79/31 97/79/31 96/74/31
f 85/71/2 90/76/2 108/76/2 84/70/2
f 99/75/31 104/74/31 96/74/31 91/75/31
f 90/77/22 89/78/22 110/78/22 108/77/22
f 100/70/2 101/71/2 103/68/2 102/69/2
f 105/72/32 104/63/32 101/64/32 106/73/32
f 80/63/28 75/66/28 79/65/28 77/64/28
f 5/4/1 7/10/1 3/9/1 2/8/1 1/7/1 4/5/1
f 100/70/29 102/69/29 94/69/29 92/70/29
f 76/70/14 84/70/14 100/70/14 92/70/14
f 88/74/29 80/74/29 81/79/29 89/79/29
f 108/77/22 110/78/22 113/78/22 114/77/22
f 107/76/1 82/76/1 77/71/1 76/70/1
f 109/78/9 107/77/9 111/77/9 112/78/9
f 110/67/10 109/67/10 112/67/10 113/67/10
f 84/70/2 108/76/2 114/76/2 100/70/2
f 100/70/2 114/76/2 106/76/2 101/71/2
f 112/78/9 111/77/9 98/77/9 97/78/9
f 114/77/22 113/78/22 105/78/22 106/77/22
f 111/76/1 92/70/1 93/71/1 98/76/1
f 113/67/10 112/67/10 97/67/10 105/67/10
usemtl Atlas_Metallic
f 10/18/7 37/19/7 11/20/7 9/21/7
f 9/21/8 11/20/8 13/22/8 12/23/8
f 14/24/9 12/23/9 13/22/9 15/25/9
f 16/28/1 34/29/1 31/30/1 15/31/1
f 17/32/1 16/28/1 15/31/1 13/33/1
f 19/34/11 28/35/11 29/36/11 18/37/11
f 11/38/12 18/37/12 17/32/12 13/33/12
f 30/39/1 34/29/1 16/28/1 17/32/1
f 28/35/1 19/34/1 20/40/1 32/41/1
f 32/41/1 20/40/1 21/42/1 27/43/1
f 36/44/13 22/45/13 26/46/13 27/47/13 21/48/13
f 27/43/10 28/35/10 32/41/10
f 30/39/14 31/30/14 34/29/14
f 31/53/15 33/54/15 3/55/15 14/56/15 15/57/15
f 10/18/9 36/60/9 21/61/9 37/19/9
f 20/40/1 19/34/1 37/62/1 21/42/1
f 37/62/11 19/34/11 18/37/11 11/38/11
f 30/39/12 17/32/12 18/37/12 29/36/12
f 47/18/20 46/21/20 48/20/20 74/19/20
f 46/21/21 49/23/21 50/22/21 48/20/21
f 51/24/22 52/25/22 50/22/22 49/23/22
f 53/28/2 52/31/2 68/30/2 71/29/2
f 54/32/2 50/33/2 52/31/2 53/28/2
f 56/34/23 55/37/23 66/36/23 65/35/23
f 48/38/24 50/33/24 54/32/24 55/37/24
f 67/39/2 54/32/2 53/28/2 71/29/2
f 65/35/2 69/41/2 57/40/2 56/34/2
f 69/41/2 64/43/2 58/42/2 57/40/2
f 73/44/25 58/48/25 64/47/25 63/46/25 59/45/25
f 64/43/14 69/41/14 65/35/14
f 67/39/10 71/29/10 68/30/10
f 68/53/26 52/57/26 51/56/26 40/55/26 70/54/26
f 47/18/22 74/19/22 58/61/22 73/60/22
f 57/40/2 58/42/2 74/62/2 56/34/2
f 74/62/23 48/38/23 55/37/23 56/34/23
f 67/39/24 66/36/24 55/37/24 54/32/24
