# Blender 4.2.0
# www.blender.org
mtllib Wall_Orange_2nd_Floor.mtl
o Wall_Orange_2nd_Floor
v -1.573019 3.563787 -0.009398
v 0.045177 3.563787 -0.028350
v -0.045177 3.563787 -0.028350
v -0.000003 3.541609 -0.032372
v -0.000166 3.541609 -0.096166
v 0.045011 3.563787 -0.096208
v -0.000217 3.471170 -0.102825
v -0.045344 3.563787 -0.096208
v -0.045395 3.492214 -0.118771
v -1.487596 3.563787 -0.096208
v -1.461030 3.492214 -0.118771
v -1.271326 3.163645 -0.118771
v -0.045395 3.163645 -0.118771
v -0.000217 3.147806 -0.102825
v 0.044959 3.163645 -0.118771
v 1.262371 3.163645 -0.118771
v 1.452075 3.492214 -0.118772
v 1.563846 3.563787 -0.009398
v 1.563846 -0.001201 -0.009398
v 1.452075 -0.001201 -0.118772
v 0.044959 -0.001201 -0.118771
v -0.000217 -0.000662 -0.102825
v -0.045395 -0.001201 -0.118771
v -1.461030 -0.001201 -0.118771
v 1.262371 -0.001201 -0.118771
v -1.573019 -0.001201 -0.009398
v -1.271326 -0.001201 -0.118771
v 1.478589 3.563787 -0.096208
v 0.044959 3.492214 -0.118771
v -1.573019 3.563787 0.009398
v 0.045177 3.563787 0.028350
v -0.045177 3.563787 0.028350
v -0.000003 3.541609 0.032372
v -0.000166 3.541609 0.096166
v 0.045011 3.563787 0.096208
v -0.000217 3.471170 0.102824
v -0.045344 3.563787 0.096208
v -0.045395 3.492214 0.118771
v -1.487596 3.563787 0.096208
v -1.461030 3.492214 0.118771
v -1.271326 3.163645 0.118771
v -0.045395 3.163645 0.118771
v -0.000217 3.147806 0.102824
v 0.044959 3.163645 0.118771
v 1.262371 3.163645 0.118771
v 1.452075 3.492214 0.118771
v 1.563846 3.563787 0.009398
v 1.563846 -0.001201 0.009398
v 1.452075 -0.001201 0.118771
v 0.044959 -0.001201 0.118771
v -0.000217 -0.000662 0.102824
v -0.045395 -0.001201 0.118771
v -1.461030 -0.001201 0.118771
v 1.262371 -0.001201 0.118771
v -1.573019 -0.001201 0.009398
v -1.271326 -0.001201 0.118771
v 1.478589 3.563787 0.096208
v 0.044959 3.492214 0.118771
v 2.000000 -0.001192 -0.094916
v 1.620709 3.632121 -0.162073
v 1.928620 3.632121 -0.162073
v 1.620709 -0.073747 -0.162073
v 1.928620 -0.073747 -0.162073
v 2.000000 3.645361 -0.094916
v 2.000000 3.998808 -0.094916
v 1.928620 3.928191 -0.162073
v 2.000000 -0.001192 0.094916
v 1.620709 3.632121 0.162073
v 1.928620 3.632121 0.162073
v 1.620709 -0.073747 0.162072
v 1.928620 -0.073747 0.162072
v 2.000000 3.645361 0.094916
v 2.000000 3.998808 0.094916
v 1.928620 3.928191 0.162073
v -2.000000 -0.001192 -0.094916
v -1.620709 3.632121 -0.162072
v -1.928620 3.632121 -0.162072
v -1.620709 -0.073747 -0.162072
v -1.928620 -0.073747 -0.162072
v -2.000000 3.645361 -0.094916
v -2.000000 3.998808 -0.094916
v -1.928620 3.928191 -0.162072
v -2.000000 -0.001192 0.094916
v -1.620709 3.632121 0.162073
v -1.928620 3.632121 0.162073
v -1.620709 -0.073747 0.162072
v -1.928620 -0.073747 0.162073
v -2.000000 3.645361 0.094916
v -2.000000 3.998808 0.094916
v -1.928620 3.928191 0.162073
v 1.620710 3.928191 -0.162073
v 1.620710 3.928191 0.162073
v 1.620709 3.998808 -0.094916
v 1.620709 3.998808 0.094916
v -1.620709 3.928191 -0.162072
v -1.620709 3.998808 -0.094916
v -1.620709 3.998808 0.094916
v -1.620709 3.928191 0.162073
v -1.676963 3.631416 -0.010020
v 0.048341 3.631416 -0.030227
v -0.047994 3.631416 -0.030227
v 0.000171 3.607770 -0.034514
v 1.667530 3.631416 -0.010020
v 1.667530 0.003664 -0.010020
v -1.676963 0.003664 -0.010020
v -1.676963 3.631416 0.010020
v 0.048341 3.631416 0.030227
v -0.047994 3.631416 0.030227
v 0.000171 3.607770 0.034514
v 1.667530 3.631416 0.010020
v 1.667530 0.003664 0.010020
v -1.676963 0.003664 0.010020
vn -0.4407 0.8976 0.0011
vn 0.4406 0.8977 -0.0011
vn -0.2605 0.1948 -0.9456
vn 0.2604 0.1944 -0.9457
vn -0.0000 0.3007 -0.9537
vn -0.0000 1.0000 -0.0000
vn -0.0000 -0.0000 -1.0000
vn -0.3329 -0.0000 -0.9430
vn 0.3328 -0.0000 -0.9430
vn 0.6995 -0.0003 -0.7146
vn -0.0000 -1.0000 -0.0000
vn -0.6988 -0.0003 -0.7153
vn -0.4407 0.8976 -0.0011
vn 0.4407 0.8977 0.0011
vn -0.2605 0.1948 0.9456
vn 0.2604 0.1944 0.9457
vn -0.0000 0.3007 0.9537
vn -0.0000 -0.0000 1.0000
vn -0.3329 -0.0000 0.9430
vn 0.3329 -0.0000 0.9430
vn 0.6995 -0.0003 0.7146
vn -0.6988 -0.0003 0.7153
vn 0.6852 -0.0000 0.7283
vn 0.6852 -0.0000 -0.7283
vn 1.0000 -0.0000 -0.0000
vn -0.6852 -0.0000 -0.7283
vn -1.0000 -0.0000 -0.0000
vn -0.0000 0.6891 -0.7246
vn -0.6852 -0.0000 0.7283
vn -0.0000 0.6891 0.7246
vn -0.0124 -0.0283 0.9995
vn -0.1042 -0.0319 0.9940
vn 0.1044 -0.0325 -0.9940
vn 0.0125 -0.0283 0.9995
vn -0.0124 -0.0283 -0.9995
vn 0.0060 -0.0000 1.0000
vn -0.1042 -0.0319 -0.9940
vn 0.0125 -0.0283 -0.9995
vn -0.0060 -0.0000 1.0000
vn 0.0060 -0.0000 -1.0000
vn 0.1044 -0.0325 0.9940
vn -0.0060 -0.0000 -1.0000
vt 0.434396 0.573381
vt 0.455731 0.549533
vt 0.455731 0.549362
vt 0.434396 0.573210
vt 0.434396 0.573553
vt 0.455731 0.549705
vt 0.426894 0.568528
vt 0.427611 0.568529
vt 0.427611 0.568700
vt 0.426894 0.568700
vt 0.427611 0.568871
vt 0.426894 0.568871
vt 0.426894 0.574335
vt 0.427611 0.574235
vt 0.434396 0.579017
vt 0.455731 0.555493
vt 0.400763 0.561685
vt 0.418183 0.548553
vt 0.418654 0.548732
vt 0.399424 0.563227
vt 0.397722 0.560532
vt 0.395914 0.561895
vt 0.397498 0.560447
vt 0.414919 0.547315
vt 0.415031 0.547357
vt 0.397610 0.560489
vt 0.395802 0.561853
vt 0.415143 0.547400
vt 0.394479 0.559301
vt 0.411900 0.546169
vt 0.392200 0.560486
vt 0.411429 0.545990
vt 0.471034 0.583529
vt 0.449652 0.557115
vt 0.449652 0.543608
vt 0.471574 0.531503
vt 0.471574 0.582485
vt 0.465703 0.531503
vt 0.448981 0.543608
vt 0.448981 0.557115
vt 0.466244 0.583529
vt 0.465703 0.582485
vt 0.434396 0.567779
vt 0.455731 0.543608
vt 0.426894 0.563097
vt 0.427611 0.563197
vt 0.395690 0.561810
vt 0.596815 0.978526
s 0
usemtl Atlas_Metallic
f 6/7/3 29/8/3 7/9/3 5/10/3
f 5/10/4 7/9/4 9/11/4 8/12/4
f 10/13/5 8/12/5 9/11/5 11/14/5
f 12/17/7 27/18/7 24/19/7 11/20/7
f 13/21/7 12/17/7 11/20/7 9/22/7
f 15/23/8 21/24/8 22/25/8 14/26/8
f 7/27/9 14/26/9 13/21/9 9/22/9
f 23/28/7 27/18/7 12/17/7 13/21/7
f 21/24/7 15/23/7 16/29/7 25/30/7
f 25/30/7 16/29/7 17/31/7 20/32/7
f 28/33/10 18/34/10 19/35/10 20/36/10 17/37/10
f 20/32/6 21/24/6 25/30/6
f 23/28/11 24/19/11 27/18/11
f 24/38/12 26/39/12 1/40/12 10/41/12 11/42/12
f 6/7/5 28/45/5 17/46/5 29/8/5
f 16/29/7 15/23/7 29/47/7 17/31/7
f 29/47/8 15/23/8 14/26/8 7/27/8
f 23/28/9 13/21/9 14/26/9 22/25/9
f 35/7/15 34/10/15 36/9/15 58/8/15
f 34/10/16 37/12/16 38/11/16 36/9/16
f 39/13/17 40/14/17 38/11/17 37/12/17
f 41/17/18 40/20/18 53/19/18 56/18/18
f 42/21/18 38/22/18 40/20/18 41/17/18
f 44/23/19 43/26/19 51/25/19 50/24/19
f 36/27/20 38/22/20 42/21/20 43/26/20
f 52/28/18 42/21/18 41/17/18 56/18/18
f 50/24/18 54/30/18 45/29/18 44/23/18
f 54/30/18 49/32/18 46/31/18 45/29/18
f 57/33/21 46/37/21 49/36/21 48/35/21 47/34/21
f 49/32/6 54/30/6 50/24/6
f 52/28/11 56/18/11 53/19/11
f 53/38/22 40/42/22 39/41/22 30/40/22 55/39/22
f 35/7/17 58/8/17 46/46/17 57/45/17
f 45/29/18 46/31/18 58/47/18 44/23/18
f 58/47/19 36/27/19 43/26/19 44/23/19
f 52/28/20 51/25/20 43/26/20 42/21/20
f 55/39/36 30/40/36 106/40/36 112/39/36
f 47/34/39 48/35/39 111/35/39 110/34/39
f 1/40/40 26/39/40 105/39/40 99/40/40
f 19/35/42 18/34/42 103/34/42 104/35/42
usemtl Atlas
f 5/1/1 4/2/1 2/3/1 6/4/1
f 8/5/2 3/6/2 4/2/2 5/1/2
f 10/15/6 1/16/6 3/6/6 8/5/6
f 28/43/6 6/4/6 2/3/6 18/44/6
f 34/1/13 35/4/13 31/3/13 33/2/13
f 37/5/14 34/1/14 33/2/14 32/6/14
f 39/15/6 37/5/6 32/6/6 30/16/6
f 57/43/6 47/44/6 31/3/6 35/4/6
f 72/48/23 69/48/23 71/48/23 67/48/23
f 73/48/6 65/48/6 93/48/6 94/48/6
f 63/48/7 62/48/7 60/48/7 61/48/7
f 65/48/24 64/48/24 61/48/24 66/48/24
f 64/48/25 72/48/25 67/48/25 59/48/25
f 60/48/7 76/48/7 95/48/7 91/48/7
f 71/48/18 69/48/18 68/48/18 70/48/18
f 80/48/26 77/48/26 79/48/26 75/48/26
f 73/48/23 74/48/23 69/48/23 72/48/23
f 60/48/27 62/48/27 70/48/27 68/48/27
f 66/48/28 91/48/28 93/48/28 65/48/28
f 88/48/29 83/48/29 87/48/29 85/48/29
f 79/48/7 77/48/7 76/48/7 78/48/7
f 81/48/26 82/48/26 77/48/26 80/48/26
f 88/48/27 89/48/27 81/48/27 80/48/27
f 69/48/18 74/48/18 92/48/18 68/48/18
f 83/48/27 88/48/27 80/48/27 75/48/27
f 74/48/30 73/48/30 94/48/30 92/48/30
f 84/48/18 85/48/18 87/48/18 86/48/18
f 89/48/29 88/48/29 85/48/29 90/48/29
f 64/48/24 59/48/24 63/48/24 61/48/24
f 84/48/25 86/48/25 78/48/25 76/48/25
f 60/48/11 68/48/11 84/48/11 76/48/11
f 72/48/25 64/48/25 65/48/25 73/48/25
f 92/48/30 94/48/30 97/48/30 98/48/30
f 91/48/7 66/48/7 61/48/7 60/48/7
f 93/48/28 91/48/28 95/48/28 96/48/28
f 94/48/6 93/48/6 96/48/6 97/48/6
f 68/48/18 92/48/18 98/48/18 84/48/18
f 84/48/18 98/48/18 90/48/18 85/48/18
f 96/48/28 95/48/28 82/48/28 81/48/28
f 98/48/30 97/48/30 89/48/30 90/48/30
f 95/48/7 76/48/7 77/48/7 82/48/7
f 97/48/6 96/48/6 81/48/6 89/48/6
f 30/16/31 32/6/31 108/6/31 106/16/31
f 32/6/32 33/2/32 109/2/32 108/6/32
f 2/3/33 4/2/33 102/2/33 100/3/33
f 31/3/34 47/44/34 110/44/34 107/3/34
f 3/6/35 1/16/35 99/16/35 101/6/35
f 4/2/37 3/6/37 101/6/37 102/2/37
f 18/44/38 2/3/38 100/3/38 103/44/38
f 33/2/41 31/3/41 107/3/41 109/2/41
